<svg xmlns="http://www.w3.org/2000/svg" viewBox="0 0 323.15 323.15"><defs><style>.cls-1{fill:none;}.cls-2{fill:#231815;}</style></defs><title>logo</title><g id="レイヤー_3" data-name="レイヤー 3"><rect class="cls-1" width="323.15" height="323.15"/></g><g id="レイヤー_1" data-name="レイヤー 1"><path class="cls-2" d="M203.31,233.86l-41.73,72.28-41.74-72.28-4.91,8.5,46.64,80.79,46.65-80.79ZM78.11,161.57,36.38,89.29h83.46l-4.91-8.5H21.65l46.64,80.78Zm176.75,0L301.5,80.79H208.22l-4.91,8.5h83.46L245,161.57Z"/><path class="cls-2" d="M41.29,92.13,161.58,300.47,281.86,92.13ZM73.57,114l45,26v43.08l-3.87,2.23Zm85.17,147.51-41.16-71.29,3.87-2.23,37.29,21.53Zm0-58.55-31.62-18.25,31.62-18.26Zm-34.46-23.16V143.31l31.63,18.26Zm34.46-23.17L127.12,138.4l31.62-18.24Zm0-43.06-37.29,21.53-45-26h82.33Zm5.67-4.47h82.33l-45,26-37.29-21.52Zm2.83,52.44,31.63-18.26v36.52Zm-2.83-41.42L196,138.4l-31.62,18.26Zm0,46.33L196,184.74,164.41,203Zm0,95.08v-52L201.71,188l3.87,2.24Zm40.13-78.45V140l45-26-41.17,71.31Z"/></g></svg>