<?xml version="1.0" encoding="UTF-8"?>
<!DOCTYPE svg PUBLIC "-//W3C//DTD SVG 1.1//EN" "http://www.w3.org/Graphics/SVG/1.1/DTD/svg11.dtd">
<!-- Creator: CorelDRAW Home & Student X7 -->
<svg xmlns="http://www.w3.org/2000/svg" xml:space="preserve" width="11in" height="8.5in" version="1.1" style="shape-rendering:geometricPrecision; text-rendering:geometricPrecision; image-rendering:optimizeQuality; fill-rule:evenodd; clip-rule:evenodd"
viewBox="0 0 11000 8500"
 xmlns:xlink="http://www.w3.org/1999/xlink">
 <defs>
  <style type="text/css">
   <![CDATA[
    .fil0 {fill:#FEFEFE}
    .fil4 {fill:black}
    .fil3 {fill:#088893}
    .fil6 {fill:#339966}
    .fil2 {fill:#C83E0D}
    .fil5 {fill:#FFCC00}
    .fil1 {fill:#FFCC00}
   ]]>
  </style>
 </defs>
 <g id="Layer_x0020_1">
  <metadata id="CorelCorpID_0Corel-Layer"/>
  <polygon class="fil0" points="30226,13186 15004,13186 15004,2352 30226,2352 "/>
  <path class="fil1" d="M2231 1566l0 555 254 0 0 -514c0,-33 13,-49 40,-49 30,0 45,16 45,49l0 514 231 0 0 -514c0,-33 14,-49 43,-49 28,0 41,16 41,49l0 514 255 0 0 -567c0,-45 -9,-83 -27,-116 -18,-33 -41,-59 -69,-80 -27,-21 -58,-36 -90,-45 -33,-10 -64,-15 -93,-15 -37,0 -70,6 -100,17 -30,12 -56,30 -78,56 -18,-26 -44,-44 -76,-56 -32,-11 -66,-17 -101,-17 -34,0 -68,5 -101,15 -33,9 -62,25 -88,46 -25,22 -46,50 -62,84 -16,34 -24,75 -24,123z"/>
  <polygon class="fil2" points="1550,2682 1630,2306 1709,2682 "/>
  <path class="fil2" d="M827 3464l818 0 32 -150 112 0 97 150 925 0 -611 -1990 -120 -212 -773 0 -618 2005 138 197zm612 -300l-612 0 553 -1802 623 0 553 1802 -729 0 -38 -147 -318 0 -32 147z"/>
  <path class="fil2" d="M3278 2145c31,44 69,77 115,96 46,19 95,29 148,29 28,0 54,-2 77,-7 23,-5 45,-12 64,-21l8 14 345 0 0 -539c0,-45 -5,-85 -15,-121 -11,-35 -24,-66 -39,-95 -48,-85 -98,-146 -152,-181 -53,-36 -109,-54 -168,-54l-400 0 0 356c-30,23 -53,55 -69,93 -16,39 -24,87 -24,143 0,26 3,51 7,73 4,23 11,45 20,68 9,22 20,45 34,68 14,24 30,49 49,78zm658 -24l-261 0 0 -66c-14,24 -37,44 -69,59 -32,14 -73,21 -122,21 -34,0 -68,-4 -100,-14 -33,-9 -62,-24 -87,-46 -25,-21 -45,-50 -60,-86 -15,-35 -22,-79 -22,-131 0,-49 7,-90 21,-123 15,-34 35,-60 61,-80 26,-20 57,-34 94,-42 36,-8 77,-13 121,-13l64 0c6,2 11,5 16,8 4,3 9,9 13,17 5,8 8,20 11,34 3,15 4,33 4,56 0,24 -1,43 -3,58 -1,14 -4,26 -9,36l-84 0c-29,0 -44,12 -44,37 0,10 4,19 11,27 7,9 18,13 33,13 23,0 43,-3 60,-8 16,-4 29,-13 39,-25 10,-13 18,-30 22,-52 5,-23 7,-51 7,-86 0,-58 -8,-96 -25,-116 -16,-19 -41,-29 -76,-29l-244 0 0 -259 354 0c35,0 70,7 103,19 33,13 63,33 88,58 25,26 45,59 61,98 15,39 23,85 23,138l0 497z"/>
  <path class="fil2" d="M4008 2167l60 89 733 0 0 -344 -54 -96 -99 0 152 -180 0 -275 -54 -95 -738 0 0 350 60 89 92 0 -152 185 0 277zm693 -305l0 259 -647 0 0 -214 277 -337 -277 0 0 -259 646 0 0 218 -278 333 279 0z"/>
  <path class="fil2" d="M4789 2167l61 89 364 0 0 -895 -53 -95 -372 0 0 901zm326 -46l-281 0 0 -810 281 0 0 810z"/>
  <path class="fil2" d="M5206 2196l67 60 367 0 0 -70 43 70 365 0 0 -520c0,-47 -5,-90 -14,-130 -9,-39 -24,-74 -44,-105 -44,-89 -98,-153 -161,-192 -63,-38 -140,-57 -230,-57 -127,0 -223,33 -289,100 -65,67 -97,165 -98,293l-6 551zm333 -75l-281 0 0 -476c0,-113 29,-199 86,-258 57,-59 142,-89 255,-89 113,0 200,30 260,89 60,59 90,145 90,258l0 476 -282 0 0 -501c0,-23 -5,-39 -17,-49 -11,-9 -28,-14 -51,-14 -20,0 -34,5 -45,14 -10,10 -15,26 -15,49l0 501z"/>
  <path class="fil2" d="M6156 2077c43,60 94,107 156,142 61,34 130,51 208,51 25,0 51,-3 76,-9 26,-5 49,-13 71,-23l12 18 275 0 0 -513c-8,-41 -18,-80 -30,-116 -12,-36 -27,-68 -45,-97 -52,-98 -112,-169 -180,-213 -68,-43 -147,-65 -239,-65 -61,0 -118,11 -171,33 -53,22 -99,53 -139,93 -39,40 -70,89 -92,146 -22,57 -34,121 -34,193 0,65 11,126 33,182 22,56 55,116 99,178zm423 37c-37,14 -76,21 -118,21 -55,0 -106,-9 -154,-29 -48,-19 -89,-47 -124,-83 -34,-36 -62,-80 -82,-131 -20,-52 -30,-110 -30,-175 0,-64 10,-121 30,-173 20,-52 48,-96 82,-132 35,-36 76,-64 124,-84 48,-20 99,-30 153,-30 118,0 211,31 278,93 68,62 105,148 112,258l-282 0c-5,-30 -17,-54 -36,-70 -19,-16 -42,-23 -71,-23 -32,0 -59,13 -79,40 -21,28 -31,68 -31,121 0,30 3,56 9,78 7,21 16,38 26,50 11,13 23,22 36,28 13,6 26,9 39,9 29,0 50,-8 66,-23 15,-16 26,-35 31,-59l-114 0 0 -100 410 0 0 421 -190 0 0 -64c-20,23 -48,42 -85,57z"/>
  <path class="fil2" d="M6997 2116c14,23 28,44 41,63 13,18 27,34 41,45 15,12 31,21 50,28 19,6 42,9 68,9 25,0 48,-5 71,-15 22,-9 42,-23 59,-39 18,-17 31,-37 41,-60 9,-24 14,-49 14,-75 0,-38 -9,-72 -28,-103l-33 -50 37 -282 0 -276 -54 -95 -337 0 0 282 37 289c-38,37 -58,85 -58,144 0,54 17,98 51,135zm198 -1c-17,7 -35,11 -55,11 -44,0 -79,-14 -106,-41 -28,-27 -41,-62 -41,-104 0,-43 13,-79 41,-107 27,-27 62,-41 106,-41 20,0 38,4 55,11 17,8 33,18 46,31 13,13 23,29 31,47 7,18 11,38 11,59 0,21 -4,40 -11,58 -8,18 -18,33 -31,45 -13,13 -29,23 -46,31zm63 -804l0 230 -33 263 -177 0 -34 -263 0 -230 244 0z"/>
  <path class="fil3" d="M4755 3224c54,77 120,136 197,178 78,41 165,62 263,62 82,0 153,-13 215,-39 62,-26 115,-62 158,-110 44,-48 79,-106 106,-174 27,-68 46,-145 57,-229l-42 -64 40 0c-6,-66 -16,-126 -31,-182 -15,-56 -37,-106 -66,-149 -64,-122 -137,-209 -219,-263 -83,-53 -181,-80 -294,-80 -80,0 -153,14 -220,41 -66,27 -124,67 -174,118 -49,51 -87,113 -115,186 -28,72 -42,153 -42,244 0,86 14,165 42,236 28,72 70,147 125,225zm721 -51c-39,39 -86,68 -141,89 -55,21 -119,31 -191,31 -71,0 -136,-12 -196,-35 -60,-24 -113,-58 -157,-102 -45,-45 -80,-100 -106,-166 -25,-66 -38,-141 -38,-227 0,-82 12,-155 37,-220 26,-65 60,-121 103,-167 44,-45 96,-81 156,-106 60,-25 125,-37 196,-37 149,0 264,39 343,118 80,78 125,187 137,327l-343 0c-17,-80 -61,-119 -132,-119 -43,0 -77,17 -103,52 -27,34 -40,85 -40,152 0,66 13,116 40,150 26,35 60,52 103,52 29,0 56,-10 81,-31 25,-20 41,-49 49,-84l343 0c-9,68 -25,129 -48,184 -23,54 -54,101 -93,139z"/>
  <path class="fil4" d="M6258 2965c-42,0 -77,-15 -104,-47 -28,-31 -41,-83 -41,-155 0,-73 12,-125 36,-157 24,-31 60,-47 109,-47 47,0 82,16 106,47 24,32 36,84 36,157 0,72 -13,124 -40,155 -27,32 -61,47 -102,47z"/>
  <path class="fil3" d="M5868 3234c51,73 114,129 190,169 77,41 167,61 272,61 85,0 161,-14 229,-41 68,-26 126,-65 173,-115 48,-50 84,-111 109,-184 25,-72 38,-154 38,-246 0,-68 -8,-132 -24,-191 -15,-60 -38,-113 -67,-160 -61,-123 -135,-212 -222,-268 -87,-57 -190,-85 -308,-85 -87,0 -165,14 -233,42 -69,28 -127,67 -175,118 -48,51 -85,112 -110,185 -26,72 -39,153 -39,244 0,42 4,83 10,122 7,39 17,77 30,114 14,38 31,76 52,114 21,39 46,79 75,121zm597 23c-61,24 -130,36 -207,36 -77,0 -146,-12 -208,-36 -62,-24 -114,-59 -157,-104 -43,-46 -76,-102 -99,-168 -23,-66 -34,-140 -34,-222 0,-80 11,-154 34,-219 23,-66 56,-122 99,-168 43,-45 95,-81 157,-106 62,-25 131,-37 208,-37 77,0 146,12 207,37 61,25 112,61 154,106 43,46 75,102 98,168 23,65 35,139 35,219 0,82 -12,156 -35,222 -23,66 -55,122 -98,168 -42,45 -93,80 -154,104z"/>
  <path class="fil3" d="M6154 2918c27,32 62,47 104,47 41,0 75,-15 102,-47 27,-31 40,-83 40,-155 0,-73 -12,-125 -36,-157 -24,-31 -59,-47 -106,-47 -49,0 -85,16 -109,47 -24,32 -36,84 -36,157 0,72 13,124 41,155z"/>
  <path class="fil3" d="M6848 3199c13,27 27,53 42,77l52 81c21,33 48,59 81,78 32,19 73,29 123,29 33,0 63,-7 91,-19 29,-12 54,-29 76,-50 21,-21 38,-46 51,-75 12,-29 18,-61 18,-96 0,-50 -12,-93 -35,-130l-50 -80c-26,-43 -57,-78 -93,-107 -36,-28 -79,-42 -130,-42 -35,0 -68,6 -98,18 -30,12 -56,29 -78,51 -22,22 -39,48 -51,77 -12,30 -18,62 -18,98 0,33 6,64 19,90zm297 81c-23,9 -46,13 -71,13 -54,0 -99,-17 -134,-52 -35,-34 -53,-78 -53,-132 0,-55 18,-99 53,-135 35,-35 80,-52 134,-52 25,0 48,4 71,14 22,9 41,22 58,39 17,17 30,37 39,60 10,22 15,47 15,74 0,27 -5,51 -15,74 -9,22 -22,41 -39,58 -17,17 -36,30 -58,39z"/>
  <path class="fil2" d="M2485 2121l-254 0 0 -555c0,-48 8,-89 24,-123 16,-34 37,-62 62,-84 26,-21 55,-37 88,-46 33,-10 67,-15 101,-15 35,0 69,6 101,17 32,12 58,30 76,56 22,-26 48,-44 78,-56 30,-11 63,-17 100,-17 29,0 60,5 93,15 32,9 63,24 90,45 28,21 51,47 69,80 18,33 27,71 27,116l0 567 -255 0 0 -514c0,-33 -13,-49 -41,-49 -29,0 -43,16 -43,49l0 514 -231 0 0 -514c0,-33 -15,-49 -45,-49 -27,0 -40,16 -40,49l0 514zm-300 -555l0 601 61 89 994 0 0 -609c0,-31 -4,-60 -11,-85 -8,-26 -19,-50 -32,-70 -21,-46 -46,-84 -73,-115 -28,-31 -57,-55 -87,-74 -30,-18 -60,-31 -90,-39 -31,-8 -59,-12 -86,-12 -36,0 -68,4 -97,12 -28,8 -55,22 -81,42 -24,-19 -51,-32 -82,-41 -32,-9 -63,-13 -95,-13 -39,0 -78,6 -117,17 -38,11 -72,30 -103,55 -30,25 -55,57 -73,98 -19,40 -28,88 -28,144z"/>
  <path class="fil3" d="M4036 2121l218 442 488 71 -353 344 83 486 -165 -87 -68 -399 353 -344 -488 -71 -143 -290 75 -152zm-75 1153l-362 190 15 -87 272 -143 75 40z"/>
  <path class="fil5" d="M3736 2121l218 442 488 71 -353 344 83 486 -165 -87 -68 -399 353 -344 -488 -71 -143 -290 75 -152zm-75 1153l-362 190 15 -87 272 -143 75 40z"/>
  <path class="fil6" d="M3436 2121l218 442 488 71 -353 344 83 486 -165 -87 -68 -399 353 -344 -488 -71 -143 -290 75 -152zm-75 1153l-362 190 15 -87 272 -143 75 40z"/>
  <polygon class="fil2" points="3106,2121 3324,2563 3812,2634 3459,2978 3542,3464 3106,3234 2669,3464 2753,2978 2400,2634 2887,2563 "/>
  <path class="fil1" d="M7034 1874c-28,28 -41,64 -41,107 0,42 13,77 41,104 27,27 62,41 106,41 20,0 38,-4 55,-11 17,-8 33,-18 46,-31 13,-12 23,-27 31,-45 7,-18 11,-37 11,-58 0,-21 -4,-41 -11,-59 -8,-18 -18,-34 -31,-47 -13,-13 -29,-23 -46,-31 -17,-7 -35,-11 -55,-11 -44,0 -79,14 -106,41z"/>
  <polygon class="fil1" points="7048,1804 7225,1804 7258,1541 7258,1311 7014,1311 7014,1541 "/>
  <path class="fil1" d="M2556 3164l-553 -1802 -623 0 -553 1802 612 0 32 -147 318 0 38 147 729 0zm-1006 -482l80 -376 79 376 -159 0z"/>
  <path class="fil1" d="M3215 1858c0,52 7,96 22,131 15,36 35,65 60,86 25,22 54,37 87,46 32,10 66,14 100,14 49,0 90,-7 122,-21 32,-15 55,-35 69,-59l0 66 261 0 0 -497c0,-53 -8,-99 -23,-138 -16,-39 -36,-72 -61,-98 -25,-25 -55,-45 -88,-58 -33,-12 -68,-19 -103,-19l-354 0 0 259 244 0c35,0 60,10 76,29 17,20 25,58 25,116 0,35 -2,63 -7,86 -4,22 -12,39 -22,52 -10,12 -23,21 -39,25 -17,5 -37,8 -60,8 -15,0 -26,-4 -33,-13 -7,-8 -11,-17 -11,-27 0,-25 15,-37 44,-37l84 0c5,-10 8,-22 9,-36 2,-15 3,-34 3,-58 0,-23 -1,-41 -4,-56 -3,-14 -6,-26 -11,-34 -4,-8 -9,-14 -13,-17 -5,-3 -10,-6 -16,-8l-64 0c-44,0 -85,5 -121,13 -37,8 -68,22 -94,42 -26,20 -46,46 -61,80 -14,33 -21,74 -21,123z"/>
  <polygon class="fil1" points="4331,1570 4054,1907 4054,2121 4701,2121 4701,1862 4422,1862 4700,1529 4700,1311 4054,1311 4054,1570 "/>
  <polygon class="fil1" points="4834,1311 4834,2121 5115,2121 5115,1311 "/>
  <path class="fil1" d="M5258 1645l0 476 281 0 0 -501c0,-23 5,-39 15,-49 11,-9 25,-14 45,-14 23,0 40,5 51,14 12,10 17,26 17,49l0 501 282 0 0 -476c0,-113 -30,-199 -90,-258 -60,-59 -147,-89 -260,-89 -113,0 -198,30 -255,89 -57,59 -86,145 -86,258z"/>
  <path class="fil1" d="M6101 1544c-20,52 -30,109 -30,173 0,65 10,123 30,175 20,51 48,95 82,131 35,36 76,64 124,83 48,20 99,29 154,29 42,0 81,-7 118,-21 37,-15 65,-34 85,-57l0 64 190 0 0 -421 -410 0 0 100 114 0c-5,24 -16,43 -31,59 -16,15 -37,23 -66,23 -13,0 -26,-3 -39,-9 -13,-6 -25,-15 -36,-28 -10,-12 -19,-29 -26,-50 -6,-22 -9,-48 -9,-78 0,-53 10,-93 31,-121 20,-27 47,-40 79,-40 29,0 52,7 71,23 19,16 31,40 36,70l282 0c-7,-110 -44,-196 -112,-258 -67,-62 -160,-93 -278,-93 -54,0 -105,10 -153,30 -48,20 -89,48 -124,84 -34,36 -62,80 -82,132z"/>
  <path class="fil1" d="M5617 2850l-343 0c-8,35 -24,64 -49,84 -25,21 -52,31 -81,31 -43,0 -77,-17 -103,-52 -27,-34 -40,-84 -40,-150 0,-67 13,-118 40,-152 26,-35 60,-52 103,-52 71,0 115,39 132,119l343 0c-12,-140 -57,-249 -137,-327 -79,-79 -194,-118 -343,-118 -71,0 -136,12 -196,37 -60,25 -112,61 -156,106 -43,46 -77,102 -103,167 -25,65 -37,138 -37,220 0,86 13,161 38,227 26,66 61,121 106,166 44,44 97,78 157,102 60,23 125,35 196,35 72,0 136,-10 191,-31 55,-21 102,-50 141,-89 39,-38 70,-85 93,-139 23,-55 39,-116 48,-184z"/>
  <path class="fil1" d="M5760 2763c0,82 11,156 34,222 23,66 56,122 99,168 43,45 95,80 157,104 62,24 131,36 208,36 77,0 146,-12 207,-36 61,-24 112,-59 154,-104 43,-46 75,-102 98,-168 23,-66 35,-140 35,-222 0,-80 -12,-154 -35,-219 -23,-66 -55,-122 -98,-168 -42,-45 -93,-81 -154,-106 -61,-25 -130,-37 -207,-37 -77,0 -146,12 -208,37 -62,25 -114,61 -157,106 -43,46 -76,102 -99,168 -23,65 -34,139 -34,219zm498 202c-42,0 -77,-15 -104,-47 -28,-31 -41,-83 -41,-155 0,-73 12,-125 36,-157 24,-31 60,-47 109,-47 47,0 82,16 106,47 24,32 36,84 36,157 0,72 -13,124 -40,155 -27,32 -61,47 -102,47z"/>
  <path class="fil1" d="M6887 3109c0,54 18,98 53,132 35,35 80,52 134,52 25,0 48,-4 71,-13 22,-9 41,-22 58,-39 17,-17 30,-36 39,-58 10,-23 15,-47 15,-74 0,-27 -5,-52 -15,-74 -9,-23 -22,-43 -39,-60 -17,-17 -36,-30 -58,-39 -23,-10 -46,-14 -71,-14 -54,0 -99,17 -134,52 -35,36 -53,80 -53,135z"/>
 </g>
</svg>
