<?xml version="1.0" encoding="UTF-8" standalone="no"?>
<!-- Created using Krita: http://krita.org -->

<svg
   xmlns:dc="http://purl.org/dc/elements/1.1/"
   xmlns:cc="http://creativecommons.org/ns#"
   xmlns:rdf="http://www.w3.org/1999/02/22-rdf-syntax-ns#"
   xmlns:svg="http://www.w3.org/2000/svg"
   xmlns="http://www.w3.org/2000/svg"
   xmlns:sodipodi="http://sodipodi.sourceforge.net/DTD/sodipodi-0.dtd"
   xmlns:inkscape="http://www.inkscape.org/namespaces/inkscape"
   width="746.171pt"
   height="600.138pt"
   viewBox="0 0 746.171 600.138"
   version="1.1"
   id="svg45"
   sodipodi:docname="PaperCrane.svg"
   inkscape:version="0.92.3 (2405546, 2018-03-11)">
  <metadata
     id="metadata49">
    <rdf:RDF>
      <cc:Work
         rdf:about="">
        <dc:format>image/svg+xml</dc:format>
        <dc:type
           rdf:resource="http://purl.org/dc/dcmitype/StillImage" />
      </cc:Work>
    </rdf:RDF>
  </metadata>
  <sodipodi:namedview
     pagecolor="#ffffff"
     bordercolor="#666666"
     borderopacity="1"
     objecttolerance="10"
     gridtolerance="10"
     guidetolerance="10"
     inkscape:pageopacity="0"
     inkscape:pageshadow="2"
     inkscape:window-width="1858"
     inkscape:window-height="1057"
     id="namedview47"
     showgrid="false"
     showguides="true"
     inkscape:snap-bbox="true"
     inkscape:bbox-paths="true"
     inkscape:bbox-nodes="true"
     inkscape:snap-bbox-edge-midpoints="true"
     inkscape:snap-bbox-midpoints="true"
     inkscape:object-paths="true"
     inkscape:snap-intersection-paths="true"
     inkscape:snap-smooth-nodes="true"
     inkscape:snap-midpoints="true"
     inkscape:snap-object-midpoints="true"
     inkscape:snap-center="true"
     inkscape:measure-start="508.513,489.205"
     inkscape:measure-end="895.099,673.576"
     inkscape:zoom="1"
     inkscape:cx="717.56324"
     inkscape:cy="470.8796"
     inkscape:window-x="-8"
     inkscape:window-y="-8"
     inkscape:window-maximized="1"
     inkscape:current-layer="layer1" />
  <defs
     id="defs2" />
  <path
     style="opacity:0.95;fill:#000000;fill-opacity:1;fill-rule:evenodd;stroke:none;stroke-width:2.83464551;stroke-linecap:square;stroke-linejoin:bevel;stroke-miterlimit:4;stroke-dasharray:none;stroke-opacity:1"
     d="m -174.67569,109.95623 -289.9394,138.27832 -31.0444,80.34814 c 1.5273,-0.50795 3.5088,-1.16303 5.9823,-1.97901 5.2977,-1.74763 12.3561,-4.06938 19.4136,-6.38672 13.917,-4.56971 27.4418,-8.99765 27.8292,-9.1245 l 0.394,-0.13038 v 0 l 1.6334,0.58008 58.4296,90.91259 98.8623,-50.55322 0.9303,-0.12744 9.2299,1.89112 101.0069,-240.79101 z m -496.144,12.91406 89.3965,205.47948 44.0654,12.13917 z m 228.2739,191.24121 -88.9585,29.27783 132.4952,119.04491 -12.7545,-43.45312 z m 5.0845,7.25683 6.3384,21.59473 21.5976,73.57909 25.0122,-12.78955 z m -161.6836,5.04053 -160.81935,79.20556 3.39262,4.56592 326.70693,67.90868 30.9435,-11.76415 -136.0489,-122.23828 v 0 l -35.2764,-9.71777 z m 321.0747,29.10204 64.355,63.4541 -38.6719,-58.19091 z m -4.9087,0.542 -121.9687,151.12499 4.2422,1.91602 121.7284,-141.36328 z m -4.7783,1.40625 -94.0723,48.104 v 0 l -26.8829,13.7461 13.8297,47.11523 v 10e-4 l 0.01,0.77051 -9.4203,34.65967 z m 8.581,0.94189 2.7159,7.92334 41.206,35.38477 -37.705,-37.17773 z m -119.165,110.73633 -29.102,11.06396 19.3813,24.70312 z"
     id="shape0-5"
     inkscape:connector-curvature="0" />
  <g
     aria-label="NUCORP"
     style="font-style:normal;font-variant:normal;font-weight:normal;font-stretch:normal;font-size:61.4376297px;line-height:1.25;font-family:OPTIAmericanGothic;-inkscape-font-specification:OPTIAmericanGothic;font-variant-ligatures:normal;font-variant-caps:normal;font-variant-numeric:normal;font-feature-settings:normal;text-align:start;letter-spacing:0px;word-spacing:0px;writing-mode:lr-tb;text-anchor:start;fill:#000000;fill-opacity:1;stroke:none;stroke-width:1.53594065"
     id="text814"
     transform="rotate(-25.502113,209.95446,1804.4348)"
     inkscape:transform-center-x="-128.29273"
     inkscape:transform-center-y="-87.812611">
    <path
       d="m 296.36857,63.903504 c 1.16732,-0.79869 1.22876,-1.904567 0.43007,-1.904567 l -2.94901,0.122875 c -1.65882,0.06144 -3.56338,0.06144 -4.7307,0.06144 -1.16731,0 -3.01044,0 -4.66926,-0.06144 l -3.01044,-0.122875 c -1.04444,0 -0.55294,1.966004 1.72025,2.457505 v 42.514838 c -2.33463,0.4915 -2.70325,2.45751 -1.72025,2.45751 0.61438,0 1.22875,0 1.90457,-0.0614 1.16731,-0.0614 2.4575,-0.12288 3.62482,-0.12288 1.16731,0 2.51894,0.0614 3.68625,0.12288 0.67582,0.0614 1.29019,0.0614 1.96601,0.0614 1.04444,0 0.61437,-1.96601 -1.78169,-2.45751 V 70.293017 l 28.32274,37.231203 c -1.16731,0.73725 -1.29019,1.90457 -0.4915,1.90457 0.86013,0 1.72026,0 2.51895,-0.0614 1.41306,-0.0614 3.01044,-0.12288 4.17775,-0.12288 1.16732,0 2.58038,0.0614 3.7477,0.12288 0.67581,0.0614 1.41307,0.0614 2.08888,0.0614 0.983,0 0.67581,-1.72026 -1.4745,-2.39607 V 64.456442 c 2.39606,-0.491501 2.82613,-2.457505 1.78169,-2.457505 l -1.96601,0.122875 c -1.16731,0.06144 -2.51894,0.06144 -3.68625,0.06144 -1.16732,0 -2.45751,0 -3.62482,-0.06144 l -1.96601,-0.122875 c -0.983,0 -0.55294,1.966004 1.78169,2.457505 v 33.299196 z"
       style="stroke-width:1.53594065"
       id="path847"
       inkscape:connector-curvature="0" />
    <path
       d="m 385.24002,64.456442 c 2.39607,-0.491501 2.82613,-2.457505 1.78169,-2.457505 l -2.08888,0.122875 c -1.16731,0.06144 -2.64181,0.06144 -3.80913,0.06144 -1.16731,0 -2.51894,0 -3.68626,-0.06144 L 375.41,61.998937 c -1.04444,0 -0.61437,1.966004 1.72026,2.457505 v 24.88224 c 0,4.546385 0.67581,9.33852 -5.40652,12.779028 -4.54638,2.58038 -15.60515,2.70326 -20.21298,-0.12288 -5.52938,-3.25619 -5.28363,-7.065323 -5.28363,-12.103209 V 64.456442 c 2.33463,-0.491501 2.88757,-2.457505 1.78169,-2.457505 l -2.08888,0.122875 c -1.16732,0.06144 -2.64182,0.06144 -3.80913,0.06144 -1.16732,0 -2.51895,0 -3.68626,-0.06144 l -2.02744,-0.122875 c -1.04444,0 -0.61438,1.966004 1.72025,2.457505 v 25.558054 c 0,5.529387 0.0614,12.656154 7.24964,17.079664 6.08233,3.87057 24.69793,4.11632 32.25476,-0.24575 7.1882,-4.11632 7.61826,-9.338523 7.61826,-15.666599 z"
       style="stroke-width:1.53594065"
       id="path849"
       inkscape:connector-curvature="0" />
    <path
       d="m 418.61889,104.08371 c -11.36596,0 -19.1071,-8.232639 -19.1071,-18.492723 0,-10.321522 7.74114,-18.554164 19.1071,-18.554164 6.81958,0 12.28753,2.887568 15.54372,7.556828 -0.79869,2.273192 0.4915,3.932008 1.10588,2.949006 0.30719,-0.552938 0.67581,-1.044439 1.04444,-1.597378 0.67581,-0.921564 1.29019,-2.150317 1.966,-3.133319 0.67582,-0.921565 1.41307,-1.966004 2.15032,-2.887569 l 1.29019,-1.53594 c 0.43006,-0.860127 -1.35163,-1.658816 -3.01044,0 -4.85358,-4.853573 -11.67315,-7.802579 -20.09011,-7.802579 -16.21953,0 -27.15543,11.181648 -27.15543,25.005115 0,13.762029 10.9359,24.943673 27.15543,24.943673 8.90846,0 16.1581,-3.31763 21.01167,-8.72414 1.65882,1.65882 3.44051,0.79869 2.94901,0 l -1.22875,-1.4745 c -0.67582,-0.921566 -1.53595,-1.966006 -2.21176,-2.949008 -0.67581,-0.921565 -1.29019,-2.150317 -1.966,-3.071882 -0.36863,-0.552938 -0.73726,-1.105877 -1.04444,-1.658816 -0.61438,-0.983002 -1.90457,0.675814 -1.10588,2.949007 -3.19476,5.160759 -9.21565,8.478389 -16.40385,8.478389 z"
       style="stroke-width:1.53594065"
       id="path851"
       inkscape:connector-curvature="0" />
    <path
       d="m 473.69677,67.036823 c 11.30453,0 19.04567,8.232642 19.04567,18.554164 0,10.260084 -7.74114,18.492723 -19.04567,18.492723 -11.36596,0 -19.1071,-8.232639 -19.1071,-18.492723 0,-10.321522 7.74114,-18.554164 19.1071,-18.554164 z m 0,-6.450951 c -16.21953,0 -27.15543,11.181648 -27.15543,25.005115 0,13.762029 10.9359,24.943673 27.15543,24.943673 16.1581,0 27.15544,-11.181644 27.15544,-24.943673 0,-13.823467 -10.99734,-25.005115 -27.15544,-25.005115 z"
       style="stroke-width:1.53594065"
       id="path853"
       inkscape:connector-curvature="0" />
    <path
       d="m 537.36248,87.987054 c 7.1882,-0.983002 13.3934,-4.792135 13.3934,-13.147652 0,-8.847019 -7.43395,-12.840465 -16.1581,-12.840465 H 505.2306 c -1.04444,0 -0.55294,1.966004 1.72025,2.457505 v 42.514838 c -2.33463,0.4915 -2.70326,2.45751 -1.72025,2.45751 0.67581,0 1.35162,0 2.02744,-0.0614 1.16731,-0.0614 2.51894,-0.12288 3.68626,-0.12288 1.16731,0 2.64181,0.0614 3.80913,0.12288 0.67581,0.0614 1.41306,0.0614 2.08888,0.0614 1.10588,0 0.55294,-1.96601 -1.78169,-2.45751 v -18.6156 h 12.77902 l 13.27053,18.98423 c -1.53594,0.73725 -1.65881,2.08888 -0.73725,2.08888 0.67581,0 1.35163,0 2.02744,-0.0614 1.16732,-0.0614 2.51894,-0.12288 3.68626,-0.12288 1.16731,0 2.88757,0.0614 4.42351,0.12288 0.92156,0.0614 1.84313,0.0614 2.76469,0.0614 1.04444,0 0.61438,-1.96601 -3.07188,-2.82613 z M 515.06062,81.843291 V 68.327013 h 16.34241 c 5.89801,0 10.99733,1.597378 10.99733,6.696702 0,5.652262 -5.59082,6.819576 -11.30452,6.819576 z"
       style="stroke-width:1.53594065"
       id="path855"
       inkscape:connector-curvature="0" />
    <path
       d="m 559.8688,106.97128 c -2.33463,0.4915 -2.70325,2.45751 -1.72025,2.45751 0.67581,0 1.35163,0 2.02744,-0.0614 1.16732,-0.0614 2.51894,-0.12288 3.68626,-0.12288 1.16731,0 2.64182,0.0614 3.80913,0.12288 0.67582,0.0614 1.41307,0.0614 2.08888,0.0614 1.10588,0 0.55294,-1.96601 -1.78169,-2.45751 v -18.6156 h 15.54372 c 9.15421,0 18.6156,-3.133319 18.6156,-13.516278 0,-8.847019 -7.43395,-12.840465 -16.15809,-12.840465 h -27.83125 c -1.04444,0 -0.55294,1.966004 1.72025,2.457505 z m 8.10977,-25.127989 V 68.327013 h 14.74503 c 5.95945,0 11.05877,1.597378 11.05877,6.696702 0,5.652262 -5.7137,6.819576 -11.36596,6.819576 z"
       style="stroke-width:1.53594065"
       id="path857"
       inkscape:connector-curvature="0" />
  </g>
  <path
     style="font-style:normal;font-variant:normal;font-weight:normal;font-stretch:normal;font-size:medium;line-height:1.25;font-family:OPTIAmericanGothic;-inkscape-font-specification:OPTIAmericanGothic;font-variant-ligatures:normal;font-variant-caps:normal;font-variant-numeric:normal;font-feature-settings:normal;text-align:start;letter-spacing:0px;word-spacing:0px;writing-mode:lr-tb;text-anchor:start;fill:#ffffff;fill-opacity:1;stroke:none;stroke-width:0.82360488"
     d="m -208.57005,137.1509 c -0.30452,3e-4 -0.7681,0.29705 -1.00341,0.95507 -2.10762,0.0133 -6.38897,0.36232 -9.78369,1.96875 -4.19876,1.98691 -9.34311,6.82783 -6.90528,11.97949 4.34017,9.17174 18.98075,-4.09924 21.74268,1.73731 1.21185,2.56094 -1.77312,5.65063 -4.63184,7.00342 -3.69252,1.74733 -7.14743,2.07052 -9.43213,2.09473 -0.34271,-1.18635 -1.28375,-1.32561 -1.29492,-0.81006 -0.005,0.22092 0.0346,0.45825 0.0439,0.70898 l 0.0527,1.65088 c 0.0311,0.60487 -0.001,1.38639 0,2.00537 l -0.0366,1.07373 c -0.055,0.49984 0.97974,0.3016 1.22461,-0.79834 1.6846,-0.21403 5.23701,-0.25455 10.38867,-2.69239 6.19389,-2.93101 9.90365,-7.49331 7.56446,-12.43652 -4.31199,-9.11217 -19.27737,3.47345 -21.68702,-1.61865 -0.95821,-2.02492 0.8714,-4.85903 4.32569,-6.49365 2.38225,-1.12731 5.45859,-1.63555 8.12402,-1.54834 0.24088,1.1252 1.19134,1.51496 1.2041,0.92578 l 0.0147,-0.73681 0.0952,-1.64942 c 0.0268,-0.55941 0.0723,-1.30946 0.17432,-1.94092 l 0.1128,-1.07373 c 0.0153,-0.19861 -0.11026,-0.30487 -0.29298,-0.30468 z m -23.92089,9.33105 c -0.23952,-0.0404 -0.57064,0.34317 -0.61671,0.93897 l -21.94775,10.38427 c -0.50622,0.23955 0.18294,1.08002 1.39746,0.79688 l 9.75147,20.60742 c -1.01885,0.7737 -0.77576,1.82451 -0.26953,1.58496 l 22.125,-10.46924 c 0.65325,0.45624 1.36468,0.26412 1.12353,-0.16846 l -0.35595,-0.59619 c -0.21293,-0.37304 -0.49545,-0.89466 -0.76319,-1.46045 -0.26774,-0.56578 -0.46424,-1.05676 -0.60352,-1.42822 l -0.22119,-0.62403 c -0.21138,-0.44667 -1.06448,0.13947 -0.79541,1.32423 l -17.18261,8.12988 -3.67822,-7.771 15.81299,-7.48242 c 0.7737,1.01885 1.85324,0.83484 1.5996,0.29883 l -0.42627,-0.74561 c -0.24111,-0.4326 -0.53646,-1.05726 -0.8042,-1.62304 -0.26773,-0.56579 -0.53614,-1.13155 -0.71777,-1.59229 l -0.30615,-0.80273 c -0.21138,-0.44669 -1.09412,0.15314 -0.79688,1.39746 l -15.81152,7.48242 -2.86084,-6.04541 17.00244,-8.04639 c 0.73143,0.92952 1.69526,0.65615 1.48389,0.20948 l -0.34131,-0.5669 c -0.19884,-0.34326 -0.42367,-0.81995 -0.69141,-1.38574 -0.26774,-0.56579 -0.50719,-1.07244 -0.66064,-1.47363 l -0.25049,-0.68262 c -0.0454,-0.11519 -0.11499,-0.17696 -0.19482,-0.19043 z m -24.7793,12.42334 c -0.0543,-0.007 -0.1161,0.003 -0.1831,0.0351 l -0.98438,0.53907 c -0.55171,0.29748 -1.26526,0.63608 -1.83105,0.90381 -0.5658,0.26774 -1.2219,0.57645 -1.80176,0.81445 l -1.01074,0.40576 c -0.50623,0.23955 0.15315,1.09411 1.39746,0.79687 l 9.75146,20.60596 c -1.01885,0.7737 -0.74598,1.8119 -0.26953,1.58643 0.32756,-0.155 0.65481,-0.31029 0.96826,-0.49512 0.55171,-0.29748 1.19203,-0.63753 1.75781,-0.90527 0.56579,-0.26774 1.2951,-0.57508 1.875,-0.81299 0.34167,-0.12518 0.69929,-0.29471 1.02686,-0.4497 0.53601,-0.25365 -0.18391,-1.07949 -1.42822,-0.78223 L -257.75364,160.54 c 0.89149,-0.67699 0.86357,-1.58744 0.4834,-1.63476 z m -12.49218,6.88623 c -1.5208,0.0265 -3.14722,0.46398 -4.73292,1.21436 l -14.23535,6.73535 c -0.50623,0.23955 0.18293,1.08002 1.39746,0.79687 l 9.75146,20.60596 c -1.01884,0.7737 -0.74596,1.81189 -0.26952,1.58642 0.32757,-0.155 0.65482,-0.31029 0.96826,-0.49512 0.55171,-0.29748 1.19348,-0.63753 1.75928,-0.90527 0.56577,-0.26773 1.29363,-0.57654 1.87353,-0.81445 0.34167,-0.12517 0.69929,-0.29323 1.02686,-0.44824 0.53599,-0.25364 -0.18245,-1.08095 -1.42676,-0.78369 l -4.27002,-9.02198 6.19336,-2.93115 10.78711,6.15821 c -0.57536,0.70962 -0.32509,1.39203 0.12158,1.18066 0.32757,-0.15501 0.65482,-0.31029 0.96826,-0.49512 0.55172,-0.29748 1.19349,-0.63608 1.75928,-0.90381 0.56578,-0.26774 1.41378,-0.63261 2.17236,-0.95508 0.46079,-0.18153 0.90683,-0.3936 1.35352,-0.60498 0.50623,-0.23955 -0.15323,-1.09363 -2.13721,-0.66504 l -10.49414,-6.07763 c 3.25861,-2.12515 5.39398,-5.39546 3.47754,-9.44531 -1.26824,-2.68006 -3.50928,-3.77507 -6.04394,-3.73096 z m -0.76465,3.9419 c 1.21303,0.041 2.21598,0.56009 2.80078,1.79589 1.29642,2.73961 -1.14614,4.58697 -3.91553,5.89746 l -7.77246,3.67823 -3.09961,-6.55079 7.92041,-3.74853 c 1.42936,-0.67639 2.85337,-1.11328 4.06641,-1.07226 z m -20.34083,4.37402 c -0.23952,-0.0404 -0.57063,0.3417 -0.61669,0.9375 l -21.02344,9.94775 c -0.65327,-0.45625 -1.3647,-0.26411 -1.12353,0.16846 0.0986,0.20845 0.21146,0.44576 0.33984,0.64014 0.21293,0.37305 0.48226,0.86536 0.75,1.43115 0.26774,0.56578 0.46278,1.05677 0.60205,1.42822 0.0689,0.22252 0.1674,0.43069 0.25196,0.60938 0.21136,0.44667 1.06503,-0.13849 0.81005,-1.29346 l 8.33789,-3.94629 8.86377,18.73096 c -1.01884,0.7737 -0.74696,1.81098 -0.30029,1.5996 0.32756,-0.15501 0.65482,-0.31029 0.96826,-0.49512 0.55172,-0.29748 1.22278,-0.65071 1.78857,-0.91845 0.56578,-0.26774 1.2951,-0.57654 1.875,-0.81445 0.34167,-0.12518 0.69782,-0.29471 1.02539,-0.44971 0.50623,-0.23956 -0.15267,-1.09357 -1.42675,-0.78223 l -8.86377,-18.73095 8.39794,-3.97412 c 0.73144,0.92951 1.69526,0.65614 1.48389,0.20947 l -0.34131,-0.56689 c -0.19884,-0.34328 -0.42513,-0.81996 -0.69287,-1.38575 -0.26774,-0.56579 -0.50719,-1.07244 -0.66064,-1.47363 l -0.25049,-0.68262 c -0.0454,-0.11518 -0.11499,-0.17549 -0.19483,-0.18896 z m -24.54491,13.60254 c -0.30453,3.1e-4 -0.76664,0.29705 -1.00196,0.95507 -2.10761,0.0133 -6.38895,0.36233 -9.78369,1.96875 -4.19874,1.9869 -9.34457,6.82637 -6.90673,11.97803 4.34016,9.17173 18.9822,-4.09779 21.74413,1.73877 1.21187,2.56093 -1.77311,5.65063 -4.63183,7.00342 -3.69252,1.74733 -7.14891,2.06907 -9.43359,2.09326 -0.34272,-1.18634 -1.28229,-1.32413 -1.29346,-0.80859 -0.005,0.22092 0.0346,0.45826 0.0439,0.70898 l 0.0527,1.65088 c 0.0311,0.60487 -0.001,1.38493 0,2.00391 l -0.0381,1.07519 c -0.055,0.49985 0.98119,0.3016 1.22608,-0.79834 1.68459,-0.21402 5.23701,-0.25456 10.38867,-2.69239 6.19389,-2.93103 9.90364,-7.49331 7.56445,-12.43652 -4.31199,-9.11217 -19.27736,3.47345 -21.68701,-1.61865 -0.95822,-2.02492 0.87139,-4.85904 4.32568,-6.49365 2.38227,-1.12732 5.45861,-1.63555 8.12402,-1.54834 0.2409,1.1252 1.18988,1.5135 1.20264,0.92432 l 0.0161,-0.73535 0.0952,-1.64942 c 0.0269,-0.55941 0.0722,-1.30946 0.17432,-1.94091 l 0.11132,-1.07373 c 0.0153,-0.19861 -0.11025,-0.30488 -0.29296,-0.30469 z m -23.45801,9.80859 c -0.053,-0.007 -0.11104,0.002 -0.17432,0.0322 l -0.98438,0.53907 c -0.55171,0.29747 -1.26672,0.63606 -1.83252,0.90381 -0.56578,0.26772 -1.22043,0.57792 -1.80029,0.81591 l -1.01221,0.4043 c -0.50622,0.23955 0.15315,1.09413 1.39747,0.79687 l 5.70703,12.06006 c 1.04277,2.20359 2.46948,4.37144 0.31054,7.43409 -1.61175,2.29346 -6.94311,4.89058 -9.8247,4.57764 -3.4269,-0.31003 -4.18092,-2.21345 -5.33643,-4.65528 l -5.83447,-12.32813 c 1.01885,-0.77371 0.8363,-1.85326 0.30029,-1.59961 l -0.98437,0.53907 c -0.55171,0.29748 -1.26673,0.63461 -1.83252,0.90234 -0.56579,0.26774 -1.22043,0.57792 -1.8003,0.81592 l -1.01073,0.40576 c -0.50624,0.23955 0.15315,1.09411 1.39746,0.79687 l 5.8623,12.38819 c 1.26823,2.68006 2.93245,6.11992 7.43115,6.61523 3.83582,0.48098 12.91491,-3.67006 15.57715,-7.51757 2.53993,-3.64385 1.54955,-6.27413 0.0981,-9.34131 l -6.12891,-12.95362 c 0.91755,-0.68932 0.84582,-1.58027 0.47461,-1.63183 z m -32.79053,16.84131 c -2.1036,0.0834 -4.28939,0.65564 -6.42041,1.66406 l -12.95361,6.1289 c -0.50624,0.23956 0.18292,1.08003 1.39746,0.79688 l 9.75147,20.60595 c -1.01885,0.7737 -0.77576,1.82598 -0.26954,1.58643 l 12.7749,-6.04541 c 6.31301,-2.98738 10.61998,-9.98174 6.98438,-17.66455 -2.4026,-5.0772 -6.63673,-7.25573 -11.26465,-7.07226 z m -0.58594,3.68408 c 3.49521,-0.16083 6.15406,1.67036 7.88819,5.33496 2.9874,6.31301 -0.0813,10.53489 -5.47119,13.08545 l -7.02686,3.32666 -7.96143,-16.8252 7.29493,-3.45264 c 1.92629,-0.91154 3.68763,-1.39613 5.27636,-1.46923 z m -20.98095,5.19727 c -0.053,-0.007 -0.1125,0.002 -0.17578,0.0322 l -0.92432,0.51123 c -0.55171,0.29747 -1.20667,0.60678 -1.77246,0.87451 -0.56579,0.26774 -1.19114,0.56474 -1.77099,0.80273 l -0.98145,0.39112 c -0.47646,0.22546 0.18391,1.07948 1.42822,0.78223 l 7.63769,16.13965 -20.21191,-10.51758 c 0.3826,-0.65485 0.15859,-1.20564 -0.22851,-1.02246 l -1.40186,0.73681 c -0.78995,0.41021 -1.71204,0.84701 -2.27783,1.11475 -0.56579,0.26773 -1.45973,0.69077 -2.27783,1.0415 l -1.48682,0.62989 c -0.50623,0.23956 0.18292,1.08002 1.39746,0.79687 l 9.75,20.60742 c -1.01885,0.7737 -0.74598,1.81044 -0.26953,1.58496 0.29778,-0.14091 0.59622,-0.28098 0.90967,-0.46581 0.55171,-0.29748 1.16272,-0.62436 1.72851,-0.8921 0.5658,-0.26773 1.23504,-0.54724 1.81494,-0.78515 0.34167,-0.12518 0.63924,-0.26687 0.9668,-0.42188 0.50623,-0.23955 -0.15268,-1.09356 -1.42676,-0.78222 l -8.4126,-17.77735 22.2671,11.54883 c -0.39669,0.62508 -0.18936,1.22029 0.19775,1.03711 0.4169,-0.19728 0.83403,-0.39489 1.20703,-0.60791 0.67083,-0.35384 1.4308,-0.75033 1.99658,-1.01806 0.56579,-0.26775 1.26581,-0.5619 1.84571,-0.79981 0.34167,-0.12518 0.69782,-0.2947 1.02539,-0.44971 0.47644,-0.22546 -0.0669,-0.98889 -1.26416,-0.82324 l -9.76465,-20.63672 c 0.91754,-0.68932 0.84582,-1.58028 0.47461,-1.63183 z m -26.66016,12.61669 c -0.0543,-0.007 -0.11463,0.003 -0.18164,0.0352 l -0.98437,0.53906 c -0.55173,0.29747 -1.26673,0.63607 -1.83252,0.90381 -0.5658,0.26773 -1.2219,0.57645 -1.80176,0.81445 l -1.01074,0.40577 c -0.50623,0.23955 0.15315,1.09411 1.39746,0.79687 l 9.75146,20.60742 c -1.01884,0.7737 -0.74599,1.81042 -0.26953,1.58496 0.32756,-0.15501 0.65481,-0.31028 0.96827,-0.49511 0.5517,-0.29748 1.19348,-0.63754 1.75927,-0.90528 0.56579,-0.26774 1.29362,-0.57508 1.87354,-0.81299 0.34168,-0.12518 0.6993,-0.2947 1.02685,-0.4497 0.53602,-0.25365 -0.18245,-1.07948 -1.42676,-0.78223 l -9.75146,-20.60742 c 0.89149,-0.677 0.8621,-1.58744 0.48193,-1.63477 z"
     id="path826"
     inkscape:connector-curvature="0" />
  <rect
     style="opacity:0.95;fill:#ffffff;fill-opacity:0;fill-rule:evenodd;stroke:none;stroke-width:4.82947779;stroke-linecap:square;stroke-linejoin:miter;stroke-miterlimit:4;stroke-dasharray:none;stroke-opacity:1"
     id="rect1631"
     width="594.38702"
     height="435.33002"
     x="77.110619"
     y="77.001633"
     ry="4.4446263"
     inkscape:export-xdpi="36.339958"
     inkscape:export-ydpi="36.339958" />
  <g
     inkscape:groupmode="layer"
     id="layer1"
     inkscape:label="Layer 1">
    <path
       style="opacity:0.95;fill:#000000;fill-opacity:1;fill-rule:evenodd;stroke:none;stroke-width:2.83464551;stroke-linecap:square;stroke-linejoin:bevel;stroke-miterlimit:4;stroke-dasharray:none;stroke-opacity:1"
       d="m 171.44701,122.21536 86.39616,206.75934 43.88466,12.78032 z m 308.65842,25.50016 c -14.7399,6.76811 -20.0123,21.49282 -14.244,34.05527 5.7427,12.50661 20.3466,18.10465 35.0865,11.33654 8.0959,-3.71736 13.3001,-9.75656 15.455,-16.69521 2.1996,0.81532 3.4609,-0.71032 2.681,-1.23107 l -1.7324,-0.82768 c -0.9987,-0.55552 -2.2162,-1.14543 -3.2406,-1.75675 -0.9987,-0.55549 -2.0696,-1.41577 -3.0683,-1.97126 -0.5658,-0.34864 -1.1318,-0.69813 -1.6417,-1.07243 -0.9686,-0.63696 -1.4484,1.41001 0.226,3.14256 -0.7498,6.0231 -4.8384,11.54964 -11.3709,14.54916 -10.3291,4.74278 -20.7969,0.49084 -25.0783,-8.83329 -4.3069,-9.37996 -0.7094,-20.09039 9.6197,-24.83317 6.1975,-2.84569 12.3727,-2.50341 17.2802,0.38115 0.2228,2.39909 2.0876,3.36786 2.2356,2.21821 0.048,-0.63069 0.1781,-1.23187 0.2822,-1.88816 0.2297,-1.1195 0.2752,-2.49246 0.4791,-3.66777 0.2296,-1.11951 0.464,-2.37602 0.7494,-3.52115 l 0.5309,-1.93304 c 0.032,-0.96117 -1.9202,-0.94359 -2.7356,1.25614 -6.4361,-2.38555 -13.8646,-2.22033 -21.5138,1.29195 z m 20.8425,45.39181 -125.1423,57.4615 -32.2114,79.88807 c 1.5345,-0.48563 3.526,-1.11145 6.0111,-1.89129 5.3225,-1.67031 12.4134,-3.88986 19.504,-6.10421 13.982,-4.36658 27.5698,-8.59678 27.9591,-8.71799 l 0.3954,-0.12514 1.6252,0.60456 57.1,91.75366 99.5871,-49.10747 0.9325,-0.11387 9.2017,2.02415 104.5025,-239.29412 -2.6862,-2.95748 -116.7249,53.59652 z m 50.0537,-22.98314 c 14.6841,-6.74248 20.0123,-21.49274 14.2697,-33.99935 -5.7683,-12.56245 -20.4281,-18.13493 -35.1122,-11.39245 -14.7399,6.76811 -20.0122,21.49282 -14.2439,34.05526 5.7426,12.50662 20.3465,18.10466 35.0864,11.33654 z m -194.9721,36.11863 c -0.9492,0.43584 0.3183,2.01613 2.5893,1.51421 l 17.741,38.63721 c -1.9165,1.42085 -1.4324,3.36087 -0.5391,2.9507 0.5583,-0.25638 1.1178,-0.51337 1.7063,-0.85118 1.0353,-0.54299 2.1818,-1.13563 3.2426,-1.62272 1.0609,-0.48709 2.315,-0.99676 3.4014,-1.42803 0.6398,-0.22617 1.198,-0.48238 1.8122,-0.76439 0.9492,-0.43587 -0.2626,-2.04173 -2.6452,-1.48854 l -15.3052,-33.33232 41.2747,22.01559 c -0.7531,1.15709 -0.377,2.26859 0.3487,1.93535 0.7816,-0.3589 1.5637,-0.7181 2.264,-1.10727 1.2586,-0.64549 2.6851,-1.36669 3.7459,-1.85378 1.0608,-0.4871 2.3696,-1.02184 3.456,-1.4531 0.6397,-0.22611 1.3098,-0.53371 1.924,-0.81575 0.8933,-0.41017 -0.1038,-1.8441 -2.3399,-1.56101 l -17.7667,-38.69312 c 1.9723,-1.44646 1.5442,-3.41219 0.595,-2.97633 l -1.7358,0.93079 c -1.0352,0.54293 -2.2642,1.10734 -3.325,1.59443 -1.0608,0.4871 -2.2326,1.02506 -3.319,1.45633 l -1.8386,0.71043 c -0.8933,0.41017 0.3183,2.01613 2.6452,1.48854 l 13.8956,30.26254 -37.465,-20.04791 c 0.7276,-1.21292 0.3225,-2.24352 -0.4032,-1.91028 l -2.629,1.34093 c -1.4819,0.74805 -3.2134,1.54317 -4.2742,2.03026 -1.0608,0.4871 -2.7351,1.25581 -4.2682,1.89216 z m 49.9446,-22.93302 c -0.9492,0.43586 0.2625,2.04176 2.5892,1.51423 l 10.6652,23.22706 c 2.3073,5.02498 5.3366,11.47665 13.7154,12.49689 7.1426,0.97943 24.1621,-6.56536 29.2094,-13.68285 4.8147,-6.7403 3.0269,-11.66567 0.3863,-17.41648 l -11.1524,-24.28804 c 1.9723,-1.44642 1.5428,-3.41153 0.5937,-2.97573 l -1.8476,0.98215 c -1.0352,0.54293 -2.3746,1.15807 -3.4354,1.64516 -1.0611,0.48719 -2.2899,1.05135 -3.3764,1.48261 l -1.8931,0.73548 c -0.9492,0.43586 0.2611,2.04238 2.5879,1.51486 l 10.3833,22.61336 c 1.8972,4.13165 4.5115,8.20307 0.4198,13.86772 -3.055,4.24216 -13.0541,8.96848 -18.4208,8.32287 -6.3837,-0.65184 -7.7496,-4.21541 -9.8518,-8.79372 l -10.6138,-23.11524 c 1.9165,-1.42085 1.5986,-3.43716 0.5936,-2.97573 l -1.8476,0.98215 c -1.0351,0.54293 -2.3746,1.15807 -3.4354,1.64516 -1.0609,0.48713 -2.2899,1.05135 -3.3764,1.48261 z m 153.432,-70.45124 c -0.9491,0.4358 0.3183,2.01613 2.5892,1.51424 l 17.741,38.63721 c -1.9165,1.42086 -1.4324,3.36087 -0.5391,2.95067 0.6143,-0.28204 1.2283,-0.56407 1.8167,-0.90188 1.0352,-0.54293 2.2391,-1.16192 3.3,-1.64901 1.061,-0.48719 2.4253,-1.04746 3.5119,-1.47879 0.6397,-0.22611 1.3097,-0.53368 1.924,-0.81572 1.0049,-0.46143 -0.3171,-2.01669 -2.6439,-1.48917 l -7.7684,-16.91842 11.6136,-5.33259 19.9813,11.7152 c -1.0882,1.31092 -0.6355,2.59037 0.202,2.2058 0.6142,-0.28201 1.2283,-0.56406 1.8168,-0.90191 1.0352,-0.54292 2.2377,-1.16129 3.2986,-1.64838 1.0608,-0.48709 2.6495,-1.1504 4.071,-1.73551 0.863,-0.32867 1.7015,-0.71357 2.539,-1.09814 0.9491,-0.4358 -0.2632,-2.04201 -3.972,-1.28549 l -19.4359,-11.55947 c 6.1222,-3.89282 10.1713,-9.94438 6.6847,-17.53768 -3.6917,-8.039969 -12.114,-8.565819 -20.0423,-4.92538 z m 48.0915,-22.082139 c -0.9493,0.43586 0.3171,2.01669 2.5879,1.51483 l 17.741,38.637209 c -1.9165,1.42085 -1.4312,3.3603 -0.5378,2.95007 0.6141,-0.28194 1.2283,-0.56406 1.8168,-0.90187 1.0353,-0.543 2.2391,-1.16192 3.2999,-1.64901 1.0608,-0.4871 2.4255,-1.04753 3.5119,-1.4788 0.6398,-0.22614 1.3097,-0.53367 1.924,-0.81572 1.0049,-0.46143 -0.3184,-2.01609 -2.6452,-1.48857 l -7.7684,-16.91842 14.1256,-6.48601 c 8.3191,-3.81989 15.6109,-10.615739 11.2783,-20.051529 -3.6917,-8.03997 -12.1139,-8.56584 -20.0423,-4.92538 z m -74.6465,39.818639 c 10.2733,-4.71718 20.7436,-0.46628 25.0506,8.91368 4.2813,9.32412 0.6813,20.0356 -9.592,24.75278 -10.3291,4.74278 -20.7995,0.49206 -25.0809,-8.83207 -4.307,-9.37996 -0.7068,-20.09161 9.6223,-24.83439 z m 38.1293,-16.08776 14.8511,-6.81915 c 5.36,-2.46113 10.661,-3.13846 12.7889,1.49568 2.3585,5.13665 -2.2346,8.53096 -7.4271,10.9152 l -14.5728,6.6914 z m 48.0903,-22.081549 13.4,-6.15286 c 5.4157,-2.48676 10.7168,-3.16412 12.8447,1.47002 2.3586,5.13665 -2.3463,8.58229 -7.4829,10.94086 l -13.1218,6.025109 z M 516.38683,196.0603 c 3.4131,-1.56716 7.6973,-1.86805 9.8051,-1.8571 0.3885,-1.04843 1.3515,-1.16352 1.3045,-0.63443 l -0.1248,1.07276 c -0.1094,0.63028 -0.1628,1.37984 -0.1961,1.93892 l -0.1143,1.64663 -0.024,0.73658 c -0.02,0.58897 -0.964,0.18901 -1.1919,-0.93886 -2.6642,-0.11797 -5.7462,0.35442 -8.1413,1.45416 -3.473,1.59473 -5.3358,4.40801 -4.401,6.44385 2.3507,5.11956 17.4598,-7.29151 21.6664,1.8698 2.282,4.96987 -1.4787,9.48793 -7.706,12.34727 -5.1794,2.37826 -8.7324,2.37819 -10.4193,2.57275 -0.2576,1.09706 -1.2963,1.28407 -1.2354,0.78486 l 0.051,-1.07587 c 0.01,-0.61897 0.045,-1.39845 0.021,-2.00368 l -0.033,-1.65154 c -0.01,-0.25082 -0.043,-0.48814 -0.035,-0.70908 0.017,-0.51538 0.9553,-0.36633 1.2843,0.82394 2.2848,0.002 5.7436,-0.28071 9.456,-1.98535 2.8741,-1.3197 5.8943,-4.37459 4.7121,-6.94933 -2.6944,-5.86803 -17.4867,7.2329 -21.7208,-1.98828 -2.3782,-5.17944 2.822,-9.95964 7.0434,-11.898 z m 107.4172,-49.32269 c 3.4129,-1.56709 7.6975,-1.86811 9.8051,-1.85706 0.3886,-1.0485 1.3513,-1.16349 1.3044,-0.63443 l -0.1234,1.07217 c -0.1093,0.63021 -0.1641,1.38042 -0.1974,1.93948 l -0.1144,1.64665 -0.024,0.73659 c -0.019,0.58897 -0.964,0.18904 -1.1919,-0.93886 -2.6642,-0.11797 -5.7461,0.35438 -8.1412,1.45416 -3.4729,1.59464 -5.3359,4.40801 -4.4011,6.44385 2.3508,5.11955 17.4612,-7.29214 21.6678,1.86918 2.282,4.96986 -1.4801,9.48855 -7.7073,12.34789 -5.1795,2.37826 -8.7324,2.37815 -10.4194,2.57275 -0.2575,1.09703 -1.2947,1.28338 -1.2341,0.78427 l 0.05,-1.07528 c 0.01,-0.61898 0.047,-1.39908 0.023,-2.00431 l -0.034,-1.65094 c -0.01,-0.25082 -0.043,-0.48811 -0.035,-0.70905 0.017,-0.51539 0.9565,-0.36693 1.2855,0.82334 2.2849,0.002 5.7437,-0.28077 9.456,-1.98535 2.8743,-1.31976 5.8945,-4.37462 4.7122,-6.94936 -2.6944,-5.86803 -17.488,7.2335 -21.7221,-1.98769 -2.3782,-5.17943 2.8219,-9.95961 7.0434,-11.898 z m -94.7063,43.6313 c 0.2084,-0.11904 0.6389,-0.0809 1.0438,0.20902 l 21.1371,-9.70551 c 0.07,-0.79365 0.6447,-1.20246 0.8209,-0.73961 l 0.2426,0.68649 c 0.1487,0.40298 0.3817,0.91225 0.6429,1.48109 0.2612,0.56884 0.4818,1.04755 0.6768,1.39301 l 0.335,0.57151 c 0.2062,0.44909 -0.7617,0.71105 -1.4823,-0.22686 l -8.4425,3.87656 8.6474,18.83271 c 1.2775,-0.29658 1.9263,0.56455 1.4174,0.79824 -0.3293,0.15123 -0.6887,0.31702 -1.0318,0.43829 -0.5826,0.23128 -1.3145,0.53102 -1.8833,0.79219 -0.5687,0.26117 -1.2436,0.60737 -1.7989,0.89856 -0.3156,0.18114 -0.645,0.33166 -0.9743,0.48285 -0.4491,0.20621 -0.7092,-0.83344 0.3184,-1.59529 l -8.6474,-18.83272 -8.3826,3.84906 c 0.2415,1.15786 -0.6172,1.73463 -0.8234,1.28555 -0.083,-0.17963 -0.1795,-0.38917 -0.2457,-0.61251 -0.135,-0.37304 -0.3236,-0.86642 -0.5848,-1.43526 -0.2612,-0.56884 -0.5262,-1.0634 -0.7349,-1.43883 -0.1262,-0.19581 -0.2357,-0.43593 -0.3319,-0.6455 -0.088,-0.1634 -0.043,-0.2916 0.082,-0.36304 z m 81.3733,-37.36411 c 0.1302,-0.0457 0.2527,0.006 0.3192,0.17906 l 0.2426,0.68649 c 0.1487,0.40298 0.3817,0.91225 0.6429,1.48109 0.2612,0.56883 0.4817,1.04754 0.6767,1.39301 l 0.3351,0.57151 c 0.2062,0.44908 -0.7615,0.71096 -1.4823,-0.22687 l -17.0942,7.84912 2.791,6.07833 15.8974,-7.29958 c -0.283,-1.24762 0.6055,-1.83728 0.8117,-1.3882 l 0.2976,0.8063 c 0.1762,0.46286 0.4381,1.03143 0.6993,1.60027 0.2612,0.56883 0.5492,1.19795 0.7854,1.63326 l 0.4176,0.75122 c 0.2474,0.5389 -0.8341,0.70797 -1.596,-0.31975 l -15.8973,7.29958 3.588,7.81424 17.2739,-7.93161 c -0.2554,-1.18778 0.6036,-1.76393 0.8098,-1.31484 l 0.2151,0.62659 c 0.135,0.37304 0.325,0.86579 0.5862,1.43463 0.2611,0.56884 0.5389,1.09465 0.7476,1.47009 l 0.3485,0.60079 c 0.2362,0.43531 -0.4773,0.61774 -1.1253,0.15402 l -22.2446,10.21404 c -0.509,0.23372 -0.7385,-0.81999 0.2892,-1.58186 l -9.513,-20.71772 c -1.2177,0.26911 -1.8978,-0.57928 -1.3888,-0.813 l 22.0649,-10.13151 c 0.044,-0.49607 0.2845,-0.84228 0.5018,-0.9187 z m -194.1298,89.82673 1.0152,-0.39364 c 0.5826,-0.23122 1.2405,-0.5341 1.8093,-0.7953 0.5688,-0.26117 1.2872,-0.59026 1.8422,-0.88136 l 0.991,-0.52753 c 0.5389,-0.24749 0.7097,0.83477 -0.3179,1.59665 l 9.5129,20.71772 c 1.2476,-0.28285 1.9565,0.55071 1.4175,0.7982 -0.3292,0.15116 -0.6887,0.31706 -1.0318,0.43832 -0.5826,0.23125 -1.3144,0.53099 -1.8832,0.79216 -0.5689,0.2612 -1.2133,0.59342 -1.7684,0.8845 -0.3156,0.18115 -0.6449,0.33163 -0.9742,0.48286 -0.4791,0.21995 -0.7399,-0.81936 0.2878,-1.58124 l -9.513,-20.71772 c -1.2476,0.28286 -1.8964,-0.5799 -1.3874,-0.81362 z m 8.0685,-3.70481 1.4945,-0.61368 c 0.822,-0.3412 1.721,-0.75478 2.2898,-1.01598 0.5689,-0.26119 1.4963,-0.68624 2.2909,-1.08734 l 1.4102,-0.72007 c 0.3892,-0.17873 0.6059,0.374 0.2157,1.02444 l 20.0894,10.75004 -7.4506,-16.22619 c -1.2476,0.28288 -1.897,-0.57962 -1.418,-0.79957 l 0.986,-0.38021 c 0.5826,-0.23126 1.2097,-0.52 1.7786,-0.78122 0.5688,-0.26117 1.2286,-0.56338 1.7837,-0.85448 l 0.931,-0.50002 c 0.509,-0.23372 0.7384,0.82163 -0.3192,1.59724 l 9.5264,20.74701 c 1.1991,-0.15181 1.734,0.61744 1.2549,0.83739 -0.3293,0.15123 -0.6887,0.31706 -1.0318,0.43832 -0.5828,0.23134 -1.2838,0.51694 -1.8526,0.77811 -0.5689,0.26123 -1.3346,0.64909 -2.0093,0.99514 -0.3756,0.20868 -0.7949,0.40048 -1.2139,0.59289 -0.3893,0.17876 -0.5904,-0.41741 -0.1864,-1.0379 l -22.1328,-11.80567 8.2073,17.87424 c 1.2776,-0.29665 1.9264,0.56452 1.4174,0.79824 -0.3293,0.15122 -0.6275,0.28891 -0.9706,0.41018 -0.5825,0.23125 -1.2559,0.50414 -1.8246,0.76528 -0.569,0.26126 -1.1826,0.5793 -1.7377,0.87042 -0.3156,0.18114 -0.6164,0.31851 -0.9157,0.45597 -0.4791,0.21995 -0.7386,-0.81996 0.2891,-1.58187 l -9.5129,-20.71771 c -1.2177,0.26911 -1.8978,-0.57928 -1.3888,-0.813 z m 26.7814,-12.29721 13.0233,-5.97988 c 6.8559,-3.14805 14.2125,-1.81361 17.6218,5.61125 3.5467,7.72425 -0.8421,14.66955 -7.189,17.58385 l -12.8435,5.89736 c -0.509,0.23372 -0.7385,-0.81998 0.2891,-1.58183 l -9.513,-20.71772 c -1.2176,0.26911 -1.8977,-0.57931 -1.3887,-0.81303 z m 27.6001,-12.6731 1.0152,-0.39364 c 0.5825,-0.2312 1.2418,-0.53473 1.8106,-0.7959 0.5689,-0.26123 1.2871,-0.59022 1.8423,-0.88139 l 0.9909,-0.5275 c 0.5389,-0.24746 0.7085,0.83534 -0.3192,1.59725 l 5.6908,12.39362 c 1.1272,2.45499 1.8612,4.3663 5.2843,4.71584 2.8778,0.34617 8.2391,-2.18805 9.8772,-4.46277 2.1941,-3.03747 0.7923,-5.22159 -0.225,-7.43708 l -5.5673,-12.12472 c -1.2475,0.28282 -1.8976,-0.57937 -1.3887,-0.81303 l 1.0152,-0.39364 c 0.5826,-0.23122 1.2418,-0.53473 1.8106,-0.7959 0.5689,-0.26123 1.2871,-0.59022 1.8423,-0.88139 l 0.9909,-0.5275 c 0.5089,-0.23369 0.7397,0.82101 -0.3178,1.59662 l 5.9799,13.02329 c 1.4159,3.08371 2.3745,5.72501 -0.2073,9.33932 -2.7064,3.81654 -11.8326,7.86208 -15.6626,7.33687 -4.4929,-0.54711 -6.118,-4.00732 -7.3552,-6.70183 l -5.7183,-12.45353 c -1.2477,0.28289 -1.8978,-0.57927 -1.3888,-0.81299 z m 75.2563,-34.5554 14.3119,-6.57157 c 4.2512,-1.95203 8.7661,-1.66944 10.7457,2.64176 1.8696,4.0717 -0.3008,7.31611 -3.5836,9.4035 l 10.4224,6.19935 c 1.9887,-0.40564 2.6373,0.45571 2.1283,0.68943 -0.449,0.20618 -0.8979,0.41307 -1.3607,0.58929 -0.7623,0.3138 -1.614,0.66854 -2.1827,0.9297 -0.5689,0.26123 -1.2132,0.59339 -1.7684,0.88451 -0.3156,0.18114 -0.6449,0.33163 -0.9742,0.48285 -0.4491,0.20618 -0.693,-0.47988 -0.1096,-1.18281 l -10.7133,-6.28177 -6.2274,2.85943 4.1657,9.07224 c 1.2477,-0.28288 1.9563,0.55084 1.4175,0.79824 -0.3294,0.15122 -0.6888,0.31705 -1.0318,0.43829 -0.5826,0.23128 -1.3145,0.53102 -1.8833,0.79219 -0.5689,0.26123 -1.2133,0.59345 -1.7683,0.8845 -0.3156,0.18115 -0.6463,0.33223 -0.9756,0.48345 -0.479,0.21995 -0.7386,-0.81992 0.2891,-1.58183 l -9.5129,-20.71772 c -1.2177,0.26912 -1.8977,-0.57934 -1.3888,-0.81303 z m 25.7883,-11.84119 1.0153,-0.39364 c 0.5825,-0.23122 1.2404,-0.5341 1.8092,-0.7953 0.5689,-0.2612 1.2885,-0.59082 1.8436,-0.88198 l 0.9896,-0.52691 c 0.5388,-0.24743 0.7098,0.83474 -0.3179,1.59665 l 9.513,20.71772 c 1.2476,-0.28288 1.9563,0.55078 1.4175,0.79821 -0.3294,0.15122 -0.6875,0.31642 -1.0305,0.43769 -0.5827,0.23131 -1.3157,0.53159 -1.8846,0.79278 -0.5688,0.2612 -1.2133,0.59342 -1.7683,0.88451 -0.3156,0.18114 -0.645,0.33163 -0.9743,0.48285 -0.479,0.21995 -0.7399,-0.81933 0.2878,-1.58124 l -9.5129,-20.71772 c -1.2477,0.28289 -1.8964,-0.57993 -1.3875,-0.81362 z m -339.68518,159.01623 -161.95522,76.85522 3.32657,4.61544 325.68253,72.65814 31.1121,-11.31179 -134.2554,-124.20599 -35.1304,-10.23157 z m 217.24708,-99.06331 7.7672,16.91576 7.0649,-3.24394 c 5.4188,-2.48817 8.536,-6.67441 5.6216,-13.02146 -2.4607,-5.35907 -6.9213,-6.864 -13.1186,-4.01839 z m 102.8565,-47.22853 3.0245,6.58685 7.8142,-3.58804 c 2.7844,-1.27851 5.2476,-3.09769 3.9829,-5.85207 -1.141,-2.48494 -3.9842,-2.12293 -6.8583,-0.80323 z m -252.7166,164.25599 130.7476,120.96168 -12.121,-43.63397 -29.2511,-105.30667 z m 94.3528,-20.64951 6.024,21.68467 20.5235,73.88649 25.1962,-12.42522 z m 149.1637,38.26697 -94.7633,46.72973 -27.0799,13.35304 13.142,47.31092 6e-4,10e-4 v 0.76947 l -9.9235,34.5199 z m 4.7977,-1.33577 -124.156,149.33259 4.2138,1.97717 123.7744,-139.57628 z m 4.9159,-0.47126 63.4243,64.38461 -37.8198,-58.74752 z m -1.1481,2.87411 2.6,7.96167 40.687,35.9816 -37.1591,-37.724 z m -150.0245,119.62876 19.0197,24.98255 10.2407,-35.62301 z"
       id="shape0-5-3"
       inkscape:connector-curvature="0"
       inkscape:transform-center-x="1.501491"
       inkscape:transform-center-y="44.097807"
       inkscape:export-xdpi="36.473091"
       inkscape:export-ydpi="36.473091" />
  </g>
</svg>
