<?xml version="1.0" encoding="UTF-8" standalone="no"?>
<!-- Created with Inkscape (http://www.inkscape.org/) -->

<svg
   xmlns:dc="http://purl.org/dc/elements/1.1/"
   xmlns:cc="http://creativecommons.org/ns#"
   xmlns:rdf="http://www.w3.org/1999/02/22-rdf-syntax-ns#"
   xmlns:svg="http://www.w3.org/2000/svg"
   xmlns="http://www.w3.org/2000/svg"
   xmlns:sodipodi="http://sodipodi.sourceforge.net/DTD/sodipodi-0.dtd"
   xmlns:inkscape="http://www.inkscape.org/namespaces/inkscape"
   id="svg8"
   version="1.1"
   viewBox="0 0 210 297"
   height="297mm"
   width="210mm"
   sodipodi:docname="chinese goi.svg"
   inkscape:version="0.92.3 (2405546, 2018-03-11)">
  <sodipodi:namedview
     inkscape:window-maximized="1"
     inkscape:window-y="-8"
     inkscape:window-x="-8"
     inkscape:window-height="1057"
     inkscape:window-width="1858"
     showgrid="false"
     inkscape:current-layer="layer2"
     inkscape:document-units="mm"
     inkscape:cy="577.30309"
     inkscape:cx="241.35553"
     inkscape:zoom="8"
     inkscape:pageshadow="2"
     inkscape:pageopacity="0.0"
     borderopacity="1.0"
     bordercolor="#666666"
     pagecolor="#ffffff"
     id="base"
     inkscape:snap-bbox="true"
     inkscape:bbox-paths="true"
     inkscape:bbox-nodes="true"
     inkscape:snap-bbox-edge-midpoints="true"
     inkscape:snap-bbox-midpoints="true"
     inkscape:object-paths="true"
     inkscape:snap-intersection-paths="true"
     inkscape:snap-smooth-nodes="true"
     inkscape:snap-midpoints="true"
     inkscape:snap-object-midpoints="true"
     inkscape:snap-center="true"
     inkscape:measure-start="200.494,576.77"
     inkscape:measure-end="200.494,593.593"
     showguides="false" />
  <defs
     id="defs2">
    <inkscape:path-effect
       effect="bspline"
       id="path-effect861"
       is_visible="true"
       weight="33.333333"
       steps="2"
       helper_size="0"
       apply_no_weight="true"
       apply_with_weight="true"
       only_selected="false" />
    <inkscape:path-effect
       effect="bspline"
       id="path-effect857"
       is_visible="true"
       weight="33.333333"
       steps="2"
       helper_size="0"
       apply_no_weight="true"
       apply_with_weight="true"
       only_selected="false" />
    <inkscape:path-effect
       effect="bspline"
       id="path-effect853"
       is_visible="true"
       weight="33.333333"
       steps="2"
       helper_size="0"
       apply_no_weight="true"
       apply_with_weight="true"
       only_selected="false" />
    <inkscape:path-effect
       effect="bspline"
       id="path-effect835"
       is_visible="true"
       weight="33.333333"
       steps="2"
       helper_size="0"
       apply_no_weight="true"
       apply_with_weight="true"
       only_selected="false" />
    <inkscape:path-effect
       effect="bspline"
       id="path-effect830"
       is_visible="true"
       weight="33.333333"
       steps="2"
       helper_size="0"
       apply_no_weight="true"
       apply_with_weight="true"
       only_selected="false" />
    <inkscape:path-effect
       effect="bspline"
       id="path-effect1517"
       is_visible="true"
       weight="33.333333"
       steps="2"
       helper_size="0"
       apply_no_weight="true"
       apply_with_weight="true"
       only_selected="false" />
  </defs>
  <metadata
     id="metadata5">
    <rdf:RDF>
      <cc:Work
         rdf:about="">
        <dc:format>image/svg+xml</dc:format>
        <dc:type
           rdf:resource="http://purl.org/dc/dcmitype/StillImage" />
        <dc:title />
      </cc:Work>
    </rdf:RDF>
  </metadata>
  <g
     inkscape:groupmode="layer"
     id="layer2"
     inkscape:label="Layer 2">
    <rect
       style="fill:#dc0000;fill-opacity:1;stroke:none;stroke-width:0.11478276;stroke-linecap:round;stroke-linejoin:round;stroke-miterlimit:4;stroke-dasharray:none;stroke-opacity:1"
       id="rect821"
       width="27.646313"
       height="18.457335"
       x="39.224163"
       y="139.94511"
       inkscape:export-filename="C:\Users\Ikeath\Desktop\chinese goi4a.png"
       inkscape:export-xdpi="734.99866"
       inkscape:export-ydpi="734.99866" />
    <path
       style="font-style:normal;font-variant:normal;font-weight:normal;font-stretch:normal;font-size:1.92082965px;line-height:1.25;font-family:sans-serif;-inkscape-font-specification:'sans-serif, Normal';font-variant-ligatures:normal;font-variant-caps:normal;font-variant-numeric:normal;font-feature-settings:normal;text-align:start;letter-spacing:0px;word-spacing:0px;writing-mode:lr-tb;text-anchor:start;fill:#ffff00;fill-opacity:1;stroke:none;stroke-width:0.18149571;stroke-opacity:1"
       d="M 186.25 533.80664 C 186.0184 534.71412 185.666 535.53076 185.19336 536.25391 L 185.19336 534.21875 L 182.79883 534.21875 L 182.79883 538.65625 L 183.30859 538.65625 L 183.30859 534.73633 L 184.68359 534.73633 L 184.68359 538.61328 L 185.19336 538.61328 L 185.19336 536.28906 C 185.39187 536.37414 185.5602 536.46098 185.69727 536.55078 C 185.88632 536.21048 186.06926 535.83503 186.24414 535.42383 L 188.61133 535.42383 C 188.59715 537.25769 188.5741 538.57541 188.54102 539.37891 C 188.51266 539.86573 188.25018 540.11246 187.75391 540.11719 C 187.37106 540.11246 186.95065 540.08324 186.49219 540.03125 C 186.53945 540.22976 186.57711 540.42422 186.60547 540.61328 C 187.06393 540.63219 187.49587 540.64258 187.90234 540.64258 C 188.6444 540.64258 189.03754 540.25983 189.08008 539.49414 C 189.10844 538.73318 189.1357 537.20331 189.16406 534.90625 L 186.45703 534.90625 C 186.57992 534.59903 186.69711 534.27585 186.81055 533.93555 L 186.25 533.80664 z M 200.16797 533.9375 L 200.16797 535.18555 L 199.0625 535.18555 L 199.48633 534.875 C 199.31618 534.5536 199.07984 534.29843 198.77734 534.10938 L 198.32422 534.47656 C 198.56999 534.66562 198.77907 534.90196 198.94922 535.18555 L 197.35938 535.18555 L 197.35938 536.63281 L 197.92773 536.63281 L 197.92773 535.64062 L 202.91797 535.64062 L 202.91797 536.51953 L 203.48633 536.51953 L 203.48633 535.18555 L 201.89844 535.18555 L 202.37891 534.47656 C 202.54906 534.47656 202.56789 534.43047 202.43555 534.33594 L 201.92578 534.02344 L 201.35938 534.90234 L 201.8125 535.18555 L 200.73438 535.18555 L 200.73438 534.10938 C 200.86672 534.01485 200.85828 533.95641 200.70703 533.9375 L 200.16797 533.9375 z M 205.72656 533.9375 L 205.72656 535.38477 L 205.27148 535.38477 L 205.32812 534.8457 C 205.42265 534.78899 205.44148 534.7325 205.38477 534.67578 L 204.81836 534.58984 C 204.81836 535.38389 204.70539 536.11173 204.47852 536.77344 L 205.01758 536.97266 C 205.13101 536.63235 205.20633 536.28304 205.24414 535.92383 L 205.72656 535.92383 L 205.72656 537.6543 L 204.50586 537.99414 L 204.70508 538.61719 C 204.7807 538.69281 204.82875 538.66554 204.84766 538.5332 L 205.72656 538.24805 L 205.72656 540.49023 L 206.29297 540.49023 L 206.29297 538.05078 L 207.17188 537.68164 L 207.03125 537.19922 L 206.29297 537.48242 L 206.29297 535.92383 L 207.08789 535.92383 L 207.08789 535.38477 L 206.29297 535.38477 L 206.29297 534.10938 C 206.42531 534.01485 206.41687 533.95641 206.26562 533.9375 L 205.72656 533.9375 z M 212.98633 533.9375 C 212.74055 535.22309 212.29514 536.30221 211.65234 537.17188 L 212.05078 537.68164 C 212.25875 537.47368 212.42821 537.2289 212.56055 536.94531 L 212.56055 540.49023 L 213.12695 540.49023 L 213.12695 535.89453 C 213.2782 535.81891 213.2782 535.75398 213.12695 535.69727 C 213.29711 535.26243 213.43086 534.79819 213.52539 534.30664 C 213.67664 534.28773 213.7039 534.24164 213.60938 534.16602 L 212.98633 533.9375 z M 215.48047 533.9668 L 215.48047 535.38477 L 213.55273 535.38477 L 213.55273 535.92383 L 215.33984 535.92383 C 214.90501 536.96365 214.22326 537.909 213.29688 538.75977 L 213.72266 539.29883 C 214.44108 538.67494 215.02673 537.86138 215.48047 536.85938 L 215.48047 538.50391 L 214.74414 538.50391 L 214.74414 539.04297 L 215.48047 539.04297 L 215.48047 540.43164 L 216.04883 540.43164 L 216.04883 539.04297 L 216.87109 539.04297 L 216.87109 538.50391 L 216.04883 538.50391 L 216.04883 536.85938 C 216.44585 537.69123 217.05033 538.51322 217.86328 539.32617 L 218.25977 538.75977 C 217.20104 537.77666 216.52124 536.83131 216.21875 535.92383 L 218.08984 535.92383 L 218.08984 535.38477 L 216.04883 535.38477 L 216.04883 534.13672 C 216.18117 534.04219 216.17078 533.9857 216.01953 533.9668 L 215.48047 533.9668 z M 236.41016 533.99609 C 235.76736 535.18716 234.78434 535.9611 233.46094 536.32031 L 233.7168 537.00195 C 234.17054 536.86961 234.65165 536.62288 235.16211 536.26367 L 235.16211 536.83008 L 238.36719 536.83008 L 238.36719 536.23633 C 238.89655 536.53882 239.32118 536.72711 239.64258 536.80273 L 239.92578 536.12109 C 238.60237 535.78079 237.63819 535.15748 237.0332 534.25 C 237.16554 534.15547 237.15711 534.09898 237.00586 534.08008 L 236.41016 533.99609 z M 207.88086 534.02344 C 207.72961 535.08216 207.32381 536.01713 206.66211 536.83008 L 207.14453 537.17188 C 207.46593 536.81266 207.72954 536.37764 207.9375 535.86719 L 208.39258 535.86719 C 208.27914 536.85029 207.74802 537.70994 206.80273 538.44727 L 207.20117 538.92969 C 208.2788 538.04111 208.85406 537.02044 208.92969 535.86719 L 209.38477 535.86719 C 209.25242 537.5498 208.48692 538.91135 207.08789 539.95117 L 207.45508 540.46094 C 209.11879 539.06191 209.94273 537.5309 209.92383 535.86719 L 210.23438 535.86719 L 210.20703 538.81641 C 210.20703 539.4403 210.03562 539.73312 209.69531 539.69531 L 208.98633 539.69531 L 209.10156 540.31836 L 209.92383 540.31836 C 210.491 540.31836 210.77344 539.81841 210.77344 538.81641 L 210.80273 535.32812 L 208.13672 535.32812 C 208.25015 534.95001 208.33586 534.6007 208.39258 534.2793 C 208.52492 534.26039 208.55219 534.21234 208.47656 534.13672 L 207.88086 534.02344 z M 224.1875 534.02344 C 222.93972 534.2314 221.48402 534.33594 219.82031 534.33594 L 219.93359 534.81836 C 220.5953 534.81836 221.25627 534.80797 221.91797 534.78906 L 221.91797 535.27148 L 219.33789 535.27148 L 219.33789 535.81055 L 221.66406 535.81055 C 221.00236 536.35882 220.12193 536.70813 219.02539 536.85938 L 219.22461 537.45508 C 220.34005 537.24711 221.23736 536.81209 221.91797 536.15039 L 221.91797 537.08594 L 222.48633 537.08594 L 222.48633 536.12109 C 223.18584 536.74499 224.06432 537.18001 225.12305 537.42578 L 225.32227 536.85938 C 224.22573 536.6136 223.35569 536.26429 222.71289 535.81055 L 225.0957 535.81055 L 225.0957 535.27148 L 222.48633 535.27148 L 222.48633 534.73242 C 222.97788 534.71352 223.55509 534.66547 224.2168 534.58984 C 224.44367 534.68437 224.51898 534.66554 224.44336 534.5332 L 224.1875 534.02344 z M 179.32422 534.08008 C 179.07844 535.47911 178.64342 536.53744 178.01953 537.25586 L 178.41602 537.625 C 178.54836 537.49266 178.71977 537.25632 178.92773 536.91602 C 179.09789 537.55881 179.33423 538.1172 179.63672 538.58984 C 179.29641 539.04358 178.76725 539.42016 178.04883 539.72266 L 178.35938 540.23438 C 178.98327 539.96969 179.52282 539.57233 179.97656 539.04297 C 180.4303 539.49671 180.94908 539.86485 181.53516 540.14844 L 181.84766 539.58203 C 181.24267 539.31735 180.73233 538.97647 180.31641 538.56055 C 180.71343 537.93666 180.98743 537.15232 181.13867 536.20703 L 181.82031 536.20703 L 181.82031 535.66797 L 179.4668 535.66797 C 179.61804 535.13861 179.73102 534.70359 179.80664 534.36328 C 180.0146 534.28766 180.00421 534.22273 179.77734 534.16602 L 179.32422 534.08008 z M 227.10938 534.11914 L 227.10938 536.32422 L 227.67578 536.32422 L 227.67578 536.0625 L 231.30469 536.0625 L 231.30469 536.32422 L 231.87305 536.32422 L 231.87305 534.11914 L 227.10938 534.11914 z M 177.31055 534.13672 L 177.31055 537.9082 L 176.54492 538.16406 L 176.54492 534.98828 C 176.67726 534.89375 176.66687 534.83727 176.51562 534.81836 L 175.97852 534.81836 L 175.97852 538.33398 L 175.41016 538.50391 L 175.69336 539.07227 C 175.76898 539.22351 175.83586 539.20273 175.89258 539.01367 L 177.31055 538.50391 L 177.31055 540.29102 L 177.87695 540.29102 L 177.87695 534.30664 C 178.00929 534.21211 178.00086 534.15562 177.84961 534.13672 L 177.31055 534.13672 z M 163.75586 534.25 L 163.75586 535.72461 C 163.75586 537.61519 162.8566 538.90986 161.06055 539.60938 L 161.48633 540.23438 C 162.88536 539.59158 163.78267 538.56051 164.17969 537.14258 C 164.72796 538.63614 165.65448 539.6672 166.95898 540.23438 L 167.30078 539.52539 C 165.50473 538.75025 164.54054 537.45558 164.4082 535.64062 L 164.4082 534.47656 C 164.57836 534.36313 164.56796 534.28781 164.37891 534.25 L 163.75586 534.25 z M 169.08594 534.2793 L 169.08594 539.49609 L 168.43359 539.60938 L 168.63281 540.375 C 168.70844 540.45062 168.75648 540.41297 168.77539 540.26172 L 171.78125 539.41211 L 171.69531 538.87305 L 169.6543 539.38281 L 169.6543 537.59766 L 171.49609 537.59766 C 171.77968 538.75091 172.34846 539.58134 173.19922 540.0918 C 173.93655 540.54554 174.38 540.43256 174.53125 539.75195 L 174.64453 539.21289 L 174.02148 538.98633 L 173.96484 539.35547 C 173.92703 539.62015 173.78484 539.68508 173.53906 539.55273 C 172.85845 539.19352 172.37538 538.54295 172.0918 537.59766 L 174.53125 537.59766 L 174.53125 537.05859 L 171.97852 537.05859 C 171.9407 536.7561 171.90305 536.47171 171.86523 536.20703 L 173.19922 536.20703 L 173.19922 536.37695 L 173.76562 536.37695 L 173.76562 534.2793 L 169.08594 534.2793 z M 190.75195 534.30664 L 190.75195 534.8457 L 194.55273 534.8457 L 194.55273 535.44141 L 190.95117 535.44141 L 190.95117 536.94531 C 190.95117 537.26671 191.12063 537.42578 191.46094 537.42578 L 195.26172 537.42578 C 195.56421 537.42578 195.7525 537.31281 195.82812 537.08594 L 196.05664 536.37695 L 195.4043 536.20703 L 195.26172 536.7168 C 195.22391 536.83023 195.12976 536.88867 194.97852 536.88867 L 191.7168 536.88867 C 191.58446 536.88867 191.51758 536.8114 191.51758 536.66016 L 191.51758 535.98047 L 194.55273 535.98047 L 194.55273 536.17969 L 195.11914 536.17969 L 195.11914 534.30664 L 190.75195 534.30664 z M 236.69336 534.58984 C 237.10929 535.30826 237.64884 535.84782 238.31055 536.20703 L 235.24805 536.20703 C 235.79632 535.81001 236.27743 535.27045 236.69336 534.58984 z M 227.67578 534.61523 L 231.30469 534.61523 L 231.30469 535.56641 L 227.67578 535.56641 L 227.67578 534.61523 z M 169.6543 534.81836 L 173.19922 534.81836 L 173.19922 535.66797 L 169.6543 535.66797 L 169.6543 534.81836 z M 183.74023 535.35352 L 183.74023 536.98438 C 183.74023 537.95802 183.65339 538.64626 183.47852 539.05273 C 183.29891 539.52065 182.9319 539.96185 182.37891 540.37305 C 182.52543 540.51484 182.65188 540.65817 182.75586 540.80469 C 183.40338 540.24224 183.81227 539.69116 183.98242 539.15234 C 184.38417 539.59663 184.75231 540.03474 185.08789 540.46484 L 185.53516 540.08789 C 185.17122 539.67669 184.74772 539.22171 184.26562 538.7207 L 184.06055 538.91211 C 184.18816 538.40638 184.25195 537.69428 184.25195 536.77734 L 184.25195 535.35352 L 183.74023 535.35352 z M 186.4707 535.94141 C 186.23911 536.82525 185.99238 537.58037 185.73242 538.20898 C 185.65207 538.38859 185.53066 538.53078 185.36523 538.63477 L 185.58398 539.0957 C 185.79667 539.04371 186.00688 539.00605 186.21484 538.98242 C 186.61187 538.93516 187.0615 538.89441 187.5625 538.86133 C 187.59559 539.00785 187.63016 539.15313 187.66797 539.29492 L 188.20117 539.13867 C 187.99793 538.39189 187.78578 537.67866 187.56836 536.99805 L 187.08008 537.13867 C 187.20769 537.56405 187.32797 537.98446 187.44141 538.40039 C 186.99239 538.43348 186.56776 538.4627 186.16602 538.48633 C 186.44488 537.749 186.72618 536.94275 187.00977 536.06836 L 186.4707 535.94141 z M 198.69336 536.06445 L 198.69336 537.625 L 199.42969 537.625 L 200.16797 537.625 L 200.16797 538.07812 L 197.98438 538.07812 L 197.98438 540.00781 L 198.55078 540.00781 L 198.55078 538.61719 L 200.16797 538.61719 L 200.16797 540.375 L 200.73438 540.375 L 200.73438 538.61719 L 202.46484 538.61719 L 202.46484 539.38281 C 202.46484 539.45844 202.42719 539.49609 202.35156 539.49609 L 201.7832 539.49609 L 201.89844 540.03516 L 202.63477 540.03516 C 202.89945 540.03516 203.03125 539.90335 203.03125 539.63867 L 203.03125 538.07812 L 200.73438 538.07812 L 200.73438 537.625 L 202.15234 537.625 L 202.15234 536.06445 L 198.69336 536.06445 z M 169.6543 536.20703 L 171.26953 536.20703 L 171.38281 537.05859 L 169.6543 537.05859 L 169.6543 536.20703 z M 179.35156 536.20703 L 180.59961 536.20703 C 180.50508 536.92545 180.29796 537.55915 179.97656 538.10742 C 179.65516 537.59697 179.44609 536.96326 179.35156 536.20703 z M 199.25977 536.51953 L 201.58594 536.51953 L 201.58594 537.17188 L 199.25977 537.17188 L 199.25977 536.51953 z M 226.71875 536.72852 L 226.71875 539.35938 L 227.28516 539.35938 L 227.28516 537.22461 L 231.70312 537.22461 L 231.70312 539.31641 L 232.26953 539.31641 L 232.26953 536.72852 L 226.71875 536.72852 z M 221.89062 537.19922 C 221.815 537.35047 221.6832 537.56798 221.49414 537.85156 L 219.31055 537.85156 L 219.31055 538.39062 L 221.18164 538.39062 C 220.91696 538.73093 220.68906 538.99649 220.5 539.18555 L 220.92578 539.46875 C 221.0014 539.41203 221.08711 539.32633 221.18164 539.21289 C 221.52195 539.32633 221.81477 539.41203 222.06055 539.46875 C 221.45556 539.75234 220.59591 539.88414 219.48047 539.86523 L 219.62109 540.49023 C 221.00122 540.43352 222.02189 540.16796 222.68359 539.69531 C 223.30749 539.90328 223.95158 540.17727 224.61328 540.51758 L 224.95312 539.95117 C 224.29142 539.68649 223.68694 539.46898 223.13867 539.29883 C 223.34664 539.12868 223.6018 538.82546 223.9043 538.39062 L 225.12305 538.39062 L 225.12305 537.85156 L 222.06055 537.85156 C 222.13617 537.75703 222.20305 537.66289 222.25977 537.56836 C 222.42992 537.53055 222.45718 537.4825 222.34375 537.42578 L 221.89062 537.19922 z M 229.16406 537.4375 C 229.16879 537.69273 229.16148 537.95212 229.14258 538.2168 C 229.11422 538.73198 228.95628 539.12204 228.66797 539.38672 C 228.23786 539.8121 227.35938 540.12684 226.03125 540.33008 C 226.15886 540.49078 226.26145 540.67063 226.3418 540.86914 C 227.6463 540.66118 228.57283 540.30147 229.12109 539.79102 C 229.25343 539.6634 229.36219 539.5139 229.44727 539.34375 C 230.66669 539.85893 231.7385 540.35661 232.66016 540.83398 L 232.97852 540.30078 C 231.76854 539.73833 230.65373 539.25722 229.63281 538.85547 C 229.67535 538.67586 229.70262 538.48027 229.7168 538.26758 C 229.7357 537.96981 229.74301 537.69273 229.73828 537.4375 L 229.16406 537.4375 z M 233.83008 537.48242 L 233.83008 538.10742 L 235.87109 538.10742 L 235.07812 539.55273 L 233.91406 539.60938 L 234.11328 540.31836 C 234.1889 540.37508 234.27461 540.35625 234.36914 540.26172 L 238.48047 539.80859 C 238.68843 539.99765 238.86828 540.19633 239.01953 540.4043 L 239.61523 540.03516 C 239.27493 539.58142 238.64967 539.01459 237.74219 538.33398 L 237.23242 538.67383 C 237.53491 538.9007 237.80891 539.1286 238.05469 539.35547 L 235.73047 539.52539 L 236.58008 538.10742 L 239.64258 538.10742 L 239.64258 537.48242 L 233.83008 537.48242 z M 191.97266 537.76758 L 191.97266 538.27734 L 190.12891 538.27734 L 190.12891 538.81641 L 191.97266 538.81641 C 191.97266 539.4592 191.44349 539.85657 190.38477 540.00781 L 190.63867 540.54688 C 191.90536 540.32001 192.53906 539.74279 192.53906 538.81641 L 194.01367 538.81641 L 194.01367 540.46094 L 194.58008 540.46094 L 194.58008 538.81641 L 196.2832 538.81641 L 196.2832 538.27734 L 194.58008 538.27734 L 194.58008 537.9375 C 194.71242 537.84297 194.70398 537.78648 194.55273 537.76758 L 194.01367 537.76758 L 194.01367 538.27734 L 192.53906 538.27734 L 192.53906 537.9375 C 192.6714 537.84297 192.66297 537.78648 192.51172 537.76758 L 191.97266 537.76758 z M 221.77734 538.39062 L 223.25195 538.39062 C 223.02508 538.71202 222.79718 538.95875 222.57031 539.12891 C 222.17329 539.01547 221.80515 538.91094 221.46484 538.81641 C 221.57828 538.68407 221.68281 538.54187 221.77734 538.39062 z M 200.49023 543.52734 L 199.29102 546.98633 L 194.7793 560.02148 L 177.35547 560.38477 L 191.24219 570.9375 L 186.19336 587.64453 L 200.49023 577.66797 L 214.78906 587.64453 L 209.75195 570.9375 L 223.625 560.38477 L 206.21484 560.02148 L 200.49023 543.52734 z M 200.49023 551.27344 L 204.39062 562.52734 L 216.27734 562.77734 L 206.80273 569.97266 L 210.24023 581.37695 L 200.49023 574.57227 L 190.74219 581.37695 L 194.17969 569.97266 L 184.7168 562.77734 L 196.5918 562.52734 L 200.49023 551.27344 z M 202.04883 561.79883 L 201.65039 561.88086 L 200.69922 562.07227 L 200.70703 562.36719 C 200.84241 565.52638 201.82019 567.8364 203.67383 569.17383 L 204.00586 569.41016 L 204.75977 567.91016 L 204.5 567.73438 C 203.04434 566.75026 202.2236 564.95068 202.07227 562.20508 L 202.04883 561.79883 z M 198.69141 561.90234 L 198.6543 562.28516 C 198.37151 565.09115 197.6083 566.96982 196.45312 567.96289 L 196.21094 568.16211 L 197.10352 569.46875 L 197.39844 569.22461 C 198.85727 568.02049 199.66004 565.83233 199.97461 562.86914 C 200.03111 562.8389 200.08474 562.86188 200.13867 562.77344 C 200.20345 562.66534 200.20255 562.50754 200.16797 562.41797 C 200.13358 562.32802 200.08372 562.2849 200.04102 562.24219 L 199.96875 562.16797 L 198.69141 561.90234 z M 196.64648 570.22852 L 196.64648 571.66016 L 204.3457 571.66016 L 204.3457 570.22852 L 203.99023 570.22852 L 196.64648 570.22852 z "
       transform="scale(0.26458333)"
       id="text826" />
  </g>
  <g
     id="layer1"
     inkscape:groupmode="layer"
     inkscape:label="Layer 1" />
  <g
     inkscape:groupmode="layer"
     id="layer3"
     inkscape:label="Layer 3">
    <rect
       style="fill:#dc0000;fill-opacity:1;stroke:none;stroke-width:0.11478276;stroke-linecap:round;stroke-linejoin:round;stroke-miterlimit:4;stroke-dasharray:none;stroke-opacity:1"
       id="rect821-5"
       width="27.646317"
       height="18.457335"
       x="66.870476"
       y="139.94511"
       inkscape:export-filename="C:\Users\Ikeath\Desktop\PCAAO-header.png"
       inkscape:export-xdpi="229.68701"
       inkscape:export-ydpi="229.68701" />
    <path
       inkscape:connector-curvature="0"
       style="color:#000000;font-style:normal;font-variant:normal;font-weight:normal;font-stretch:normal;font-size:medium;line-height:normal;font-family:sans-serif;font-variant-ligatures:normal;font-variant-position:normal;font-variant-caps:normal;font-variant-numeric:normal;font-variant-alternates:normal;font-feature-settings:normal;text-indent:0;text-align:start;text-decoration:none;text-decoration-line:none;text-decoration-style:solid;text-decoration-color:#000000;letter-spacing:normal;word-spacing:normal;text-transform:none;writing-mode:lr-tb;direction:ltr;text-orientation:mixed;dominant-baseline:auto;baseline-shift:baseline;text-anchor:start;white-space:normal;shape-padding:0;clip-rule:nonzero;display:inline;overflow:visible;visibility:visible;opacity:1;isolation:auto;mix-blend-mode:normal;color-interpolation:sRGB;color-interpolation-filters:linearRGB;solid-color:#000000;solid-opacity:1;vector-effect:none;fill:#ffff00;fill-opacity:1;fill-rule:nonzero;stroke:none;stroke-width:0.67226374;stroke-linecap:square;stroke-linejoin:miter;stroke-miterlimit:4;stroke-dasharray:none;stroke-dashoffset:0;stroke-opacity:1;color-rendering:auto;image-rendering:auto;shape-rendering:auto;text-rendering:auto;enable-background:accumulate"
       d="m 80.69269,143.80827 -0.317291,0.91519 -1.193726,3.44889 -4.610055,0.0961 3.674195,2.79207 -1.335837,4.42041 3.782714,-2.63963 3.783232,2.63963 -1.332735,-4.42041 3.670577,-2.79207 -4.606438,-0.0961 z m 0,2.04949 1.031978,2.9776 3.145028,0.0661 -2.506824,1.90376 0.909505,3.01739 -2.579687,-1.80041 -2.579169,1.80041 0.909505,-3.01739 -2.503723,-1.90376 3.141927,-0.0661 z m 0.412379,2.78485 -0.10542,0.0217 -0.251664,0.0506 0.0021,0.078 c 0.03582,0.83587 0.294523,1.44706 0.784966,1.80092 l 0.08785,0.0625 0.199472,-0.39688 -0.06873,-0.0465 c -0.385128,-0.26038 -0.602282,-0.73652 -0.642321,-1.46296 z m -0.888317,0.0274 -0.0098,0.10129 c -0.07482,0.74242 -0.276754,1.23948 -0.582396,1.50223 l -0.06408,0.0527 0.236161,0.34572 0.07803,-0.0646 c 0.385982,-0.31859 0.598382,-0.89754 0.681612,-1.68155 0.01495,-0.008 0.02914,-0.002 0.04341,-0.0253 0.01714,-0.0286 0.01691,-0.0704 0.0078,-0.0941 -0.0091,-0.0238 -0.02228,-0.0352 -0.03359,-0.0465 l -0.01913,-0.0196 z m -0.541054,2.20297 v 0.37879 h 2.037085 v -0.37879 h -0.09405 z"
       id="path1599-8"
       inkscape:export-filename="C:\Users\Ikeath\Desktop\PCAAO-header.png"
       inkscape:export-xdpi="207.47995"
       inkscape:export-ydpi="207.47995" />
  </g>
</svg>
