<?xml version="1.0" encoding="UTF-8"?>
<!DOCTYPE svg PUBLIC "-//W3C//DTD SVG 1.1//EN" "http://www.w3.org/Graphics/SVG/1.1/DTD/svg11.dtd">
<!-- Creator: CorelDRAW Home & Student X7 -->
<svg xmlns="http://www.w3.org/2000/svg" xml:space="preserve" width="0.116661in" height="0.116661in" version="1.1" style="shape-rendering:geometricPrecision; text-rendering:geometricPrecision; image-rendering:optimizeQuality; fill-rule:evenodd; clip-rule:evenodd"
viewBox="0 0 117 117"
 xmlns:xlink="http://www.w3.org/1999/xlink"
 xmlns:dc="http://purl.org/dc/elements/1.1/"
 xmlns:cc="http://creativecommons.org/ns#"
 xmlns:rdf="http://www.w3.org/1999/02/22-rdf-syntax-ns#"
 xmlns:svg="http://www.w3.org/2000/svg"
 xmlns:sodipodi="http://sodipodi.sourceforge.net/DTD/sodipodi-0.dtd"
 xmlns:inkscape="http://www.inkscape.org/namespaces/inkscape"
 sodipodi:docname="telekinesis.svg"
 inkscape:version="0.92.3 (2405546, 2018-03-11)">
 <defs>
  <style type="text/css">
   <![CDATA[
    .str0 {stroke:#000066;stroke-width:3}
    .fil5 {fill:none}
    .fil1 {fill:black}
    .fil2 {fill:black}
    .fil3 {fill:black}
    .fil4 {fill:#231F20}
    .fil0 {fill:black;fill-rule:nonzero}
   ]]>
  </style>
 </defs>
 <g id="Layer_x0020_1">
  <metadata id="CorelCorpID_0Corel-Layer"/>
  <sodipodi:namedview id="base" pagecolor="#ffffff" bordercolor="#666666" borderopacity="1.0" inkscape:pageopacity="0.0" inkscape:pageshadow="2" inkscape:zoom="0.49497475" inkscape:cx="454.79234" inkscape:cy="517.01353" inkscape:document-units="mm" inkscape:current-layer="layer1" showgrid="false" showguides="true" inkscape:guide-bbox="true" inkscape:snap-bbox="true" inkscape:bbox-paths="true" inkscape:snap-bbox-edge-midpoints="true" inkscape:bbox-nodes="true" inkscape:snap-bbox-midpoints="true" inkscape:object-paths="true" inkscape:snap-intersection-paths="true" inkscape:snap-smooth-nodes="true" inkscape:snap-midpoints="true" inkscape:window-width="1495" inkscape:window-height="1007" inkscape:window-x="417" inkscape:window-y="0" inkscape:window-maximized="0" inkscape:snap-global="true">
   <sodipodi:guide position="-55.057521,283.03844" orientation="0,1" id="guide4526" inkscape:locked="false"/>
   <sodipodi:guide position="40.726662,247.40093" orientation="0,1" id="guide4528" inkscape:locked="false"/>
   <sodipodi:guide position="35.624256,206.291" orientation="0,1" id="guide4588" inkscape:locked="false"/>
   <sodipodi:guide position="-85.214075,85.20884" orientation="0,1" id="guide978" inkscape:locked="false"/>
   <sodipodi:guide position="39.088169,52.384828" orientation="0,1" id="guide989" inkscape:locked="false"/>
  </sodipodi:namedview>
  <g id="_778408640">
   <g>
    <path class="fil0" d="M208 51c0,0 0,0 0,0 0,11 -6,20 -15,25l-10 -19c0,0 1,0 1,-1 1,-1 2,-3 2,-5l22 0zm-27 3l-2 -3 4 0c0,1 -1,2 -1,3 -1,0 -1,0 -1,0z"/>
    <path class="fil0" d="M165 76c0,0 0,0 0,0 -9,-5 -14,-14 -14,-25l21 0 0 0c0,2 1,4 2,5 1,1 1,1 2,1l-11 19zm11 -25l3 0 -2 3c0,0 0,0 0,0 -1,-1 -1,-2 -1,-3l0 0z"/>
    <path class="fil0" d="M166 27c0,0 0,0 0,0 8,-5 19,-5 28,0l-11 19c-1,-1 -3,-1 -4,-1 -1,0 -2,0 -3,0l-10 -18zm15 21l-2 3 -2 -3c1,0 2,0 2,0 1,0 1,0 2,0z"/>
   </g>
   <path id="path7542-2" class="fil0" d="M184 51c0,-2 -2,-5 -5,-5 -3,0 -5,3 -5,5 0,3 2,6 5,6 3,0 5,-3 5,-6z" inkscape:transform-center-x="-0.16536458" inkscape:transform-center-y="-0.42522322"/>
  </g>
  <path id="path8481-6" class="fil0" d="M251 271c1,-4 4,-7 8,-8l1 9 -9 -1z" sodipodi:end="4.6303494" sodipodi:start="0.5023024" sodipodi:ry="3.3146491" sodipodi:rx="3.3146491" sodipodi:cy="239.19954" sodipodi:cx="96.208435" sodipodi:type="arc"/>
  <polygon id="rect8483-0-7-2" class="fil0" points="245,266 302,208 302,216 279,240 302,222 302,232 " sodipodi:nodetypes="cccc" inkscape:connector-curvature="0"/>
  <polygon id="path8579-7" class="fil1" points="253,268 253,270 250,269 251,267 252,266 " inkscape:connector-curvature="0"/>
  <polygon id="path8579-3-8" class="fil1" points="243,258 241,257 243,255 245,255 245,257 " sodipodi:nodetypes="cccccc" inkscape:transform-center-y="-1.4592854" inkscape:transform-center-x="0.50454769" inkscape:connector-curvature="0"/>
  <polygon id="path8579-3-1-5" class="fil1" points="258,261 257,260 258,258 261,259 259,260 " sodipodi:nodetypes="cccccc" inkscape:transform-center-y="-1.4592854" inkscape:transform-center-x="0.50454769" inkscape:connector-curvature="0"/>
  <polygon id="path8579-3-5-7" class="fil1" points="254,252 253,251 254,249 257,250 256,252 " sodipodi:nodetypes="cccccc" inkscape:transform-center-y="-1.4592854" inkscape:transform-center-x="0.50454769" inkscape:connector-curvature="0"/>
  <g id="_778406744">
   <path class="fil1" d="M346 155c-1,0 -2,0 -2,2 3,2 -1,3 0,6 2,5 10,1 13,4 2,2 1,5 1,7l29 1c0,-1 -4,-7 -4,-9 -3,-10 3,-11 6,-17 1,-3 3,-5 4,-8 2,-11 -4,-23 -16,-26 -14,-4 -29,0 -32,16 -1,0 0,6 1,7 0,1 0,0 -3,4 -2,3 -4,5 -3,6 2,1 5,0 4,4 0,0 -1,0 -1,1 0,1 3,1 3,2zm23 -38c11,0 19,7 19,16 0,8 -8,15 -19,15 -11,0 -20,-7 -20,-15 0,-9 9,-16 20,-16z"/>
   <path class="fil1" d="M367 140l-1 -14 0 -5 4 0 0 5 -1 14 -2 0zm-1 6l0 -4 4 0 0 4 -4 0z"/>
   <path class="fil1" d="M359 138l-1 -10 0 -4 3 0 0 4 0 10 -2 0zm0 5l0 -3 2 0 0 3 -2 0z"/>
   <path class="fil1" d="M376 138l-1 -10 0 -4 3 0 0 4 -1 10 -1 0zm-1 5l0 -3 3 0 0 3 -3 0z"/>
  </g>
  <polygon id="path1268-2-3" class="fil1" points="184,122 179,122 196,154 195,156 175,156 172,161 205,161 " inkscape:connector-curvature="0" sodipodi:nodetypes="ccccccc"/>
  <polygon id="path1268-7-0-7" class="fil1" points="203,168 206,163 170,163 169,161 179,144 176,139 159,168 " inkscape:connector-curvature="0" sodipodi:nodetypes="ccccccc"/>
  <polygon id="path1268-7-9-2-5" class="fil1" points="154,163 156,167 174,136 176,134 177,136 187,152 192,152 176,124 " inkscape:connector-curvature="0" sodipodi:nodetypes="ccccccc"/>
  <g id="_778404104">
   <path class="fil2" d="M378 250c0,1 0,1 -1,2l-4 -3c1,0 1,0 1,-1l0 0 0 0 0 0 0 0 0 0c1,0 1,-1 1,-2l4 3c0,0 -1,1 -1,1zm-2 3c-4,4 -10,5 -15,2 -1,-1 -2,-1 -3,-2l5 -2 0 0 0 0 0 0 0 0 0 0 0 0c2,1 4,2 6,1 1,0 2,0 3,-1l4 2zm0 -9c0,-1 0,-2 -1,-2 0,-3 -2,-5 -4,-6l0 0c0,0 0,0 0,0l0 -4c1,0 2,0 2,1 5,2 8,8 7,13l-4 -2zm-19 8c-1,-1 -1,-2 -2,-3l4 -3c0,2 1,3 2,3l-4 3zm-3 -6c0,-3 0,-6 2,-9 2,-3 4,-4 7,-5l0 4c-1,1 -3,2 -3,3l0 0c-1,2 -2,3 -2,5l-4 2zm11 -15c1,0 3,0 4,0l0 4c-1,0 -3,0 -4,0l0 -4zm4 19c0,0 0,0 0,0l-2 -2 -2 2c1,0 2,0 4,0zm2 -2c1,0 1,-1 1,-1l0 0c1,-1 1,-1 1,-2l-2 -1 0 1 -1 0 -1 0 1 1 0 1 -1 0 2 1zm2 -5c0,-1 0,-1 0,-1 0,-1 -1,-2 -2,-3l0 2 2 2zm-8 2l-1 0 -1 0 0 -1 -2 1 0 0c0,1 1,2 2,3l2 -1 -1 0 1 -1 0 -1zm-2 -4l0 -2c-1,0 -1,1 -1,2l0 0c-1,0 -1,1 -1,2l2 -2zm6 -3c-1,-1 -3,-1 -4,0l0 0 0 2 1 0 1 1 0 0 0 0 1 -1 1 0 0 -2z"/>
   <circle class="fil2" transform="matrix(-0.0237613 0.0411558 -0.0412713 -0.023828 367.02 243.751)" r="156"/>
   <circle class="fil2" transform="matrix(-0.0313595 0.0543162 -0.0544685 -0.0314474 388.836 256.347)" r="156"/>
   <circle class="fil2" transform="matrix(-0.0313595 -0.0543162 0.0544685 -0.0314474 345.203 256.347)" r="156"/>
   <circle class="fil2" cx="367" cy="219" r="10"/>
   <rect class="fil2" transform="matrix(-0.0429259 0.0743499 -0.243998 -0.140873 390.289 253.83)" width="67.7087" height="89.4134"/>
   <rect class="fil2" transform="matrix(-0.0429259 -0.0743499 0.243998 -0.140873 346.657 258.864)" width="67.7087" height="89.4134"/>
   <rect class="fil2" x="364" y="219" width="5.81291" height="25.1918"/>
  </g>
  <g id="_778402376">
   <g id="g5">
    <path id="path7" class="fil1" d="M273 141l0 3c-2,0 -3,2 -2,5l-3 1c-9,-12 -26,-2 -21,12 -5,-12 3,-22 12,-23 -3,-9 2,-20 13,-22 -14,3 -14,23 1,24z"/>
    <path id="path9" class="fil1" d="M269 151l2 -1c2,2 4,2 6,0l2 1c-6,14 11,24 21,13 -8,10 -21,8 -26,1 -6,8 -19,8 -25,-1 9,11 26,1 20,-13z"/>
    <path id="path11" class="fil1" d="M280 150l-2 -1c0,-3 -1,-5 -3,-5l0 -3c15,-1 15,-21 0,-24 12,2 17,14 14,22 10,2 17,12 12,22 5,-13 -12,-23 -21,-11z"/>
    <path id="path13" class="fil1" d="M265 135l3 3c3,-3 9,-2 12,0l3 -3c-5,-4 -13,-4 -18,0z"/>
    <path id="path15" class="fil1" d="M289 146l-4 1c1,5 -2,9 -6,11l1 3c6,-2 10,-8 9,-15z"/>
    <path id="path17" class="fil1" d="M268 161l1 -3c-4,-2 -7,-7 -6,-11l-4 -1c-1,6 3,13 9,15z"/>
   </g>
  </g>
  <polygon id="path8579-3-5-7_0" class="fil3" points="273,235 271,236 270,234 271,233 273,233 " sodipodi:nodetypes="cccccc" inkscape:transform-center-y="-1.4592854" inkscape:transform-center-x="0.50454769" inkscape:connector-curvature="0"/>
  <path class="fil3" d="M245 266l31 -58 -19 0 -12 58zm13 -33l-1 0 -2 -1 2 -2 2 1 -1 2z"/>
  <polygon id="path8579-3-5-7_1" class="fil3" points="282,248 281,249 280,250 280,249 282,247 " sodipodi:nodetypes="cccccc" inkscape:transform-center-y="-1.4592854" inkscape:transform-center-x="0.50454769" inkscape:connector-curvature="0"/>
  <path class="fil3" d="M302 250l-57 16 7 0c1,0 1,-1 1,-1 2,-1 4,-2 6,-2l0 -1 1 1 0 3 42 2 0 -18zm-29 14l-1 -1 2 -2 2 1 -2 1 -1 1z"/>
  <polygon class="fil3" points="246,235 250,209 246,208 "/>
  <g id="_778401344">
   <path class="fil0" d="M456 24l31 24 2 2 -2 1 -31 25 0 1 -1 -1 -31 -25 -1 -1 1 -2 31 -24 1 -1 0 1zm27 26l-27 -23 -28 23 28 23 27 -23z"/>
   <g>
    <path class="fil3" d="M456 35c8,0 14,7 14,15 0,8 -6,14 -14,14 -8,0 -15,-6 -15,-14 0,-8 7,-15 15,-15zm0 4c6,0 11,5 11,11 0,6 -5,11 -11,11 -7,0 -12,-5 -12,-11 0,-6 5,-11 12,-11z"/>
    <path class="fil3" d="M456 44c3,0 5,3 5,6 0,3 -2,6 -5,6 -4,0 -6,-3 -6,-6 0,-3 2,-6 6,-6z"/>
   </g>
  </g>
  <sodipodi:namedview id="base" pagecolor="#ffffff" bordercolor="#666666" borderopacity="1.0" inkscape:pageopacity="0.0" inkscape:pageshadow="2" inkscape:zoom="1.4" inkscape:cx="-125.56995" inkscape:cy="242.29594" inkscape:document-units="mm" inkscape:current-layer="layer1" showgrid="false" showguides="true" inkscape:guide-bbox="true" inkscape:snap-bbox="true" inkscape:bbox-paths="true" inkscape:snap-bbox-edge-midpoints="true" inkscape:bbox-nodes="true" inkscape:snap-bbox-midpoints="true" inkscape:object-paths="true" inkscape:snap-intersection-paths="true" inkscape:snap-smooth-nodes="true" inkscape:snap-midpoints="true" inkscape:window-width="1920" inkscape:window-height="1011" inkscape:window-x="0" inkscape:window-y="0" inkscape:window-maximized="1" inkscape:snap-global="true">
   <sodipodi:guide position="-55.057521,283.03844" orientation="0,1" id="guide4526" inkscape:locked="false"/>
   <sodipodi:guide position="40.726662,247.40093" orientation="0,1" id="guide4528" inkscape:locked="false"/>
   <sodipodi:guide position="35.624256,206.291" orientation="0,1" id="guide4588" inkscape:locked="false"/>
   <sodipodi:guide position="-85.214075,85.20884" orientation="0,1" id="guide978" inkscape:locked="false"/>
   <sodipodi:guide position="39.088169,52.384828" orientation="0,1" id="guide989" inkscape:locked="false"/>
  </sodipodi:namedview>
  <path class="fil1" d="M201 210c2,3 4,5 5,8 2,4 3,8 3,12 1,8 -1,16 -6,21l-2 2c-1,1 -1,1 -2,2 0,0 -1,0 -1,1l0 6c0,0 0,0 0,0 1,-1 1,-1 1,-1 1,0 1,0 1,0l2 -2 5 -6c1,0 1,-1 1,-1 0,-1 1,-1 1,-2 1,-1 2,-3 2,-4 3,-7 2,-15 0,-22 0,-2 -1,-3 -2,-5 0,0 -1,-1 -1,-2 -1,0 -1,-1 -1,-1 -1,-1 -1,-1 -1,-1l-2 -3c-1,-1 -2,-2 -3,-3 0,0 0,0 -1,0l1 1zm-6 47c0,0 -1,1 -1,1l0 6c0,0 1,0 1,-1l0 -6zm-4 2c-4,1 -8,1 -12,0 -2,-1 -3,-1 -4,-2 -1,-1 -2,-2 -3,-3 -1,0 -1,0 -1,-1l-1 -1c0,0 -1,-1 -1,-2l0 0 0 11c0,0 1,1 2,1 2,2 4,3 7,3l11 0c1,0 2,0 2,0l0 -6zm-23 -11c0,-1 0,-1 0,-2l-3 2 -1 0 0 1 0 8c1,0 1,1 1,1 1,0 1,1 1,1l0 -9 0 -1 1 0 1 -1zm1 -6l0 0c0,0 1,0 1,0l4 -2 -10 -6 -1 -1c-1,0 -1,1 -1,1 -3,5 -3,13 0,19l0 -4 0 -2 0 0 1 -1 1 0 5 -4zm2 2c0,1 0,1 0,2l8 -5 1 0 0 0 13 8 1 0 0 1 0 0c0,0 1,-1 1,-1l0 0 0 -1 0 0 -12 -7 -1 -1 1 -1 6 -4c0,-1 0,-1 0,-2l-9 5 0 1 -1 -1 -12 -7 -1 -1 0 0 0 -1c0,0 0,0 0,0 -1,1 -1,1 -2,2l0 0 0 0 1 1 11 7 2 1 -2 1 -5 3zm1 4c0,1 1,1 1,1 1,2 2,2 3,3 5,3 11,3 15,0l0 -2 -11 -6 -8 4zm25 -2c3,-4 4,-9 3,-14 -1,-2 -1,-3 -2,-5 0,0 0,0 0,-1l0 5 0 1 0 1 -1 0 -1 1 -5 3c-1,0 -1,1 -2,1l-3 2 10 6 1 0zm-2 -24c0,0 -1,-1 -1,-2l0 10 0 0 -1 1 -1 0c0,1 0,1 0,2 0,0 0,0 0,1l3 -2 0 -1 0 0 0 -9zm-4 -4l-1 0c0,0 0,0 0,0 -3,-2 -7,-4 -11,-4 -3,-1 -7,0 -10,1l0 5c4,-1 8,-1 12,1 1,0 4,1 5,2 1,1 2,2 3,3 1,1 1,2 2,3l0 0 0 -11zm-25 -3c0,1 -1,1 -2,1l0 6c1,0 2,0 2,-1l0 -6zm-4 2c0,0 0,1 -1,1 0,0 0,0 0,0 -1,1 -2,1 -3,2 -1,1 -3,3 -3,3 -1,1 -2,2 -3,3 -1,3 -3,5 -3,8 -4,8 -3,18 2,26 1,2 1,3 3,5l2 2c1,1 2,3 3,3 0,0 -1,-1 -1,-2 -4,-5 -7,-12 -8,-19 0,-7 2,-14 6,-19l1 -1c0,-1 1,-2 1,-2l2 -2c1,-1 1,-1 2,-1 0,0 0,0 0,0l0 -7zm26 14c-1,-1 -2,-2 -3,-3 -1,-1 -2,-1 -4,-2 -3,-1 -7,-1 -10,0 -1,1 -2,1 -2,1l0 2 11 7 8 -5z"/>
  <path class="fil0" d="M167 266l0 -16 13 -8 12 8 0 16 -25 0zm0 -56l25 0 0 20 -12 7 -13 -7 0 -20zm30 -2l0 -1 -34 0 0 1 0 2 0 21 0 1 1 1 12 7 -12 7 -1 0 0 2 0 17 0 4 34 0 0 -4 0 -17 0 -2 -1 0 -12 -7 12 -7 1 -1 0 -1 0 -21 0 -2z"/>
  <sodipodi:namedview id="base" pagecolor="#ffffff" bordercolor="#666666" borderopacity="1.0" inkscape:pageopacity="0.0" inkscape:pageshadow="2" inkscape:zoom="5.6" inkscape:cx="20.200528" inkscape:cy="42.239951" inkscape:document-units="mm" inkscape:current-layer="layer1" showgrid="false" fit-margin-top="0" fit-margin-left="0" fit-margin-right="0" fit-margin-bottom="0" inkscape:snap-global="true" showguides="true" inkscape:guide-bbox="true" inkscape:window-width="1920" inkscape:window-height="1017" inkscape:window-x="-8" inkscape:window-y="-8" inkscape:window-maximized="1"/>
  <path id="path1312" class="fil1" d="M351 22l-6 35 24 -7 -7 30 24 -43c0,0 -24,4 -23,4 0,0 9,-20 9,-20l-21 1z" inkscape:connector-curvature="0"/>
  <path id="path1312-4" class="fil1" d="M384 61l-12 10 6 1 -10 8 16 -9c0,0 -4,-2 -4,-2 0,0 7,-5 7,-5l-3 -3z" inkscape:connector-curvature="0"/>
  <path id="path1312-4-8" class="fil1" d="M349 62l8 10 -5 0 6 8 -11 -10c0,0 4,-1 4,-1 0,0 -5,-5 -5,-5l3 -2z" inkscape:connector-curvature="0"/>
  <g id="_778397936">
   <path class="fil3" d="M280 65c2,2 4,5 4,8 0,5 -4,9 -9,9 -5,0 -9,-4 -9,-9 0,-3 2,-6 5,-8l0 -43c0,-2 2,-4 4,-4 3,0 5,2 5,4l0 43zm-5 5c2,0 3,1 3,3 0,2 -1,3 -3,3 -1,0 -3,-1 -3,-3 0,-2 2,-3 3,-3zm-1 -5l-1 -20 0 -18 5 0 0 18 -2 20 -2 0z"/>
   <path class="fil4" d="M267 29c0,0 0,0 0,-1l-1 -1c-1,-1 -2,-3 -3,-3 -1,0 -3,1 -2,3 0,1 1,2 1,2 1,1 1,2 2,2l3 4c0,0 0,0 0,0l0 11c-1,0 -6,-4 -8,-5 0,-2 -1,-6 -1,-9 -1,-1 -1,-1 -1,-2 -1,-1 -4,0 -3,2 0,2 1,4 1,6 -1,-1 -1,-1 -2,-2 -1,-1 -3,-2 -4,-3 -2,-1 -3,3 -2,4 1,1 5,3 6,4 0,0 0,0 0,0 -1,1 -2,1 -3,1 -1,1 -2,1 -2,1 -1,2 0,5 2,4l7 -2c1,-1 1,0 1,0 1,1 1,1 2,1 1,1 5,4 5,4 0,1 -4,3 -5,4 -1,0 -2,1 -2,2 0,0 -1,-1 -1,-1 -2,0 -5,-1 -7,-2 -1,0 -1,0 -2,0 0,1 0,1 0,2 0,2 1,2 2,3 1,0 2,0 3,1 0,0 -3,2 -4,3 0,0 -1,0 -2,1 -1,1 0,5 2,4 1,0 3,-2 4,-3 0,0 1,-1 2,-1 0,1 -1,5 -1,6 1,2 3,2 3,-1 1,-1 1,-2 1,-4 1,-1 1,-3 1,-4 0,-1 1,-1 1,-1 1,-1 1,-1 2,-1 1,-1 4,-3 5,-4l0 11c0,0 0,0 -1,1 -1,1 -5,6 -5,7 -1,2 2,4 3,2 0,0 1,-1 1,-1 0,-1 0,-1 0,-1 0,-2 0,-4 1,-5 1,-2 2,-3 3,-4l0 -42c0,0 0,-1 0,-2l0 -2c-2,0 -2,3 -2,5 0,2 0,4 0,6z"/>
   <path id="path7450-9" class="fil1" d="M304 60c0,0 -5,0 -7,2 -4,-11 2,-24 2,-24 0,0 -6,3 -8,6 -1,-26 -9,-26 -9,-26 0,0 3,5 0,15l0 25c2,-5 0,-7 0,-7 0,0 4,0 4,12 1,-2 4,-3 4,-3 0,0 -3,6 -1,11 0,-1 3,-1 3,-1l0 0c-4,3 -4,8 -8,10 0,0 -1,0 -1,1 0,0 0,0 -1,0 13,0 13,-14 22,-21l0 0z" inkscape:connector-curvature="0" sodipodi:nodetypes="ccccccccccccc"/>
  </g>
  <sodipodi:namedview id="base" pagecolor="#ffffff" bordercolor="#666666" borderopacity="1.0" inkscape:pageopacity="0.0" inkscape:pageshadow="2" inkscape:zoom="5.6" inkscape:cx="20.200528" inkscape:cy="42.239951" inkscape:document-units="mm" inkscape:current-layer="layer1" showgrid="false" fit-margin-top="0" fit-margin-left="0" fit-margin-right="0" fit-margin-bottom="0" inkscape:snap-global="true" showguides="true" inkscape:guide-bbox="true" inkscape:window-width="1920" inkscape:window-height="1017" inkscape:window-x="-8" inkscape:window-y="-8" inkscape:window-maximized="1"/>
  <g id="_778397096">
   <polygon class="fil0" points="569,78 571,80 573,81 571,83 542,112 541,113 540,112 511,83 510,81 511,80 513,78 518,78 515,81 541,108 568,81 564,78 "/>
   <g>
    <path class="fil3" d="M556 78c0,1 0,2 0,3 0,9 -7,16 -15,16 -8,0 -15,-7 -15,-16 0,-1 0,-2 0,-3l4 0c-1,1 -1,2 -1,3 0,7 6,13 12,13 7,0 12,-6 12,-13 0,-1 0,-2 -1,-3l4 0z"/>
    <path class="fil0" d="M556 78c0,1 1,2 1,3 0,5 -2,9 -5,12 -3,3 -7,5 -11,5 -4,0 -8,-2 -11,-5 -3,-3 -4,-7 -4,-12 0,-1 0,-2 0,-3l1 0c-1,1 -1,2 -1,3 0,4 2,8 5,11 2,3 6,5 10,5 4,0 8,-2 10,-5 3,-3 5,-7 5,-11 0,-1 0,-2 -1,-3l1 0zm-27 0l1 0c0,1 0,2 0,3 0,3 1,6 3,9l0 0c2,2 5,3 8,3 3,0 6,-1 8,-3l0 0c2,-3 3,-6 3,-9 0,-1 0,-2 0,-3l1 0c0,1 0,2 0,3 0,4 -1,7 -3,9l0 0c-3,3 -6,4 -9,4 -3,0 -6,-1 -9,-4l0 0 0 0c-2,-2 -3,-5 -3,-9 0,-1 0,-2 0,-3z"/>
    <path class="fil3" d="M546 78c1,1 1,2 1,3 0,4 -3,6 -6,6 -3,0 -6,-2 -6,-6 0,-1 0,-2 1,-3l10 0z"/>
   </g>
   <path class="fil0" d="M510 81l0 -3c21,0 42,0 63,0l0 3c-21,0 -42,0 -63,0z"/>
  </g>
  <sodipodi:namedview id="base" pagecolor="#ffffff" bordercolor="#666666" borderopacity="1.0" inkscape:pageopacity="0.0" inkscape:pageshadow="2" inkscape:zoom="8" inkscape:cx="25.58395" inkscape:cy="55.584062" inkscape:document-units="mm" inkscape:current-layer="layer1" showgrid="false" showguides="true" inkscape:guide-bbox="true" inkscape:snap-bbox="true" inkscape:bbox-paths="true" inkscape:snap-bbox-edge-midpoints="true" inkscape:bbox-nodes="true" inkscape:snap-bbox-midpoints="true" inkscape:object-paths="true" inkscape:snap-intersection-paths="true" inkscape:snap-smooth-nodes="true" inkscape:snap-midpoints="true" inkscape:window-width="1920" inkscape:window-height="1017" inkscape:window-x="-8" inkscape:window-y="-8" inkscape:window-maximized="1" inkscape:snap-global="true" inkscape:measure-start="114.537,714.446" inkscape:measure-end="0,0" fit-margin-top="0" fit-margin-left="0" fit-margin-right="0" fit-margin-bottom="0"/>
  <sodipodi:namedview id="base" pagecolor="#ffffff" bordercolor="#666666" borderopacity="1.0" inkscape:pageopacity="0.0" inkscape:pageshadow="2" inkscape:zoom="4" inkscape:cx="16.034092" inkscape:cy="30.856526" inkscape:document-units="mm" inkscape:current-layer="layer1" showgrid="false" showguides="true" inkscape:guide-bbox="true" inkscape:snap-bbox="true" inkscape:bbox-paths="true" inkscape:snap-bbox-edge-midpoints="true" inkscape:bbox-nodes="true" inkscape:snap-bbox-midpoints="true" inkscape:object-paths="true" inkscape:snap-intersection-paths="true" inkscape:snap-smooth-nodes="true" inkscape:snap-midpoints="true" inkscape:window-width="1920" inkscape:window-height="1017" inkscape:window-x="-8" inkscape:window-y="-8" inkscape:window-maximized="1" inkscape:snap-global="false" inkscape:measure-start="114.537,714.446" inkscape:measure-end="0,0" fit-margin-top="0" fit-margin-left="0" fit-margin-right="0" fit-margin-bottom="0"/>
  <g id="_778394960">
   <path class="fil1" d="M437 151c0,7 0,13 0,19 0,3 -1,7 1,8 2,1 3,1 4,0 1,-1 1,-2 1,-4 0,-6 0,-12 0,-19 0,-6 -1,-13 0,-19 0,1 1,2 2,3 0,0 1,1 2,2 2,1 4,2 5,4 1,0 2,1 3,2 5,4 6,-2 4,-4 -2,-2 -9,-7 -10,-8l-6 -8c0,-1 -2,-1 -3,-1 -3,0 -6,0 -9,0 -5,0 -5,0 -7,3 -1,2 -2,4 -3,6 -1,3 -1,3 -1,7 -1,3 -1,6 -1,9 0,3 3,3 5,1 2,-3 0,-12 3,-15 0,14 -1,25 -1,38 0,4 4,4 5,3 2,-1 1,-6 1,-8 1,-6 1,-13 1,-19l4 0z"/>
   <path class="fil1" d="M434 112c5,0 7,5 2,6 -6,0 -8,-5 -2,-6zm-7 7c0,4 4,7 9,6 4,0 8,-4 7,-9 -1,-4 -5,-7 -10,-7 -4,1 -7,5 -6,10z"/>
   <path class="fil1" d="M449 124c1,0 2,-6 2,-9 -1,-7 -4,-6 -3,-4 0,1 1,2 1,3 1,3 0,6 -1,8 0,1 0,2 1,2z"/>
   <path class="fil1" d="M446 112c-1,-1 0,2 1,4 0,2 -1,5 -1,6 3,0 2,-9 0,-10z"/>
   <rect class="fil3" x="467" y="109" width="23.9815" height="17.1013"/>
   <g>
    <polygon class="fil1" points="474,128 470,134 472,134 472,151 476,151 476,134 477,134 "/>
    <polygon class="fil1" points="484,128 481,134 482,134 483,151 486,151 486,134 488,134 "/>
   </g>
  </g>
  <path class="fil5 str0" d="M3 0l110 0c2,0 4,1 4,3l0 110c0,2 -2,4 -4,4l-110 0c-2,0 -3,-2 -3,-4l0 -110c0,-2 1,-3 3,-3zm2 2l107 0c2,0 3,1 3,3l0 107c0,2 -1,3 -3,3l-107 0c-2,0 -3,-1 -3,-3l0 -107c0,-2 1,-3 3,-3z"/>
 </g>
</svg>
