<?xml version="1.0" encoding="UTF-8" standalone="no"?>
<svg
   xmlns:dc="http://purl.org/dc/elements/1.1/"
   xmlns:cc="http://creativecommons.org/ns#"
   xmlns:rdf="http://www.w3.org/1999/02/22-rdf-syntax-ns#"
   xmlns:svg="http://www.w3.org/2000/svg"
   xmlns="http://www.w3.org/2000/svg"
   xmlns:sodipodi="http://sodipodi.sourceforge.net/DTD/sodipodi-0.dtd"
   xmlns:inkscape="http://www.inkscape.org/namespaces/inkscape"
   inkscape:version="1.0beta1 (32d4812, 2019-09-19)"
   sodipodi:docname="Amazing_Co.svg"
   id="svg78"
   viewBox="0 0 6741.2945 2252.3261"
   style="clip-rule:evenodd;fill-rule:evenodd;image-rendering:optimizeQuality;shape-rendering:geometricPrecision;text-rendering:geometricPrecision"
   version="1.1"
   height="2.252326in"
   width="6.7412944in"
   xml:space="preserve"><metadata
   id="metadata82">
  <rdf:RDF>
    <cc:Work
       rdf:about="">
      <dc:format>image/svg+xml</dc:format>
      <dc:type
         rdf:resource="http://purl.org/dc/dcmitype/StillImage" />
      <dc:title></dc:title>
    </cc:Work>
  </rdf:RDF>
</metadata>
<sodipodi:namedview
   inkscape:current-layer="svg78"
   inkscape:window-maximized="0"
   inkscape:window-y="23"
   inkscape:window-x="0"
   inkscape:cy="227.61224"
   inkscape:cx="-307.8817"
   inkscape:zoom="0.57366783"
   fit-margin-bottom="0"
   fit-margin-right="0"
   fit-margin-left="0"
   fit-margin-top="0"
   showgrid="false"
   id="namedview80"
   inkscape:window-height="855"
   inkscape:window-width="1440"
   inkscape:pageshadow="2"
   inkscape:pageopacity="0"
   guidetolerance="10"
   gridtolerance="10"
   objecttolerance="10"
   borderopacity="1"
   inkscape:document-rotation="0"
   bordercolor="#666666"
   pagecolor="#ffffff" />

 <defs
   id="defs12">
  <style
   id="style10"
   type="text/css">
   <![CDATA[
    .fil0 {fill:#FEFEFE}
    .fil4 {fill:black}
    .fil3 {fill:#088893}
    .fil6 {fill:#339966}
    .fil2 {fill:#C83E0D}
    .fil5 {fill:#FFCC00}
    .fil1 {fill:#FFCC00}
   ]]>
  </style>

 <clipPath
   id="clipPath94"
   clipPathUnits="userSpaceOnUse">
  <rect
     y="-224.37257"
     x="-310.66971"
     height="2847.8057"
     width="7490.5918"
     id="rect96"
     style="fill:none;stroke-width:10.4167" />
</clipPath>
<clipPath
   id="clipPath98"
   clipPathUnits="userSpaceOnUse">
  <rect
     y="1010.368"
     x="188.47661"
     height="2847.8057"
     width="7490.5918"
     id="rect100"
     style="fill:none;stroke-width:10.4167" />
</clipPath>
<clipPath
   id="clipPath104"
   clipPathUnits="userSpaceOnUse">
  <rect
     y="7.3367443"
     x="168.49107"
     height="2252.3259"
     width="6741.2944"
     id="rect106"
     style="fill:none;stroke-width:10.4167" />
</clipPath>
<clipPath
   id="clipPath108"
   clipPathUnits="userSpaceOnUse">
  <rect
     y="1242.0774"
     x="667.63739"
     height="2252.3259"
     width="6741.2944"
     id="rect110"
     style="fill:none;stroke-width:10.4167" />
</clipPath>
</defs>

 <g
   clip-path="url(#clipPath108)"
   transform="translate(-667.63739,-1242.0773)"
   id="Layer_x0020_1">
  <metadata
   id="CorelCorpID_0Corel-Layer" />

  <polygon
   id="polygon15"
   points="15004,2352 30226,2352 30226,13186 15004,13186 "
   class="fil0" />

  <path
   inkscape:connector-curvature="0"
   id="path17"
   d="m 2231,1566 v 555 h 254 v -514 c 0,-33 13,-49 40,-49 30,0 45,16 45,49 v 514 h 231 v -514 c 0,-33 14,-49 43,-49 28,0 41,16 41,49 v 514 h 255 v -567 c 0,-45 -9,-83 -27,-116 -18,-33 -41,-59 -69,-80 -27,-21 -58,-36 -90,-45 -33,-10 -64,-15 -93,-15 -37,0 -70,6 -100,17 -30,12 -56,30 -78,56 -18,-26 -44,-44 -76,-56 -32,-11 -66,-17 -101,-17 -34,0 -68,5 -101,15 -33,9 -62,25 -88,46 -25,22 -46,50 -62,84 -16,34 -24,75 -24,123 z"
   class="fil1" />

  <polygon
   id="polygon19"
   points="1550,2682 1630,2306 1709,2682 "
   class="fil2" />

  <path
   inkscape:connector-curvature="0"
   id="path21"
   d="m 827,3464 h 818 l 32,-150 h 112 l 97,150 h 925 L 2200,1474 2080,1262 H 1307 L 689,3267 Z m 612,-300 H 827 l 553,-1802 h 623 l 553,1802 h -729 l -38,-147 h -318 z"
   class="fil2" />

  <path
   inkscape:connector-curvature="0"
   id="path23"
   d="m 3278,2145 c 31,44 69,77 115,96 46,19 95,29 148,29 28,0 54,-2 77,-7 23,-5 45,-12 64,-21 l 8,14 h 345 v -539 c 0,-45 -5,-85 -15,-121 -11,-35 -24,-66 -39,-95 -48,-85 -98,-146 -152,-181 -53,-36 -109,-54 -168,-54 h -400 v 356 c -30,23 -53,55 -69,93 -16,39 -24,87 -24,143 0,26 3,51 7,73 4,23 11,45 20,68 9,22 20,45 34,68 14,24 30,49 49,78 z m 658,-24 h -261 v -66 c -14,24 -37,44 -69,59 -32,14 -73,21 -122,21 -34,0 -68,-4 -100,-14 -33,-9 -62,-24 -87,-46 -25,-21 -45,-50 -60,-86 -15,-35 -22,-79 -22,-131 0,-49 7,-90 21,-123 15,-34 35,-60 61,-80 26,-20 57,-34 94,-42 36,-8 77,-13 121,-13 h 64 c 6,2 11,5 16,8 4,3 9,9 13,17 5,8 8,20 11,34 3,15 4,33 4,56 0,24 -1,43 -3,58 -1,14 -4,26 -9,36 h -84 c -29,0 -44,12 -44,37 0,10 4,19 11,27 7,9 18,13 33,13 23,0 43,-3 60,-8 16,-4 29,-13 39,-25 10,-13 18,-30 22,-52 5,-23 7,-51 7,-86 0,-58 -8,-96 -25,-116 -16,-19 -41,-29 -76,-29 h -244 v -259 h 354 c 35,0 70,7 103,19 33,13 63,33 88,58 25,26 45,59 61,98 15,39 23,85 23,138 z"
   class="fil2" />

  <path
   inkscape:connector-curvature="0"
   id="path25"
   d="m 4008,2167 60,89 h 733 v -344 l -54,-96 h -99 l 152,-180 v -275 l -54,-95 h -738 v 350 l 60,89 h 92 l -152,185 z m 693,-305 v 259 h -647 v -214 l 277,-337 h -277 v -259 h 646 v 218 l -278,333 z"
   class="fil2" />

  <path
   inkscape:connector-curvature="0"
   id="path27"
   d="m 4789,2167 61,89 h 364 v -895 l -53,-95 h -372 z m 326,-46 h -281 v -810 h 281 z"
   class="fil2" />

  <path
   inkscape:connector-curvature="0"
   id="path29"
   d="m 5206,2196 67,60 h 367 v -70 l 43,70 h 365 v -520 c 0,-47 -5,-90 -14,-130 -9,-39 -24,-74 -44,-105 -44,-89 -98,-153 -161,-192 -63,-38 -140,-57 -230,-57 -127,0 -223,33 -289,100 -65,67 -97,165 -98,293 z m 333,-75 h -281 v -476 c 0,-113 29,-199 86,-258 57,-59 142,-89 255,-89 113,0 200,30 260,89 60,59 90,145 90,258 v 476 h -282 v -501 c 0,-23 -5,-39 -17,-49 -11,-9 -28,-14 -51,-14 -20,0 -34,5 -45,14 -10,10 -15,26 -15,49 z"
   class="fil2" />

  <path
   inkscape:connector-curvature="0"
   id="path31"
   d="m 6156,2077 c 43,60 94,107 156,142 61,34 130,51 208,51 25,0 51,-3 76,-9 26,-5 49,-13 71,-23 l 12,18 h 275 v -513 c -8,-41 -18,-80 -30,-116 -12,-36 -27,-68 -45,-97 -52,-98 -112,-169 -180,-213 -68,-43 -147,-65 -239,-65 -61,0 -118,11 -171,33 -53,22 -99,53 -139,93 -39,40 -70,89 -92,146 -22,57 -34,121 -34,193 0,65 11,126 33,182 22,56 55,116 99,178 z m 423,37 c -37,14 -76,21 -118,21 -55,0 -106,-9 -154,-29 -48,-19 -89,-47 -124,-83 -34,-36 -62,-80 -82,-131 -20,-52 -30,-110 -30,-175 0,-64 10,-121 30,-173 20,-52 48,-96 82,-132 35,-36 76,-64 124,-84 48,-20 99,-30 153,-30 118,0 211,31 278,93 68,62 105,148 112,258 h -282 c -5,-30 -17,-54 -36,-70 -19,-16 -42,-23 -71,-23 -32,0 -59,13 -79,40 -21,28 -31,68 -31,121 0,30 3,56 9,78 7,21 16,38 26,50 11,13 23,22 36,28 13,6 26,9 39,9 29,0 50,-8 66,-23 15,-16 26,-35 31,-59 h -114 v -100 h 410 v 421 h -190 v -64 c -20,23 -48,42 -85,57 z"
   class="fil2" />

  <path
   inkscape:connector-curvature="0"
   id="path33"
   d="m 6997,2116 c 14,23 28,44 41,63 13,18 27,34 41,45 15,12 31,21 50,28 19,6 42,9 68,9 25,0 48,-5 71,-15 22,-9 42,-23 59,-39 18,-17 31,-37 41,-60 9,-24 14,-49 14,-75 0,-38 -9,-72 -28,-103 l -33,-50 37,-282 v -276 l -54,-95 h -337 v 282 l 37,289 c -38,37 -58,85 -58,144 0,54 17,98 51,135 z m 198,-1 c -17,7 -35,11 -55,11 -44,0 -79,-14 -106,-41 -28,-27 -41,-62 -41,-104 0,-43 13,-79 41,-107 27,-27 62,-41 106,-41 20,0 38,4 55,11 17,8 33,18 46,31 13,13 23,29 31,47 7,18 11,38 11,59 0,21 -4,40 -11,58 -8,18 -18,33 -31,45 -13,13 -29,23 -46,31 z m 63,-804 v 230 l -33,263 h -177 l -34,-263 v -230 z"
   class="fil2" />

  <path
   inkscape:connector-curvature="0"
   id="path35"
   d="m 4755,3224 c 54,77 120,136 197,178 78,41 165,62 263,62 82,0 153,-13 215,-39 62,-26 115,-62 158,-110 44,-48 79,-106 106,-174 27,-68 46,-145 57,-229 l -42,-64 h 40 c -6,-66 -16,-126 -31,-182 -15,-56 -37,-106 -66,-149 -64,-122 -137,-209 -219,-263 -83,-53 -181,-80 -294,-80 -80,0 -153,14 -220,41 -66,27 -124,67 -174,118 -49,51 -87,113 -115,186 -28,72 -42,153 -42,244 0,86 14,165 42,236 28,72 70,147 125,225 z m 721,-51 c -39,39 -86,68 -141,89 -55,21 -119,31 -191,31 -71,0 -136,-12 -196,-35 -60,-24 -113,-58 -157,-102 -45,-45 -80,-100 -106,-166 -25,-66 -38,-141 -38,-227 0,-82 12,-155 37,-220 26,-65 60,-121 103,-167 44,-45 96,-81 156,-106 60,-25 125,-37 196,-37 149,0 264,39 343,118 80,78 125,187 137,327 h -343 c -17,-80 -61,-119 -132,-119 -43,0 -77,17 -103,52 -27,34 -40,85 -40,152 0,66 13,116 40,150 26,35 60,52 103,52 29,0 56,-10 81,-31 25,-20 41,-49 49,-84 h 343 c -9,68 -25,129 -48,184 -23,54 -54,101 -93,139 z"
   class="fil3" />

  <path
   inkscape:connector-curvature="0"
   id="path37"
   d="m 6258,2965 c -42,0 -77,-15 -104,-47 -28,-31 -41,-83 -41,-155 0,-73 12,-125 36,-157 24,-31 60,-47 109,-47 47,0 82,16 106,47 24,32 36,84 36,157 0,72 -13,124 -40,155 -27,32 -61,47 -102,47 z"
   class="fil4" />

  <path
   inkscape:connector-curvature="0"
   id="path39"
   d="m 5868,3234 c 51,73 114,129 190,169 77,41 167,61 272,61 85,0 161,-14 229,-41 68,-26 126,-65 173,-115 48,-50 84,-111 109,-184 25,-72 38,-154 38,-246 0,-68 -8,-132 -24,-191 -15,-60 -38,-113 -67,-160 -61,-123 -135,-212 -222,-268 -87,-57 -190,-85 -308,-85 -87,0 -165,14 -233,42 -69,28 -127,67 -175,118 -48,51 -85,112 -110,185 -26,72 -39,153 -39,244 0,42 4,83 10,122 7,39 17,77 30,114 14,38 31,76 52,114 21,39 46,79 75,121 z m 597,23 c -61,24 -130,36 -207,36 -77,0 -146,-12 -208,-36 -62,-24 -114,-59 -157,-104 -43,-46 -76,-102 -99,-168 -23,-66 -34,-140 -34,-222 0,-80 11,-154 34,-219 23,-66 56,-122 99,-168 43,-45 95,-81 157,-106 62,-25 131,-37 208,-37 77,0 146,12 207,37 61,25 112,61 154,106 43,46 75,102 98,168 23,65 35,139 35,219 0,82 -12,156 -35,222 -23,66 -55,122 -98,168 -42,45 -93,80 -154,104 z"
   class="fil3" />

  <path
   inkscape:connector-curvature="0"
   id="path41"
   d="m 6154,2918 c 27,32 62,47 104,47 41,0 75,-15 102,-47 27,-31 40,-83 40,-155 0,-73 -12,-125 -36,-157 -24,-31 -59,-47 -106,-47 -49,0 -85,16 -109,47 -24,32 -36,84 -36,157 0,72 13,124 41,155 z"
   class="fil3" />

  <path
   inkscape:connector-curvature="0"
   id="path43"
   d="m 6848,3199 c 13,27 27,53 42,77 l 52,81 c 21,33 48,59 81,78 32,19 73,29 123,29 33,0 63,-7 91,-19 29,-12 54,-29 76,-50 21,-21 38,-46 51,-75 12,-29 18,-61 18,-96 0,-50 -12,-93 -35,-130 l -50,-80 c -26,-43 -57,-78 -93,-107 -36,-28 -79,-42 -130,-42 -35,0 -68,6 -98,18 -30,12 -56,29 -78,51 -22,22 -39,48 -51,77 -12,30 -18,62 -18,98 0,33 6,64 19,90 z m 297,81 c -23,9 -46,13 -71,13 -54,0 -99,-17 -134,-52 -35,-34 -53,-78 -53,-132 0,-55 18,-99 53,-135 35,-35 80,-52 134,-52 25,0 48,4 71,14 22,9 41,22 58,39 17,17 30,37 39,60 10,22 15,47 15,74 0,27 -5,51 -15,74 -9,22 -22,41 -39,58 -17,17 -36,30 -58,39 z"
   class="fil3" />

  <path
   inkscape:connector-curvature="0"
   id="path45"
   d="m 2485,2121 h -254 v -555 c 0,-48 8,-89 24,-123 16,-34 37,-62 62,-84 26,-21 55,-37 88,-46 33,-10 67,-15 101,-15 35,0 69,6 101,17 32,12 58,30 76,56 22,-26 48,-44 78,-56 30,-11 63,-17 100,-17 29,0 60,5 93,15 32,9 63,24 90,45 28,21 51,47 69,80 18,33 27,71 27,116 v 567 h -255 v -514 c 0,-33 -13,-49 -41,-49 -29,0 -43,16 -43,49 v 514 h -231 v -514 c 0,-33 -15,-49 -45,-49 -27,0 -40,16 -40,49 z m -300,-555 v 601 l 61,89 h 994 v -609 c 0,-31 -4,-60 -11,-85 -8,-26 -19,-50 -32,-70 -21,-46 -46,-84 -73,-115 -28,-31 -57,-55 -87,-74 -30,-18 -60,-31 -90,-39 -31,-8 -59,-12 -86,-12 -36,0 -68,4 -97,12 -28,8 -55,22 -81,42 -24,-19 -51,-32 -82,-41 -32,-9 -63,-13 -95,-13 -39,0 -78,6 -117,17 -38,11 -72,30 -103,55 -30,25 -55,57 -73,98 -19,40 -28,88 -28,144 z"
   class="fil2" />

  <path
   inkscape:connector-curvature="0"
   id="path47"
   d="m 4036,2121 218,442 488,71 -353,344 83,486 -165,-87 -68,-399 353,-344 -488,-71 -143,-290 z m -75,1153 -362,190 15,-87 272,-143 z"
   class="fil3" />

  <path
   inkscape:connector-curvature="0"
   id="path49"
   d="m 3736,2121 218,442 488,71 -353,344 83,486 -165,-87 -68,-399 353,-344 -488,-71 -143,-290 z m -75,1153 -362,190 15,-87 272,-143 z"
   class="fil5" />

  <path
   inkscape:connector-curvature="0"
   id="path51"
   d="m 3436,2121 218,442 488,71 -353,344 83,486 -165,-87 -68,-399 353,-344 -488,-71 -143,-290 z m -75,1153 -362,190 15,-87 272,-143 z"
   class="fil6" />

  <polygon
   id="polygon53"
   points="2669,3464 2753,2978 2400,2634 2887,2563 3106,2121 3324,2563 3812,2634 3459,2978 3542,3464 3106,3234 "
   class="fil2" />

  <path
   inkscape:connector-curvature="0"
   id="path55"
   d="m 7034,1874 c -28,28 -41,64 -41,107 0,42 13,77 41,104 27,27 62,41 106,41 20,0 38,-4 55,-11 17,-8 33,-18 46,-31 13,-12 23,-27 31,-45 7,-18 11,-37 11,-58 0,-21 -4,-41 -11,-59 -8,-18 -18,-34 -31,-47 -13,-13 -29,-23 -46,-31 -17,-7 -35,-11 -55,-11 -44,0 -79,14 -106,41 z"
   class="fil1" />

  <polygon
   id="polygon57"
   points="7048,1804 7225,1804 7258,1541 7258,1311 7014,1311 7014,1541 "
   class="fil1" />

  <path
   inkscape:connector-curvature="0"
   id="path59"
   d="M 2556,3164 2003,1362 H 1380 L 827,3164 h 612 l 32,-147 h 318 l 38,147 z m -1006,-482 80,-376 79,376 z"
   class="fil1" />

  <path
   inkscape:connector-curvature="0"
   id="path61"
   d="m 3215,1858 c 0,52 7,96 22,131 15,36 35,65 60,86 25,22 54,37 87,46 32,10 66,14 100,14 49,0 90,-7 122,-21 32,-15 55,-35 69,-59 v 66 h 261 v -497 c 0,-53 -8,-99 -23,-138 -16,-39 -36,-72 -61,-98 -25,-25 -55,-45 -88,-58 -33,-12 -68,-19 -103,-19 h -354 v 259 h 244 c 35,0 60,10 76,29 17,20 25,58 25,116 0,35 -2,63 -7,86 -4,22 -12,39 -22,52 -10,12 -23,21 -39,25 -17,5 -37,8 -60,8 -15,0 -26,-4 -33,-13 -7,-8 -11,-17 -11,-27 0,-25 15,-37 44,-37 h 84 c 5,-10 8,-22 9,-36 2,-15 3,-34 3,-58 0,-23 -1,-41 -4,-56 -3,-14 -6,-26 -11,-34 -4,-8 -9,-14 -13,-17 -5,-3 -10,-6 -16,-8 h -64 c -44,0 -85,5 -121,13 -37,8 -68,22 -94,42 -26,20 -46,46 -61,80 -14,33 -21,74 -21,123 z"
   class="fil1" />

  <polygon
   id="polygon63"
   points="4700,1529 4700,1311 4054,1311 4054,1570 4331,1570 4054,1907 4054,2121 4701,2121 4701,1862 4422,1862 "
   class="fil1" />

  <polygon
   id="polygon65"
   points="5115,2121 5115,1311 4834,1311 4834,2121 "
   class="fil1" />

  <path
   inkscape:connector-curvature="0"
   id="path67"
   d="m 5258,1645 v 476 h 281 v -501 c 0,-23 5,-39 15,-49 11,-9 25,-14 45,-14 23,0 40,5 51,14 12,10 17,26 17,49 v 501 h 282 v -476 c 0,-113 -30,-199 -90,-258 -60,-59 -147,-89 -260,-89 -113,0 -198,30 -255,89 -57,59 -86,145 -86,258 z"
   class="fil1" />

  <path
   inkscape:connector-curvature="0"
   id="path69"
   d="m 6101,1544 c -20,52 -30,109 -30,173 0,65 10,123 30,175 20,51 48,95 82,131 35,36 76,64 124,83 48,20 99,29 154,29 42,0 81,-7 118,-21 37,-15 65,-34 85,-57 v 64 h 190 v -421 h -410 v 100 h 114 c -5,24 -16,43 -31,59 -16,15 -37,23 -66,23 -13,0 -26,-3 -39,-9 -13,-6 -25,-15 -36,-28 -10,-12 -19,-29 -26,-50 -6,-22 -9,-48 -9,-78 0,-53 10,-93 31,-121 20,-27 47,-40 79,-40 29,0 52,7 71,23 19,16 31,40 36,70 h 282 c -7,-110 -44,-196 -112,-258 -67,-62 -160,-93 -278,-93 -54,0 -105,10 -153,30 -48,20 -89,48 -124,84 -34,36 -62,80 -82,132 z"
   class="fil1" />

  <path
   inkscape:connector-curvature="0"
   id="path71"
   d="m 5617,2850 h -343 c -8,35 -24,64 -49,84 -25,21 -52,31 -81,31 -43,0 -77,-17 -103,-52 -27,-34 -40,-84 -40,-150 0,-67 13,-118 40,-152 26,-35 60,-52 103,-52 71,0 115,39 132,119 h 343 c -12,-140 -57,-249 -137,-327 -79,-79 -194,-118 -343,-118 -71,0 -136,12 -196,37 -60,25 -112,61 -156,106 -43,46 -77,102 -103,167 -25,65 -37,138 -37,220 0,86 13,161 38,227 26,66 61,121 106,166 44,44 97,78 157,102 60,23 125,35 196,35 72,0 136,-10 191,-31 55,-21 102,-50 141,-89 39,-38 70,-85 93,-139 23,-55 39,-116 48,-184 z"
   class="fil1" />

  <path
   inkscape:connector-curvature="0"
   id="path73"
   d="m 5760,2763 c 0,82 11,156 34,222 23,66 56,122 99,168 43,45 95,80 157,104 62,24 131,36 208,36 77,0 146,-12 207,-36 61,-24 112,-59 154,-104 43,-46 75,-102 98,-168 23,-66 35,-140 35,-222 0,-80 -12,-154 -35,-219 -23,-66 -55,-122 -98,-168 -42,-45 -93,-81 -154,-106 -61,-25 -130,-37 -207,-37 -77,0 -146,12 -208,37 -62,25 -114,61 -157,106 -43,46 -76,102 -99,168 -23,65 -34,139 -34,219 z m 498,202 c -42,0 -77,-15 -104,-47 -28,-31 -41,-83 -41,-155 0,-73 12,-125 36,-157 24,-31 60,-47 109,-47 47,0 82,16 106,47 24,32 36,84 36,157 0,72 -13,124 -40,155 -27,32 -61,47 -102,47 z"
   class="fil1" />

  <path
   inkscape:connector-curvature="0"
   id="path75"
   d="m 6887,3109 c 0,54 18,98 53,132 35,35 80,52 134,52 25,0 48,-4 71,-13 22,-9 41,-22 58,-39 17,-17 30,-36 39,-58 10,-23 15,-47 15,-74 0,-27 -5,-52 -15,-74 -9,-23 -22,-43 -39,-60 -17,-17 -36,-30 -58,-39 -23,-10 -46,-14 -71,-14 -54,0 -99,17 -134,52 -35,36 -53,80 -53,135 z"
   class="fil1" />

 </g>

<rect
   transform="translate(-168.49107,-7.3367443)"
   clip-path="url(#clipPath104)"
   y="3.5527137e-15"
   x="0"
   height="2399.0608"
   width="7041.8467"
   id="rect90"
   style="fill:none;stroke-width:10.4167" />
</svg>
