<?xml version="1.0" encoding="utf-8"?>
<!-- Generator: Adobe Illustrator 24.0.0, SVG Export Plug-In . SVG Version: 6.00 Build 0)  -->
<svg version="1.1" xmlns="http://www.w3.org/2000/svg" xmlns:xlink="http://www.w3.org/1999/xlink" x="0px" y="0px"
	 viewBox="0 0 500 435.342" enable-background="new 0 0 500 435.342" xml:space="preserve">
<g id="Base" display="none">
	<path id="WithInner" display="inline" opacity="0.1" d="M133.922,3.241L2.5,3.27l66.258,114.762l13.832-3.709L26.708,17.532
		h111.486L133.922,3.241z M497.5,3.343l-129.012,0.01l-3.791,14.145h108.454l-55.317,95.814l14.009,3.752L497.5,3.343z
		 M38.825,24.143l211.637,365.971L461.748,24.192L38.825,24.143z M104.898,57.4l140.859,0.058v7.121l-63.751,36.808L104.898,57.4z
		 M254.706,57.463l141.036,0.058l-77.127,43.958l-63.909-36.9L254.706,57.463z M100.299,65.075l76.185,43.463v75.03l-5.83,3.366
		L100.299,65.075z M400.334,65.203L329.923,187.16l-6.359-3.672v-74.532L400.334,65.203z M250.233,72.327l59.377,34.283
		l-59.254,33.769l-59.351-33.859L250.233,72.327z M185.433,113.642l60.448,34.485v69.804l-60.448-34.897V113.642z M314.618,114.054
		v69.433l-59.79,34.521v-69.88L314.618,114.054z M181.419,191.05l64.462,37.213v88.969l-70.753-122.549L181.419,191.05z
		 M319.091,191.237l6.359,3.672l-70.622,122.323v-88.891L319.091,191.237z M304.686,309.516l-54.414,94.246l-53.278-92.282
		l-10.619,10.616l63.734,110.003l64.843-112.316L304.686,309.516z"/>
	<path id="NoInner" display="inline" opacity="0.1" d="M133.922,3.241L2.5,3.27l66.258,114.762l13.832-3.709L26.708,17.532h111.486
		L133.922,3.241z M497.5,3.343l-129.012,0.01l-3.791,14.145h108.454l-55.317,95.814l14.009,3.752L497.5,3.343z M38.825,24.143
		l211.637,365.971L461.748,24.192L38.825,24.143z M404.803,57.463L250.354,324.98L95.902,57.458L404.803,57.463z M304.686,309.517
		l-54.414,94.246l-53.278-92.282l-10.619,10.616l63.734,110.003l64.843-112.316L304.686,309.517z"/>
</g>
<g id="JP">
	<path id="HexaFiller-JP-Right" fill="#EA0032" d="M250.357,145.66l68.599-39.56l0.34,79.56l-68.94,39.728L250.357,145.66z"/>
	<path id="HexaFiller-JP-Left" fill="#EA0032" d="M250.357,145.66l-0.002,79.728l-69.275-39.728l0-79.56L250.357,145.66z"/>
	<path id="HexaFiller-JP-Top" fill="#EA0032" d="M250.357,145.66l-69.276-39.56l69.152-38.997l69.4,38.997L250.357,145.66z"/>
</g>
<g id="Box" display="none">
	<path id="HexaInner-Right_1_" display="inline" d="M254.828,148.129v69.88l-8.946-0.078v-69.804L254.828,148.129z"/>
	<path id="HexaInner-Bottom_1_" display="inline" d="M250.357,140.379l59.254-33.769l5.007,7.444l-59.79,34.075L250.357,140.379z"/>
	<path id="HexaInner-Left_1_" display="inline" d="M250.357,140.379l-59.351-33.859l-5.573,7.121l60.448,34.485L250.357,140.379z"/>
	<path id="HexaInner-Center" display="inline" d="M250.357,140.379l-4.476,7.748l8.946,0.002L250.357,140.379z"/>
	<path id="Hexa-Right_1_" display="inline" d="M318.615,101.479l-63.909-36.9l-4.473,7.747l59.377,34.283l5.007,7.444v69.433
		l8.946,0v-74.532L318.615,101.479z"/>
	<path id="Hexa-Bottom" display="inline" d="M254.828,228.341l64.263-37.104l-4.473-7.75l-59.79,34.521l-8.946-0.078l-60.448-34.897
		l-4.014,8.017l64.462,37.213L254.828,228.341z"/>
	<path id="Hexa-Left_1_" display="inline" d="M176.484,108.537v75.03l8.949-0.534v-69.392l5.573-7.121l59.227-34.194l-4.476-7.748
		l-63.751,36.808L176.484,108.537z"/>
	<path id="Inner-MiddleTop" display="inline" d="M254.706,57.463v7.116l-4.473,7.747l-4.476-7.748v-7.121L254.706,57.463z"/>
	<path id="Inner-MiddleRight_1_" display="inline" d="M329.923,187.16l-6.359-3.672l-8.946,0l4.473,7.75l6.359,3.672L329.923,187.16
		z"/>
	<path id="Inner-MiddleLeft_1_" display="inline" d="M175.128,194.684l6.291-3.633l4.014-8.017l-8.949,0.534l-5.83,3.366
		L175.128,194.684z"/>
	<path id="Inner-TopRight_1_" display="inline" d="M404.803,57.463l-9.061,0.058l-77.127,43.958l4.949,7.476l76.77-43.752
		L404.803,57.463z"/>
	<path id="Inner-Bottom_1_" display="inline" d="M250.354,324.98l4.474-7.747v-88.891l-8.946-0.078v88.969L250.354,324.98z"/>
	<path id="Inner-TopLeft_1_" display="inline" d="M95.902,57.458l4.397,7.616l76.185,43.463l5.522-7.15l-77.005-43.929
		L95.902,57.458z"/>
	<path id="Triangle-Top_1_" display="inline" d="M461.748,24.192L38.825,24.143l57.077,33.315l308.902,0.005L461.748,24.192z"/>
	<path id="Triangle-Right_1_" display="inline" d="M250.461,390.114L461.748,24.192l-56.945,33.271L250.354,324.98L250.461,390.114z
		"/>
	<path id="Triangle-Left_1_" display="inline" d="M38.825,24.143l211.637,365.971l-0.107-65.135L95.902,57.458L38.825,24.143z"/>
	<path id="Outer-Right" display="inline" d="M497.5,3.343l-129.012,0.01l-3.791,14.145h108.454l-55.317,95.814l14.009,3.752
		L497.5,3.343z"/>
	<path id="Outer-Bottom_2_" display="inline" d="M250.109,432.099l64.843-112.316l-10.267-10.267l-54.414,94.246l-53.278-92.282
		l-10.619,10.616L250.109,432.099z"/>
	<path id="Outer-Left" display="inline" d="M2.5,3.27l66.258,114.762l13.832-3.709L26.708,17.532h111.486l-4.272-14.291L2.5,3.27z"
		/>
	<path id="Filler" display="inline" d="M133.923,3.241L2.5,3.27l66.258,114.763l13.833-3.709L26.709,17.532h111.485L133.923,3.241z
		 M497.5,3.343l-129.011,0.01l-3.792,14.144H473.15l-55.316,95.813l14.009,3.753L497.5,3.343z M38.824,24.143L250.46,390.114
		L461.748,24.191L38.824,24.143z M105.002,57.459l140.756,0.002v7.119l-63.751,36.806L105.002,57.459z M250.089,57.461
		l154.715,0.002l-9.061,0.058l-77.127,43.958L254.706,64.58v-7.118L250.089,57.461z M100.299,65.075l76.186,43.461v75.031
		l-5.83,3.366L100.299,65.075z M400.335,65.203L329.923,187.16l-6.36-3.674v-74.532L400.335,65.203z M250.234,72.326l59.377,34.285
		l-59.253,33.768l-59.352-33.859L250.234,72.326z M185.433,113.641l60.448,34.486v69.805l-60.448-34.897L185.433,113.641z
		 M314.617,114.055v69.431l-59.789,34.522v-69.88L314.617,114.055z M181.419,191.051l64.462,37.212v88.969l-70.752-122.547
		L181.419,191.051z M319.091,191.236l6.358,3.674l-70.621,122.319V228.34L319.091,191.236z M304.686,309.516l-54.413,94.245
		l-53.278-92.281l-10.619,10.615l63.733,110.002l64.845-112.315L304.686,309.516z"/>
</g>
<g id="Stroke">
	<g id="HexaInner">
		<g id="Right_1_">
			<path id="HexaInner-Right" fill="none" stroke="#000000" stroke-width="9" d="M250.357,145.66l66.322-37.873L250.357,145.66z"/>
		</g>
		<g id="Bottom_2_">
			<path id="HexaInner-Bottom" fill="none" stroke="#000000" stroke-width="9" d="M250.357,145.66l-0.002,76.673L250.357,145.66z"/>
		</g>
		<g id="Left_1_">
			<path id="HexaInner-Left" fill="none" stroke="#000000" stroke-width="9" d="M250.357,145.66l-69.276-39.56L250.357,145.66z"/>
		</g>
	</g>
	<g id="Hexa">
		<g id="TopRight_2_">
			<path id="Hexa-TopRight" fill="none" stroke="#000000" stroke-width="9" d="M319.296,106.292l-69.063-39.19L319.296,106.292z"/>
		</g>
		<g id="MiddleRight_1_">
			<path id="Hexa-MiddleRight" fill="none" stroke="#000000" stroke-width="9" d="M319.296,185.659v-79.367V185.659z"/>
		</g>
		<g id="BorromRight">
			<path id="Hexa-BottomRight" fill="none" stroke="#000000" stroke-width="9" d="M250.356,225.388l68.94-39.728L250.356,225.388z"
				/>
		</g>
		<g id="BottomLeft">
			<path id="Hexa-BottomLeft" fill="none" stroke="#000000" stroke-width="9" d="M181.08,185.659l69.275,39.728L181.08,185.659z"/>
		</g>
		<g id="MiddleLeft_1_">
			<path id="Hexa-MiddleLeft" fill="none" stroke="#000000" stroke-width="9" d="M181.081,106.1v79.559V106.1z"/>
		</g>
		<g id="TopLeft_2_">
			<path id="Hexa-TopLeft" fill="none" stroke="#000000" stroke-width="9" d="M250.233,67.102L181.081,106.1L250.233,67.102z"/>
		</g>
	</g>
	<g id="Inner">
		<g id="TopCenter">
			<path id="Inner-TopCenter" fill="none" stroke="#000000" stroke-width="9" d="M250.233,54.464v15.239V54.464z"/>
		</g>
		<g id="TopRight_1_">
			<path id="Inner-TopRight" fill="none" stroke="#000000" stroke-width="9" d="M404.803,57.463l-87.9,50.195L404.803,57.463z"/>
		</g>
		<g id="MiddleRight">
			<path id="Inner-MiddleRight" fill="none" stroke="#000000" stroke-width="9" d="M330.545,191.974l-13.498-7.576L330.545,191.974z
				"/>
		</g>
		<g id="Bottom_1_">
			<path id="Inner-Bottom" fill="none" stroke="#000000" stroke-width="9" d="M250.354,324.98l0.001-101.93L250.354,324.98z"/>
		</g>
		<g id="MiddleLeft">
			<path id="Inner-MiddleLeft" fill="none" stroke="#000000" stroke-width="9" d="M170.614,191.974l12.505-7.544L170.614,191.974z"
				/>
		</g>
		<g id="TopLeft_1_">
			<path id="Inner-TopLeft" fill="none" stroke="#000000" stroke-width="9" d="M95.902,57.458l87.187,49.788L95.902,57.458z"/>
		</g>
	</g>
	<g id="Triangle">
		<g id="Top">
			<path id="Triangle-Top" d="M461.748,24.192L38.825,24.143l57.077,33.315l308.902,0.005L461.748,24.192z"/>
		</g>
		<g id="Right">
			<path id="Triangle-Right" d="M250.461,390.114L461.748,24.192l-56.945,33.271L250.354,324.98L250.461,390.114z"/>
		</g>
		<g id="Left">
			<path id="Triangle-Left" d="M38.825,24.143l211.637,365.971l-0.107-65.135L95.902,57.458L38.825,24.143z"/>
		</g>
	</g>
	<g id="Outer">
		<g id="TopRight">
			<path id="Outer-TopRight_1_" d="M497.5,3.241L368.488,3.353l-3.791,14.145h108.454l-55.317,95.814l14.009,3.753L497.5,3.241z"/>
		</g>
		<g id="Bottom">
			<path id="Outer-Bottom_1_" d="M250.109,432.099l64.843-112.316l-10.267-10.267l-54.414,94.246l-53.278-92.282l-10.619,10.616
				L250.109,432.099z"/>
		</g>
		<g id="TopLeft">
			<path id="Outer-TopLeft_1_" d="M2.5,3.241l66.258,114.792l13.832-3.709L26.708,17.532h111.486l-4.272-14.291L2.5,3.241z"/>
		</g>
	</g>
	<g id="Filler_1_">
		<path id="Inner_2_" fill="none" stroke="#000000" stroke-width="9" d="M95.902,57.458l87.187,49.788L95.902,57.458z
			 M250.354,324.98l0.001-101.93L250.354,324.98z M404.803,57.463l-87.9,50.195L404.803,57.463z M170.614,191.974l12.505-7.544
			L170.614,191.974z M330.545,191.974l-13.498-7.576L330.545,191.974z M250.233,54.464v15.239V54.464z M250.233,67.102
			L181.081,106.1L250.233,67.102z M181.081,106.1v79.559V106.1z M181.08,185.659l69.275,39.728L181.08,185.659z M250.356,225.388
			l68.94-39.728L250.356,225.388z M319.296,185.659v-79.367V185.659z M319.296,106.292l-69.063-39.19L319.296,106.292z
			 M250.357,145.66l-69.276-39.56L250.357,145.66z M250.357,145.66l-0.002,76.673L250.357,145.66z M250.357,145.66l66.322-37.873
			L250.357,145.66z"/>
		<path id="Triangle_2_" d="M38.825,24.143l211.637,365.971l-0.107-65.135L95.902,57.458L38.825,24.143z M250.461,390.114
			L461.748,24.192l-56.945,33.271L250.354,324.98L250.461,390.114z M461.748,24.192L38.825,24.143l57.077,33.315l308.902,0.005
			L461.748,24.192z"/>
		<path id="Outer_2_" d="M2.5,3.241l66.258,114.792l13.832-3.709L26.708,17.532h111.486l-4.272-14.291H2.5z M250.109,432.099
			l64.843-112.316l-10.267-10.267l-54.414,94.246l-53.278-92.282l-10.619,10.616L250.109,432.099z M497.5,3.241L368.488,3.353
			l-3.791,14.145h108.454l-55.317,95.814l14.009,3.753L497.5,3.241z"/>
	</g>
</g>
<g id="Outline_1_" display="none">
	<path id="Hexa-Right" display="inline" fill="none" stroke="#FF0000" stroke-width="1.9532" d="M254.828,148.129l0.001,69.88
		l59.789-34.522v-69.431L254.828,148.129z"/>
	<path id="Hexa-Left" display="inline" fill="none" stroke="#FF0000" stroke-width="1.9532" d="M245.881,148.127l-60.448-34.485
		l0,69.392l60.448,34.897L245.881,148.127z"/>
	<path id="Hexa-Top" display="inline" fill="none" stroke="#FF0000" stroke-width="1.9532" d="M250.357,140.379l59.254-33.768
		l-59.377-34.285l-59.228,34.194L250.357,140.379z"/>
	<path id="Inner-Top-Left" display="inline" fill="none" stroke="#FF0000" stroke-width="1.9532" d="M105.002,57.459l77.004,43.928
		l63.751-36.808l0-7.119L105.002,57.459z"/>
	<path id="Inner-Top-Right" display="inline" fill="none" stroke="#FF0000" stroke-width="1.9532" d="M395.742,57.521
		l-77.127,43.958L254.706,64.58l0-7.117L395.742,57.521z"/>
	<path id="Inner-Right-Top" display="inline" fill="none" stroke="#FF0000" stroke-width="1.9532" d="M400.334,65.203
		l-76.771,43.751v74.532l6.36,3.673L400.334,65.203z"/>
	<path id="Inner-Right-Bottom" display="inline" fill="none" stroke="#FF0000" stroke-width="1.9532" d="M254.828,317.229
		l-0.001-88.889l64.263-37.104l6.359,3.672L254.828,317.229z"/>
	<path id="Inner-Left-Bottom" display="inline" fill="none" stroke="#FF0000" stroke-width="1.9532" d="M245.881,317.231v-88.969
		l-64.463-37.212l-6.29,3.634L245.881,317.231z"/>
	<path id="Inner-Left-Top" display="inline" fill="none" stroke="#FF0000" stroke-width="1.9532" d="M100.299,65.075l76.186,43.462
		l0,75.03l-5.83,3.366L100.299,65.075z"/>
	<path id="Triangle-Inner" display="inline" fill="none" stroke="#FF0000" stroke-width="1.9532" d="M95.902,57.458L250.354,324.98
		l154.45-267.516L95.902,57.458z"/>
	<path id="Triangle-Outer" display="inline" fill="none" stroke="#FF0000" stroke-width="1.9532" d="M38.824,24.143l211.637,365.97
		L461.748,24.192L38.824,24.143z"/>
	<path id="Outer-TopRight" display="inline" fill="none" stroke="#FF0000" stroke-width="1.9532" d="M497.5,3.343l-129.011,0.01
		l-3.792,14.144l108.454,0.001l-55.317,95.813l14.01,3.753L497.5,3.343z"/>
	<path id="Outer-Bottom" display="inline" fill="none" stroke="#FF0000" stroke-width="1.9532" d="M250.109,432.099l64.844-112.315
		l-10.267-10.267l-54.413,94.245l-53.278-92.281l-10.619,10.615L250.109,432.099z"/>
	<path id="Outer-TopLeft" display="inline" fill="none" stroke="#FF0000" stroke-width="1.9532" d="M2.5,3.27l66.258,114.762
		l13.832-3.709L26.708,17.532h111.486l-4.32-14.291L2.5,3.27z"/>
</g>
</svg>
