<?xml version="1.0" encoding="UTF-8" standalone="no"?>
<svg
   xmlns:dc="http://purl.org/dc/elements/1.1/"
   xmlns:cc="http://creativecommons.org/ns#"
   xmlns:rdf="http://www.w3.org/1999/02/22-rdf-syntax-ns#"
   xmlns:svg="http://www.w3.org/2000/svg"
   xmlns="http://www.w3.org/2000/svg"
   xmlns:sodipodi="http://sodipodi.sourceforge.net/DTD/sodipodi-0.dtd"
   xmlns:inkscape="http://www.inkscape.org/namespaces/inkscape"
   inkscape:version="1.0beta1 (32d4812, 2019-09-19)"
   sodipodi:docname="pcaao_logo.svg"
   width="55.292629mm"
   height="18.457335mm"
   viewBox="0 0 55.292628 18.457334"
   version="1.1"
   id="svg8">
  <sodipodi:namedview
     fit-margin-bottom="0"
     fit-margin-right="0"
     fit-margin-left="0"
     fit-margin-top="0"
     inkscape:document-rotation="0"
     showguides="false"
     inkscape:measure-end="200.494,593.593"
     inkscape:measure-start="200.494,576.77"
     inkscape:snap-center="true"
     inkscape:snap-object-midpoints="true"
     inkscape:snap-midpoints="true"
     inkscape:snap-smooth-nodes="true"
     inkscape:snap-intersection-paths="true"
     inkscape:object-paths="true"
     inkscape:snap-bbox-midpoints="true"
     inkscape:snap-bbox-edge-midpoints="true"
     inkscape:bbox-nodes="true"
     inkscape:bbox-paths="true"
     inkscape:snap-bbox="true"
     id="base"
     pagecolor="#ffffff"
     bordercolor="#666666"
     borderopacity="1.0"
     inkscape:pageopacity="0.0"
     inkscape:pageshadow="2"
     inkscape:zoom="5.7500451"
     inkscape:cx="101.15123"
     inkscape:cy="28.556957"
     inkscape:document-units="mm"
     inkscape:current-layer="layer3"
     showgrid="false"
     inkscape:window-width="1440"
     inkscape:window-height="855"
     inkscape:window-x="0"
     inkscape:window-y="23"
     inkscape:window-maximized="0" />
  <defs
     id="defs2">
    <inkscape:path-effect
       only_selected="false"
       apply_with_weight="true"
       apply_no_weight="true"
       helper_size="0"
       steps="2"
       weight="33.333333"
       is_visible="true"
       id="path-effect861"
       effect="bspline" />
    <inkscape:path-effect
       only_selected="false"
       apply_with_weight="true"
       apply_no_weight="true"
       helper_size="0"
       steps="2"
       weight="33.333333"
       is_visible="true"
       id="path-effect857"
       effect="bspline" />
    <inkscape:path-effect
       only_selected="false"
       apply_with_weight="true"
       apply_no_weight="true"
       helper_size="0"
       steps="2"
       weight="33.333333"
       is_visible="true"
       id="path-effect853"
       effect="bspline" />
    <inkscape:path-effect
       only_selected="false"
       apply_with_weight="true"
       apply_no_weight="true"
       helper_size="0"
       steps="2"
       weight="33.333333"
       is_visible="true"
       id="path-effect835"
       effect="bspline" />
    <inkscape:path-effect
       only_selected="false"
       apply_with_weight="true"
       apply_no_weight="true"
       helper_size="0"
       steps="2"
       weight="33.333333"
       is_visible="true"
       id="path-effect830"
       effect="bspline" />
    <inkscape:path-effect
       only_selected="false"
       apply_with_weight="true"
       apply_no_weight="true"
       helper_size="0"
       steps="2"
       weight="33.333333"
       is_visible="true"
       id="path-effect1517"
       effect="bspline" />
  </defs>
  <metadata
     id="metadata5">
    <rdf:RDF>
      <cc:Work
         rdf:about="">
        <dc:format>image/svg+xml</dc:format>
        <dc:type
           rdf:resource="http://purl.org/dc/dcmitype/StillImage" />
        <dc:title></dc:title>
      </cc:Work>
    </rdf:RDF>
  </metadata>
  <g
     transform="translate(-39.224163,-139.94511)"
     inkscape:label="Layer 2"
     id="layer2"
     inkscape:groupmode="layer">
    <rect
       inkscape:export-ydpi="734.99866"
       inkscape:export-xdpi="734.99866"
       inkscape:export-filename="C:\Users\Ikeath\Desktop\chinese goi4a.png"
       y="139.94511"
       x="39.224163"
       height="18.457335"
       width="27.646313"
       id="rect821"
       style="fill:#dc0000;fill-opacity:1;stroke:none;stroke-width:0.114783;stroke-linecap:round;stroke-linejoin:round;stroke-miterlimit:4;stroke-dasharray:none;stroke-opacity:1" />
    <path
       inkscape:connector-curvature="0"
       id="text826"
       transform="scale(0.26458333)"
       d="m 186.25,533.80664 c -0.2316,0.90748 -0.584,1.72412 -1.05664,2.44727 v -2.03516 h -2.39453 v 4.4375 h 0.50976 v -3.91992 h 1.375 v 3.87695 h 0.50977 v -2.32422 c 0.19851,0.0851 0.36684,0.17192 0.50391,0.26172 0.18905,-0.3403 0.37199,-0.71575 0.54687,-1.12695 h 2.36719 c -0.0142,1.83386 -0.0372,3.15158 -0.0703,3.95508 -0.0284,0.48682 -0.29084,0.73355 -0.78711,0.73828 -0.38285,-0.005 -0.80326,-0.034 -1.26172,-0.0859 0.0473,0.19851 0.0849,0.39297 0.11328,0.58203 0.45846,0.0189 0.8904,0.0293 1.29687,0.0293 0.74206,0 1.1352,-0.38275 1.17774,-1.14844 0.0284,-0.76096 0.0556,-2.29083 0.084,-4.58789 h -2.70703 c 0.12289,-0.30722 0.24008,-0.6304 0.35352,-0.9707 z m 13.91797,0.13086 v 1.24805 h -1.10547 l 0.42383,-0.31055 c -0.17015,-0.3214 -0.40649,-0.57657 -0.70899,-0.76562 l -0.45312,0.36718 c 0.24577,0.18906 0.45485,0.4254 0.625,0.70899 h -1.58984 v 1.44726 h 0.56835 v -0.99219 h 4.99024 v 0.87891 h 0.56836 v -1.33398 h -1.58789 l 0.48047,-0.70899 c 0.17015,0 0.18898,-0.0461 0.0566,-0.14062 l -0.50977,-0.3125 -0.5664,0.8789 0.45312,0.28321 h -1.07812 v -1.07617 c 0.13234,-0.0945 0.1239,-0.15297 -0.0273,-0.17188 z m 5.55859,0 v 1.44727 h -0.45508 l 0.0566,-0.53907 c 0.0945,-0.0567 0.11336,-0.1132 0.0566,-0.16992 l -0.56641,-0.0859 c 0,0.79405 -0.11297,1.52189 -0.33984,2.1836 l 0.53906,0.19922 c 0.11343,-0.34031 0.18875,-0.68962 0.22656,-1.04883 h 0.48242 v 1.73047 l -1.2207,0.33984 0.19922,0.62305 c 0.0756,0.0756 0.12367,0.0483 0.14258,-0.084 l 0.8789,-0.28515 v 2.24218 h 0.56641 v -2.43945 l 0.87891,-0.36914 -0.14063,-0.48242 -0.73828,0.2832 v -1.55859 h 0.79492 v -0.53906 h -0.79492 v -1.27539 c 0.13234,-0.0945 0.1239,-0.15297 -0.0273,-0.17188 z m 7.25977,0 c -0.24578,1.28559 -0.69119,2.36471 -1.33399,3.23438 l 0.39844,0.50976 c 0.20797,-0.20796 0.37743,-0.45274 0.50977,-0.73633 v 3.54492 h 0.5664 v -4.5957 c 0.15125,-0.0756 0.15125,-0.14055 0,-0.19726 0.17016,-0.43484 0.30391,-0.89908 0.39844,-1.39063 0.15125,-0.0189 0.17851,-0.065 0.084,-0.14062 z m 2.49414,0.0293 v 1.41797 h -1.92774 v 0.53906 h 1.78711 c -0.43483,1.03982 -1.11658,1.98517 -2.04296,2.83594 l 0.42578,0.53906 c 0.71842,-0.62389 1.30407,-1.43745 1.75781,-2.43945 v 1.64453 h -0.73633 v 0.53906 h 0.73633 v 1.38867 h 0.56836 v -1.38867 h 0.82226 v -0.53906 h -0.82226 v -1.64453 c 0.39702,0.83185 1.0015,1.65384 1.81445,2.46679 l 0.39649,-0.5664 c -1.05873,-0.98311 -1.73853,-1.92846 -2.04102,-2.83594 h 1.87109 v -0.53906 h -2.04101 v -1.24805 c 0.13234,-0.0945 0.12195,-0.15102 -0.0293,-0.16992 z m 20.92969,0.0293 c -0.6428,1.19107 -1.62582,1.96501 -2.94922,2.32422 l 0.25586,0.68164 c 0.45374,-0.13234 0.93485,-0.37907 1.44531,-0.73828 v 0.56641 h 3.20508 v -0.59375 c 0.52936,0.30249 0.95399,0.49078 1.27539,0.5664 l 0.2832,-0.68164 c -1.32341,-0.3403 -2.28759,-0.96361 -2.89258,-1.87109 0.13234,-0.0945 0.12391,-0.15102 -0.0273,-0.16992 z m -28.5293,0.0274 c -0.15125,1.05872 -0.55705,1.99369 -1.21875,2.80664 l 0.48242,0.3418 c 0.3214,-0.35922 0.58501,-0.79424 0.79297,-1.30469 h 0.45508 c -0.11344,0.9831 -0.64456,1.84275 -1.58985,2.58008 l 0.39844,0.48242 c 1.07763,-0.88858 1.65289,-1.90925 1.72852,-3.0625 h 0.45508 c -0.13235,1.68261 -0.89785,3.04416 -2.29688,4.08398 l 0.36719,0.50977 c 1.66371,-1.39903 2.48765,-2.93004 2.46875,-4.59375 h 0.31055 l -0.0273,2.94922 c 0,0.62389 -0.17141,0.91671 -0.51172,0.8789 h -0.70898 l 0.11523,0.62305 h 0.82227 c 0.56717,0 0.84961,-0.49995 0.84961,-1.50195 l 0.0293,-3.48829 h -2.66601 c 0.11343,-0.37811 0.19914,-0.72742 0.25586,-1.04882 0.13234,-0.0189 0.15961,-0.067 0.084,-0.14258 z m 16.30664,0 c -1.24778,0.20796 -2.70348,0.3125 -4.36719,0.3125 l 0.11328,0.48242 c 0.66171,0 1.32268,-0.0104 1.98438,-0.0293 v 0.48242 h -2.58008 v 0.53907 h 2.32617 c -0.6617,0.54827 -1.54213,0.89758 -2.63867,1.04883 l 0.19922,0.5957 c 1.11544,-0.20797 2.01275,-0.64299 2.69336,-1.30469 v 0.93555 h 0.56836 v -0.96485 c 0.69951,0.6239 1.57799,1.05892 2.63672,1.30469 l 0.19922,-0.5664 c -1.09654,-0.24578 -1.96658,-0.59509 -2.60938,-1.04883 h 2.38281 v -0.53907 h -2.60937 v -0.53906 c 0.49155,-0.0189 1.06876,-0.067 1.73047,-0.14258 0.22687,0.0945 0.30218,0.0757 0.22656,-0.0566 z m -44.86328,0.0566 c -0.24578,1.39903 -0.6808,2.45736 -1.30469,3.17578 l 0.39649,0.36914 c 0.13234,-0.13234 0.30375,-0.36868 0.51171,-0.70898 0.17016,0.64279 0.4065,1.20118 0.70899,1.67382 -0.34031,0.45374 -0.86947,0.83032 -1.58789,1.13282 l 0.31055,0.51172 c 0.62389,-0.26469 1.16344,-0.66205 1.61718,-1.19141 0.45374,0.45374 0.97252,0.82188 1.5586,1.10547 l 0.3125,-0.56641 c -0.60499,-0.26468 -1.11533,-0.60556 -1.53125,-1.02148 0.39702,-0.62389 0.67102,-1.40823 0.82226,-2.35352 h 0.68164 v -0.53906 h -2.35351 c 0.15124,-0.52936 0.26422,-0.96438 0.33984,-1.30469 0.20796,-0.0756 0.19757,-0.14055 -0.0293,-0.19726 z m 47.78516,0.0391 v 2.20508 h 0.5664 v -0.26172 h 3.62891 v 0.26172 h 0.56836 v -2.20508 z m -49.79883,0.0176 v 3.77148 l -0.76563,0.25586 v -3.17578 c 0.13234,-0.0945 0.12195,-0.15101 -0.0293,-0.16992 h -0.5371 v 3.51562 l -0.56836,0.16993 0.2832,0.56836 c 0.0756,0.15124 0.1425,0.13046 0.19922,-0.0586 l 1.41797,-0.50976 v 1.78711 h 0.5664 v -5.98438 c 0.13234,-0.0945 0.12391,-0.15102 -0.0273,-0.16992 z m -13.55469,0.1132 v 1.47461 c 0,1.89058 -0.89926,3.18525 -2.69531,3.88477 l 0.42578,0.625 c 1.39903,-0.6428 2.29634,-1.67387 2.69336,-3.0918 0.54827,1.49356 1.47479,2.52462 2.77929,3.0918 l 0.3418,-0.70899 c -1.79605,-0.77514 -2.76024,-2.06981 -2.89258,-3.88477 v -1.16406 c 0.17016,-0.11343 0.15976,-0.18875 -0.0293,-0.22656 z m 5.33008,0.0293 v 5.21679 l -0.65235,0.11329 0.19922,0.76562 c 0.0756,0.0756 0.12367,0.038 0.14258,-0.11328 l 3.00586,-0.84961 -0.0859,-0.53906 -2.04101,0.50976 v -1.78515 h 1.84179 c 0.28359,1.15325 0.85237,1.98368 1.70313,2.49414 0.73733,0.45374 1.18078,0.34076 1.33203,-0.33985 l 0.11328,-0.53906 -0.62305,-0.22656 -0.0566,0.36914 c -0.0378,0.26468 -0.18,0.32961 -0.42578,0.19726 -0.68061,-0.35921 -1.16368,-1.00978 -1.44726,-1.95507 h 2.43945 v -0.53907 h -2.55273 c -0.0378,-0.30249 -0.0755,-0.58688 -0.11329,-0.85156 h 1.33399 v 0.16992 h 0.5664 v -2.09765 z m 21.66601,0.0273 v 0.53906 h 3.80078 v 0.59571 h -3.60156 v 1.5039 c 0,0.3214 0.16946,0.48047 0.50977,0.48047 h 3.80078 c 0.30249,0 0.49078,-0.11297 0.5664,-0.33984 l 0.22852,-0.70899 -0.65234,-0.16992 -0.14258,0.50977 c -0.0378,0.11343 -0.13196,0.17187 -0.2832,0.17187 h -3.26172 c -0.13234,0 -0.19922,-0.0773 -0.19922,-0.22851 v -0.67969 h 3.03515 v 0.19922 h 0.56641 v -1.87305 z m 45.94141,0.2832 c 0.41593,0.71842 0.95548,1.25798 1.61719,1.61719 h -3.0625 c 0.54827,-0.39702 1.02938,-0.93658 1.44531,-1.61719 z m -9.01758,0.0254 h 3.62891 v 0.95118 h -3.62891 z m -58.02148,0.20313 h 3.54492 v 0.84961 h -3.54492 z m 14.08593,0.53516 v 1.63086 c 0,0.97364 -0.0868,1.66188 -0.26171,2.06835 -0.17961,0.46792 -0.54662,0.90912 -1.09961,1.32032 0.14652,0.14179 0.27297,0.28512 0.37695,0.43164 0.64752,-0.56245 1.05641,-1.11353 1.22656,-1.65235 0.40175,0.44429 0.76989,0.8824 1.10547,1.3125 l 0.44727,-0.37695 c -0.36394,-0.4112 -0.78744,-0.86618 -1.26954,-1.36719 l -0.20507,0.19141 c 0.12761,-0.50573 0.1914,-1.21783 0.1914,-2.13477 v -1.42382 z m 2.73047,0.58789 c -0.23159,0.88384 -0.47832,1.63896 -0.73828,2.26757 -0.0803,0.17961 -0.20176,0.3218 -0.36719,0.42579 l 0.21875,0.46093 c 0.21269,-0.052 0.4229,-0.0897 0.63086,-0.11328 0.39703,-0.0473 0.84666,-0.088 1.34766,-0.12109 0.0331,0.14652 0.0677,0.2918 0.10547,0.43359 l 0.5332,-0.15625 c -0.20324,-0.74678 -0.41539,-1.46001 -0.63281,-2.14062 l -0.48828,0.14062 c 0.12761,0.42538 0.24789,0.84579 0.36133,1.26172 -0.44902,0.0331 -0.87365,0.0623 -1.27539,0.0859 0.27886,-0.73733 0.56016,-1.54358 0.84375,-2.41797 z m 12.22266,0.12304 v 1.56055 h 0.73633 0.73828 v 0.45312 h -2.18359 v 1.92969 h 0.5664 v -1.39062 h 1.61719 v 1.75781 h 0.56641 v -1.75781 h 1.73046 v 0.76562 c 0,0.0756 -0.0377,0.11328 -0.11328,0.11328 h -0.56836 l 0.11524,0.53907 h 0.73633 c 0.26468,0 0.39648,-0.13181 0.39648,-0.39649 v -1.56055 h -2.29687 V 537.625 h 1.41796 v -1.56055 z M 169.6543,536.207 h 1.61523 l 0.11328,0.85156 h -1.72851 z m 9.69726,0 h 1.24805 c -0.0945,0.71842 -0.30165,1.35212 -0.62305,1.90039 -0.3214,-0.51045 -0.53047,-1.14416 -0.625,-1.90039 z m 19.90821,0.3125 h 2.32617 v 0.65235 h -2.32617 z m 27.45898,0.20899 v 2.63086 h 0.56641 v -2.13477 h 4.41796 v 2.0918 h 0.56641 v -2.58789 z m -4.82813,0.4707 c -0.0756,0.15125 -0.20742,0.36876 -0.39648,0.65234 h -2.18359 v 0.53906 h 1.87109 c -0.26468,0.34031 -0.49258,0.60587 -0.68164,0.79493 l 0.42578,0.2832 c 0.0756,-0.0567 0.16133,-0.14242 0.25586,-0.25586 0.34031,0.11344 0.63313,0.19914 0.87891,0.25586 -0.60499,0.28359 -1.46464,0.41539 -2.58008,0.39648 l 0.14062,0.625 c 1.38013,-0.0567 2.4008,-0.32227 3.0625,-0.79492 0.6239,0.20797 1.26799,0.48196 1.92969,0.82227 l 0.33984,-0.56641 c -0.6617,-0.26468 -1.26618,-0.48219 -1.81445,-0.65234 0.20797,-0.17015 0.46313,-0.47337 0.76563,-0.90821 h 1.21875 v -0.53906 h -3.0625 c 0.0756,-0.0945 0.1425,-0.18867 0.19922,-0.2832 0.17015,-0.0378 0.19741,-0.0859 0.084,-0.14258 z m 7.27344,0.23828 c 0.005,0.25523 -0.003,0.51462 -0.0215,0.7793 -0.0284,0.51518 -0.1863,0.90524 -0.47461,1.16992 -0.43011,0.42538 -1.30859,0.74012 -2.63672,0.94336 0.12761,0.1607 0.2302,0.34055 0.31055,0.53906 1.3045,-0.20796 2.23103,-0.56767 2.77929,-1.07812 0.13234,-0.12762 0.2411,-0.27712 0.32618,-0.44727 1.21942,0.51518 2.29123,1.01286 3.21289,1.49023 l 0.31836,-0.5332 c -1.20998,-0.56245 -2.32479,-1.04356 -3.34571,-1.44531 0.0425,-0.17961 0.0698,-0.3752 0.084,-0.58789 0.0189,-0.29777 0.0262,-0.57485 0.0215,-0.83008 z m 4.66602,0.0449 v 0.625 h 2.04101 l -0.79297,1.44531 -1.16406,0.0566 0.19922,0.70898 c 0.0756,0.0567 0.16133,0.0379 0.25586,-0.0566 l 4.11133,-0.45313 c 0.20796,0.18906 0.38781,0.38774 0.53906,0.59571 l 0.5957,-0.36914 c -0.3403,-0.45374 -0.96556,-1.02057 -1.87304,-1.70118 l -0.50977,0.33985 c 0.30249,0.22687 0.57649,0.45477 0.82227,0.68164 l -2.32422,0.16992 0.84961,-1.41797 h 3.0625 v -0.625 z m -41.85742,0.28516 v 0.50976 h -1.84375 v 0.53907 h 1.84375 c 0,0.64279 -0.52917,1.04016 -1.58789,1.1914 l 0.2539,0.53907 c 1.26669,-0.22687 1.90039,-0.80409 1.90039,-1.73047 h 1.47461 v 1.64453 h 0.56641 v -1.64453 h 1.70312 v -0.53907 h -1.70312 v -0.33984 c 0.13234,-0.0945 0.1239,-0.15102 -0.0274,-0.16992 h -0.53906 v 0.50976 h -1.47461 v -0.33984 c 0.13234,-0.0945 0.12391,-0.15102 -0.0273,-0.16992 z m 29.80468,0.62304 h 1.47461 c -0.22687,0.3214 -0.45477,0.56813 -0.68164,0.73829 -0.39702,-0.11344 -0.76516,-0.21797 -1.10547,-0.3125 0.11344,-0.13234 0.21797,-0.27454 0.3125,-0.42579 z m -21.28711,5.13672 -1.19921,3.45899 -4.51172,13.03515 -17.42383,0.36329 13.88672,10.55273 -5.04883,16.70703 14.29687,-9.97656 14.29883,9.97656 -5.03711,-16.70703 13.87305,-10.55273 -17.41016,-0.36329 z m 0,7.7461 3.90039,11.2539 11.88672,0.25 -9.47461,7.19532 3.4375,11.40429 -9.75,-6.80468 -9.74804,6.80468 3.4375,-11.40429 -9.46289,-7.19532 11.875,-0.25 z m 1.5586,10.52539 -0.39844,0.082 -0.95117,0.19141 0.008,0.29492 c 0.13538,3.15919 1.11316,5.46921 2.9668,6.80664 l 0.33203,0.23633 0.75391,-1.5 -0.25977,-0.17578 c -1.45566,-0.98412 -2.2764,-2.7837 -2.42773,-5.5293 z m -3.35742,0.10351 -0.0371,0.38282 c -0.28279,2.80599 -1.046,4.68466 -2.20118,5.67773 l -0.24218,0.19922 0.89258,1.30664 0.29492,-0.24414 c 1.45883,-1.20412 2.2616,-3.39228 2.57617,-6.35547 0.0565,-0.0302 0.11013,-0.007 0.16406,-0.0957 0.0648,-0.1081 0.0639,-0.2659 0.0293,-0.35547 -0.0344,-0.0899 -0.0842,-0.13307 -0.12695,-0.17578 l -0.0723,-0.0742 z m -2.04493,8.32618 v 1.43164 h 7.69922 v -1.43164 h -0.35547 z"
       style="font-style:normal;font-variant:normal;font-weight:normal;font-stretch:normal;font-size:1.92083px;line-height:1.25;font-family:sans-serif;-inkscape-font-specification:'sans-serif, Normal';font-variant-ligatures:normal;font-variant-caps:normal;font-variant-numeric:normal;font-feature-settings:normal;text-align:start;letter-spacing:0px;word-spacing:0px;writing-mode:lr-tb;text-anchor:start;fill:#ffff00;fill-opacity:1;stroke:none;stroke-width:0.181496;stroke-opacity:1" />
  </g>
  <g
     transform="translate(-39.224163,-139.94511)"
     style="display:inline"
     inkscape:label="Layer 1"
     inkscape:groupmode="layer"
     id="layer1" />
  <g
     transform="translate(-39.224163,-139.94511)"
     inkscape:label="Layer 3"
     id="layer3"
     inkscape:groupmode="layer">
    <rect
       inkscape:export-ydpi="229.68701"
       inkscape:export-xdpi="229.68701"
       inkscape:export-filename="C:\Users\Ikeath\Desktop\PCAAO-header.png"
       y="139.94511"
       x="66.870476"
       height="18.457335"
       width="27.646317"
       id="rect821-5"
       style="fill:#dc0000;fill-opacity:1;stroke:none;stroke-width:0.114783;stroke-linecap:round;stroke-linejoin:round;stroke-miterlimit:4;stroke-dasharray:none;stroke-opacity:1" />
    <path
       inkscape:export-ydpi="207.47995"
       inkscape:export-xdpi="207.47995"
       inkscape:export-filename="C:\Users\Ikeath\Desktop\PCAAO-header.png"
       id="path1599-8"
       d="m 80.69269,143.80827 -0.317291,0.91519 -1.193726,3.44889 -4.610055,0.0961 3.674195,2.79207 -1.335837,4.42041 3.782714,-2.63963 3.783232,2.63963 -1.332735,-4.42041 3.670577,-2.79207 -4.606438,-0.0961 z m 0,2.04949 1.031978,2.9776 3.145028,0.0661 -2.506824,1.90376 0.909505,3.01739 -2.579687,-1.80041 -2.579169,1.80041 0.909505,-3.01739 -2.503723,-1.90376 3.141927,-0.0661 z m 0.412379,2.78485 -0.10542,0.0217 -0.251664,0.0506 0.0021,0.078 c 0.03582,0.83587 0.294523,1.44706 0.784966,1.80092 l 0.08785,0.0625 0.199472,-0.39688 -0.06873,-0.0465 c -0.385128,-0.26038 -0.602282,-0.73652 -0.642321,-1.46296 z m -0.888317,0.0274 -0.0098,0.10129 c -0.07482,0.74242 -0.276754,1.23948 -0.582396,1.50223 l -0.06408,0.0527 0.236161,0.34572 0.07803,-0.0646 c 0.385982,-0.31859 0.598382,-0.89754 0.681612,-1.68155 0.01495,-0.008 0.02914,-0.002 0.04341,-0.0253 0.01714,-0.0286 0.01691,-0.0704 0.0078,-0.0941 -0.0091,-0.0238 -0.02228,-0.0352 -0.03359,-0.0465 l -0.01913,-0.0196 z m -0.541054,2.20297 v 0.37879 h 2.037085 v -0.37879 h -0.09405 z"
       style="color:#000000;font-style:normal;font-variant:normal;font-weight:normal;font-stretch:normal;font-size:medium;line-height:normal;font-family:sans-serif;font-variant-ligatures:normal;font-variant-position:normal;font-variant-caps:normal;font-variant-numeric:normal;font-variant-alternates:normal;font-feature-settings:normal;text-indent:0;text-align:start;text-decoration:none;text-decoration-line:none;text-decoration-style:solid;text-decoration-color:#000000;letter-spacing:normal;word-spacing:normal;text-transform:none;writing-mode:lr-tb;direction:ltr;text-orientation:mixed;dominant-baseline:auto;baseline-shift:baseline;text-anchor:start;white-space:normal;shape-padding:0;clip-rule:nonzero;display:inline;overflow:visible;visibility:visible;opacity:1;isolation:auto;mix-blend-mode:normal;color-interpolation:sRGB;color-interpolation-filters:linearRGB;solid-color:#000000;solid-opacity:1;vector-effect:none;fill:#ffff00;fill-opacity:1;fill-rule:nonzero;stroke:none;stroke-width:0.672264;stroke-linecap:square;stroke-linejoin:miter;stroke-miterlimit:4;stroke-dasharray:none;stroke-dashoffset:0;stroke-opacity:1;color-rendering:auto;image-rendering:auto;shape-rendering:auto;text-rendering:auto;enable-background:accumulate"
       inkscape:connector-curvature="0" />
  </g>
</svg>
