<?xml version="1.0" encoding="UTF-8" standalone="no"?>
<svg
   xmlns:dc="http://purl.org/dc/elements/1.1/"
   xmlns:cc="http://creativecommons.org/ns#"
   xmlns:rdf="http://www.w3.org/1999/02/22-rdf-syntax-ns#"
   xmlns:svg="http://www.w3.org/2000/svg"
   xmlns="http://www.w3.org/2000/svg"
   xmlns:sodipodi="http://sodipodi.sourceforge.net/DTD/sodipodi-0.dtd"
   xmlns:inkscape="http://www.inkscape.org/namespaces/inkscape"
   inkscape:version="1.0beta1 (32d4812, 2019-09-19)"
   sodipodi:docname="nucorp-logo.svg"
   id="svg45"
   version="1.1"
   viewBox="0 0 592.21739 435.33002"
   height="435.33002pt"
   width="592.21741pt">
  <metadata
     id="metadata49">
    <rdf:RDF>
      <cc:Work
         rdf:about="">
        <dc:format>image/svg+xml</dc:format>
        <dc:type
           rdf:resource="http://purl.org/dc/dcmitype/StillImage" />
        <dc:title></dc:title>
      </cc:Work>
    </rdf:RDF>
  </metadata>
  <sodipodi:namedview
     fit-margin-bottom="0"
     fit-margin-right="0"
     fit-margin-left="0"
     fit-margin-top="0"
     inkscape:document-rotation="0"
     inkscape:current-layer="layer1"
     inkscape:window-maximized="0"
     inkscape:window-y="23"
     inkscape:window-x="0"
     inkscape:cy="457.33115"
     inkscape:cx="295.73942"
     inkscape:zoom="0.35"
     inkscape:measure-end="895.099,673.576"
     inkscape:measure-start="508.513,489.205"
     inkscape:snap-center="true"
     inkscape:snap-object-midpoints="true"
     inkscape:snap-midpoints="true"
     inkscape:snap-smooth-nodes="true"
     inkscape:snap-intersection-paths="true"
     inkscape:object-paths="true"
     inkscape:snap-bbox-midpoints="true"
     inkscape:snap-bbox-edge-midpoints="true"
     inkscape:bbox-nodes="true"
     inkscape:bbox-paths="true"
     inkscape:snap-bbox="true"
     showguides="true"
     showgrid="false"
     id="namedview47"
     inkscape:window-height="855"
     inkscape:window-width="1440"
     inkscape:pageshadow="2"
     inkscape:pageopacity="0"
     guidetolerance="10"
     gridtolerance="10"
     objecttolerance="10"
     borderopacity="1"
     bordercolor="#666666"
     pagecolor="#ffffff" />
  <defs
     id="defs2" />
  <rect
     inkscape:export-ydpi="36.339958"
     inkscape:export-xdpi="36.339958"
     ry="4.4446263"
     y="-4.7942731e-06"
     x="-1.0848114"
     height="435.33002"
     width="594.38702"
     id="rect1631"
     style="opacity:0.95;fill:#ffffff;fill-opacity:0;fill-rule:evenodd;stroke:none;stroke-width:4.82948;stroke-linecap:square;stroke-linejoin:miter;stroke-miterlimit:4;stroke-dasharray:none;stroke-opacity:1" />
  <g
     transform="translate(-78.19543,-77.001637)"
     inkscape:label="Layer 1"
     id="layer1"
     inkscape:groupmode="layer">
    <path
       inkscape:export-ydpi="36.473091"
       inkscape:export-xdpi="36.473091"
       inkscape:transform-center-y="44.097807"
       inkscape:transform-center-x="1.501491"
       inkscape:connector-curvature="0"
       id="shape0-5-3"
       d="m 171.44701,122.21536 86.39616,206.75934 43.88466,12.78032 z m 308.65842,25.50016 c -14.7399,6.76811 -20.0123,21.49282 -14.244,34.05527 5.7427,12.50661 20.3466,18.10465 35.0865,11.33654 8.0959,-3.71736 13.3001,-9.75656 15.455,-16.69521 2.1996,0.81532 3.4609,-0.71032 2.681,-1.23107 l -1.7324,-0.82768 c -0.9987,-0.55552 -2.2162,-1.14543 -3.2406,-1.75675 -0.9987,-0.55549 -2.0696,-1.41577 -3.0683,-1.97126 -0.5658,-0.34864 -1.1318,-0.69813 -1.6417,-1.07243 -0.9686,-0.63696 -1.4484,1.41001 0.226,3.14256 -0.7498,6.0231 -4.8384,11.54964 -11.3709,14.54916 -10.3291,4.74278 -20.7969,0.49084 -25.0783,-8.83329 -4.3069,-9.37996 -0.7094,-20.09039 9.6197,-24.83317 6.1975,-2.84569 12.3727,-2.50341 17.2802,0.38115 0.2228,2.39909 2.0876,3.36786 2.2356,2.21821 0.048,-0.63069 0.1781,-1.23187 0.2822,-1.88816 0.2297,-1.1195 0.2752,-2.49246 0.4791,-3.66777 0.2296,-1.11951 0.464,-2.37602 0.7494,-3.52115 l 0.5309,-1.93304 c 0.032,-0.96117 -1.9202,-0.94359 -2.7356,1.25614 -6.4361,-2.38555 -13.8646,-2.22033 -21.5138,1.29195 z m 20.8425,45.39181 -125.1423,57.4615 -32.2114,79.88807 c 1.5345,-0.48563 3.526,-1.11145 6.0111,-1.89129 5.3225,-1.67031 12.4134,-3.88986 19.504,-6.10421 13.982,-4.36658 27.5698,-8.59678 27.9591,-8.71799 l 0.3954,-0.12514 1.6252,0.60456 57.1,91.75366 99.5871,-49.10747 0.9325,-0.11387 9.2017,2.02415 104.5025,-239.29412 -2.6862,-2.95748 -116.7249,53.59652 z m 50.0537,-22.98314 c 14.6841,-6.74248 20.0123,-21.49274 14.2697,-33.99935 -5.7683,-12.56245 -20.4281,-18.13493 -35.1122,-11.39245 -14.7399,6.76811 -20.0122,21.49282 -14.2439,34.05526 5.7426,12.50662 20.3465,18.10466 35.0864,11.33654 z m -194.9721,36.11863 c -0.9492,0.43584 0.3183,2.01613 2.5893,1.51421 l 17.741,38.63721 c -1.9165,1.42085 -1.4324,3.36087 -0.5391,2.9507 0.5583,-0.25638 1.1178,-0.51337 1.7063,-0.85118 1.0353,-0.54299 2.1818,-1.13563 3.2426,-1.62272 1.0609,-0.48709 2.315,-0.99676 3.4014,-1.42803 0.6398,-0.22617 1.198,-0.48238 1.8122,-0.76439 0.9492,-0.43587 -0.2626,-2.04173 -2.6452,-1.48854 l -15.3052,-33.33232 41.2747,22.01559 c -0.7531,1.15709 -0.377,2.26859 0.3487,1.93535 0.7816,-0.3589 1.5637,-0.7181 2.264,-1.10727 1.2586,-0.64549 2.6851,-1.36669 3.7459,-1.85378 1.0608,-0.4871 2.3696,-1.02184 3.456,-1.4531 0.6397,-0.22611 1.3098,-0.53371 1.924,-0.81575 0.8933,-0.41017 -0.1038,-1.8441 -2.3399,-1.56101 l -17.7667,-38.69312 c 1.9723,-1.44646 1.5442,-3.41219 0.595,-2.97633 l -1.7358,0.93079 c -1.0352,0.54293 -2.2642,1.10734 -3.325,1.59443 -1.0608,0.4871 -2.2326,1.02506 -3.319,1.45633 l -1.8386,0.71043 c -0.8933,0.41017 0.3183,2.01613 2.6452,1.48854 l 13.8956,30.26254 -37.465,-20.04791 c 0.7276,-1.21292 0.3225,-2.24352 -0.4032,-1.91028 l -2.629,1.34093 c -1.4819,0.74805 -3.2134,1.54317 -4.2742,2.03026 -1.0608,0.4871 -2.7351,1.25581 -4.2682,1.89216 z m 49.9446,-22.93302 c -0.9492,0.43586 0.2625,2.04176 2.5892,1.51423 l 10.6652,23.22706 c 2.3073,5.02498 5.3366,11.47665 13.7154,12.49689 7.1426,0.97943 24.1621,-6.56536 29.2094,-13.68285 4.8147,-6.7403 3.0269,-11.66567 0.3863,-17.41648 l -11.1524,-24.28804 c 1.9723,-1.44642 1.5428,-3.41153 0.5937,-2.97573 l -1.8476,0.98215 c -1.0352,0.54293 -2.3746,1.15807 -3.4354,1.64516 -1.0611,0.48719 -2.2899,1.05135 -3.3764,1.48261 l -1.8931,0.73548 c -0.9492,0.43586 0.2611,2.04238 2.5879,1.51486 l 10.3833,22.61336 c 1.8972,4.13165 4.5115,8.20307 0.4198,13.86772 -3.055,4.24216 -13.0541,8.96848 -18.4208,8.32287 -6.3837,-0.65184 -7.7496,-4.21541 -9.8518,-8.79372 l -10.6138,-23.11524 c 1.9165,-1.42085 1.5986,-3.43716 0.5936,-2.97573 l -1.8476,0.98215 c -1.0351,0.54293 -2.3746,1.15807 -3.4354,1.64516 -1.0609,0.48713 -2.2899,1.05135 -3.3764,1.48261 z m 153.432,-70.45124 c -0.9491,0.4358 0.3183,2.01613 2.5892,1.51424 l 17.741,38.63721 c -1.9165,1.42086 -1.4324,3.36087 -0.5391,2.95067 0.6143,-0.28204 1.2283,-0.56407 1.8167,-0.90188 1.0352,-0.54293 2.2391,-1.16192 3.3,-1.64901 1.061,-0.48719 2.4253,-1.04746 3.5119,-1.47879 0.6397,-0.22611 1.3097,-0.53368 1.924,-0.81572 1.0049,-0.46143 -0.3171,-2.01669 -2.6439,-1.48917 l -7.7684,-16.91842 11.6136,-5.33259 19.9813,11.7152 c -1.0882,1.31092 -0.6355,2.59037 0.202,2.2058 0.6142,-0.28201 1.2283,-0.56406 1.8168,-0.90191 1.0352,-0.54292 2.2377,-1.16129 3.2986,-1.64838 1.0608,-0.48709 2.6495,-1.1504 4.071,-1.73551 0.863,-0.32867 1.7015,-0.71357 2.539,-1.09814 0.9491,-0.4358 -0.2632,-2.04201 -3.972,-1.28549 l -19.4359,-11.55947 c 6.1222,-3.89282 10.1713,-9.94438 6.6847,-17.53768 -3.6917,-8.039969 -12.114,-8.565819 -20.0423,-4.92538 z m 48.0915,-22.082139 c -0.9493,0.43586 0.3171,2.01669 2.5879,1.51483 l 17.741,38.637209 c -1.9165,1.42085 -1.4312,3.3603 -0.5378,2.95007 0.6141,-0.28194 1.2283,-0.56406 1.8168,-0.90187 1.0353,-0.543 2.2391,-1.16192 3.2999,-1.64901 1.0608,-0.4871 2.4255,-1.04753 3.5119,-1.4788 0.6398,-0.22614 1.3097,-0.53367 1.924,-0.81572 1.0049,-0.46143 -0.3184,-2.01609 -2.6452,-1.48857 l -7.7684,-16.91842 14.1256,-6.48601 c 8.3191,-3.81989 15.6109,-10.615739 11.2783,-20.051529 -3.6917,-8.03997 -12.1139,-8.56584 -20.0423,-4.92538 z m -74.6465,39.818639 c 10.2733,-4.71718 20.7436,-0.46628 25.0506,8.91368 4.2813,9.32412 0.6813,20.0356 -9.592,24.75278 -10.3291,4.74278 -20.7995,0.49206 -25.0809,-8.83207 -4.307,-9.37996 -0.7068,-20.09161 9.6223,-24.83439 z m 38.1293,-16.08776 14.8511,-6.81915 c 5.36,-2.46113 10.661,-3.13846 12.7889,1.49568 2.3585,5.13665 -2.2346,8.53096 -7.4271,10.9152 l -14.5728,6.6914 z m 48.0903,-22.081549 13.4,-6.15286 c 5.4157,-2.48676 10.7168,-3.16412 12.8447,1.47002 2.3586,5.13665 -2.3463,8.58229 -7.4829,10.94086 l -13.1218,6.025109 z M 516.38683,196.0603 c 3.4131,-1.56716 7.6973,-1.86805 9.8051,-1.8571 0.3885,-1.04843 1.3515,-1.16352 1.3045,-0.63443 l -0.1248,1.07276 c -0.1094,0.63028 -0.1628,1.37984 -0.1961,1.93892 l -0.1143,1.64663 -0.024,0.73658 c -0.02,0.58897 -0.964,0.18901 -1.1919,-0.93886 -2.6642,-0.11797 -5.7462,0.35442 -8.1413,1.45416 -3.473,1.59473 -5.3358,4.40801 -4.401,6.44385 2.3507,5.11956 17.4598,-7.29151 21.6664,1.8698 2.282,4.96987 -1.4787,9.48793 -7.706,12.34727 -5.1794,2.37826 -8.7324,2.37819 -10.4193,2.57275 -0.2576,1.09706 -1.2963,1.28407 -1.2354,0.78486 l 0.051,-1.07587 c 0.01,-0.61897 0.045,-1.39845 0.021,-2.00368 l -0.033,-1.65154 c -0.01,-0.25082 -0.043,-0.48814 -0.035,-0.70908 0.017,-0.51538 0.9553,-0.36633 1.2843,0.82394 2.2848,0.002 5.7436,-0.28071 9.456,-1.98535 2.8741,-1.3197 5.8943,-4.37459 4.7121,-6.94933 -2.6944,-5.86803 -17.4867,7.2329 -21.7208,-1.98828 -2.3782,-5.17944 2.822,-9.95964 7.0434,-11.898 z m 107.4172,-49.32269 c 3.4129,-1.56709 7.6975,-1.86811 9.8051,-1.85706 0.3886,-1.0485 1.3513,-1.16349 1.3044,-0.63443 l -0.1234,1.07217 c -0.1093,0.63021 -0.1641,1.38042 -0.1974,1.93948 l -0.1144,1.64665 -0.024,0.73659 c -0.019,0.58897 -0.964,0.18904 -1.1919,-0.93886 -2.6642,-0.11797 -5.7461,0.35438 -8.1412,1.45416 -3.4729,1.59464 -5.3359,4.40801 -4.4011,6.44385 2.3508,5.11955 17.4612,-7.29214 21.6678,1.86918 2.282,4.96986 -1.4801,9.48855 -7.7073,12.34789 -5.1795,2.37826 -8.7324,2.37815 -10.4194,2.57275 -0.2575,1.09703 -1.2947,1.28338 -1.2341,0.78427 l 0.05,-1.07528 c 0.01,-0.61898 0.047,-1.39908 0.023,-2.00431 l -0.034,-1.65094 c -0.01,-0.25082 -0.043,-0.48811 -0.035,-0.70905 0.017,-0.51539 0.9565,-0.36693 1.2855,0.82334 2.2849,0.002 5.7437,-0.28077 9.456,-1.98535 2.8743,-1.31976 5.8945,-4.37462 4.7122,-6.94936 -2.6944,-5.86803 -17.488,7.2335 -21.7221,-1.98769 -2.3782,-5.17943 2.8219,-9.95961 7.0434,-11.898 z m -94.7063,43.6313 c 0.2084,-0.11904 0.6389,-0.0809 1.0438,0.20902 l 21.1371,-9.70551 c 0.07,-0.79365 0.6447,-1.20246 0.8209,-0.73961 l 0.2426,0.68649 c 0.1487,0.40298 0.3817,0.91225 0.6429,1.48109 0.2612,0.56884 0.4818,1.04755 0.6768,1.39301 l 0.335,0.57151 c 0.2062,0.44909 -0.7617,0.71105 -1.4823,-0.22686 l -8.4425,3.87656 8.6474,18.83271 c 1.2775,-0.29658 1.9263,0.56455 1.4174,0.79824 -0.3293,0.15123 -0.6887,0.31702 -1.0318,0.43829 -0.5826,0.23128 -1.3145,0.53102 -1.8833,0.79219 -0.5687,0.26117 -1.2436,0.60737 -1.7989,0.89856 -0.3156,0.18114 -0.645,0.33166 -0.9743,0.48285 -0.4491,0.20621 -0.7092,-0.83344 0.3184,-1.59529 l -8.6474,-18.83272 -8.3826,3.84906 c 0.2415,1.15786 -0.6172,1.73463 -0.8234,1.28555 -0.083,-0.17963 -0.1795,-0.38917 -0.2457,-0.61251 -0.135,-0.37304 -0.3236,-0.86642 -0.5848,-1.43526 -0.2612,-0.56884 -0.5262,-1.0634 -0.7349,-1.43883 -0.1262,-0.19581 -0.2357,-0.43593 -0.3319,-0.6455 -0.088,-0.1634 -0.043,-0.2916 0.082,-0.36304 z m 81.3733,-37.36411 c 0.1302,-0.0457 0.2527,0.006 0.3192,0.17906 l 0.2426,0.68649 c 0.1487,0.40298 0.3817,0.91225 0.6429,1.48109 0.2612,0.56883 0.4817,1.04754 0.6767,1.39301 l 0.3351,0.57151 c 0.2062,0.44908 -0.7615,0.71096 -1.4823,-0.22687 l -17.0942,7.84912 2.791,6.07833 15.8974,-7.29958 c -0.283,-1.24762 0.6055,-1.83728 0.8117,-1.3882 l 0.2976,0.8063 c 0.1762,0.46286 0.4381,1.03143 0.6993,1.60027 0.2612,0.56883 0.5492,1.19795 0.7854,1.63326 l 0.4176,0.75122 c 0.2474,0.5389 -0.8341,0.70797 -1.596,-0.31975 l -15.8973,7.29958 3.588,7.81424 17.2739,-7.93161 c -0.2554,-1.18778 0.6036,-1.76393 0.8098,-1.31484 l 0.2151,0.62659 c 0.135,0.37304 0.325,0.86579 0.5862,1.43463 0.2611,0.56884 0.5389,1.09465 0.7476,1.47009 l 0.3485,0.60079 c 0.2362,0.43531 -0.4773,0.61774 -1.1253,0.15402 l -22.2446,10.21404 c -0.509,0.23372 -0.7385,-0.81999 0.2892,-1.58186 l -9.513,-20.71772 c -1.2177,0.26911 -1.8978,-0.57928 -1.3888,-0.813 l 22.0649,-10.13151 c 0.044,-0.49607 0.2845,-0.84228 0.5018,-0.9187 z m -194.1298,89.82673 1.0152,-0.39364 c 0.5826,-0.23122 1.2405,-0.5341 1.8093,-0.7953 0.5688,-0.26117 1.2872,-0.59026 1.8422,-0.88136 l 0.991,-0.52753 c 0.5389,-0.24749 0.7097,0.83477 -0.3179,1.59665 l 9.5129,20.71772 c 1.2476,-0.28285 1.9565,0.55071 1.4175,0.7982 -0.3292,0.15116 -0.6887,0.31706 -1.0318,0.43832 -0.5826,0.23125 -1.3144,0.53099 -1.8832,0.79216 -0.5689,0.2612 -1.2133,0.59342 -1.7684,0.8845 -0.3156,0.18115 -0.6449,0.33163 -0.9742,0.48286 -0.4791,0.21995 -0.7399,-0.81936 0.2878,-1.58124 l -9.513,-20.71772 c -1.2476,0.28286 -1.8964,-0.5799 -1.3874,-0.81362 z m 8.0685,-3.70481 1.4945,-0.61368 c 0.822,-0.3412 1.721,-0.75478 2.2898,-1.01598 0.5689,-0.26119 1.4963,-0.68624 2.2909,-1.08734 l 1.4102,-0.72007 c 0.3892,-0.17873 0.6059,0.374 0.2157,1.02444 l 20.0894,10.75004 -7.4506,-16.22619 c -1.2476,0.28288 -1.897,-0.57962 -1.418,-0.79957 l 0.986,-0.38021 c 0.5826,-0.23126 1.2097,-0.52 1.7786,-0.78122 0.5688,-0.26117 1.2286,-0.56338 1.7837,-0.85448 l 0.931,-0.50002 c 0.509,-0.23372 0.7384,0.82163 -0.3192,1.59724 l 9.5264,20.74701 c 1.1991,-0.15181 1.734,0.61744 1.2549,0.83739 -0.3293,0.15123 -0.6887,0.31706 -1.0318,0.43832 -0.5828,0.23134 -1.2838,0.51694 -1.8526,0.77811 -0.5689,0.26123 -1.3346,0.64909 -2.0093,0.99514 -0.3756,0.20868 -0.7949,0.40048 -1.2139,0.59289 -0.3893,0.17876 -0.5904,-0.41741 -0.1864,-1.0379 l -22.1328,-11.80567 8.2073,17.87424 c 1.2776,-0.29665 1.9264,0.56452 1.4174,0.79824 -0.3293,0.15122 -0.6275,0.28891 -0.9706,0.41018 -0.5825,0.23125 -1.2559,0.50414 -1.8246,0.76528 -0.569,0.26126 -1.1826,0.5793 -1.7377,0.87042 -0.3156,0.18114 -0.6164,0.31851 -0.9157,0.45597 -0.4791,0.21995 -0.7386,-0.81996 0.2891,-1.58187 l -9.5129,-20.71771 c -1.2177,0.26911 -1.8978,-0.57928 -1.3888,-0.813 z m 26.7814,-12.29721 13.0233,-5.97988 c 6.8559,-3.14805 14.2125,-1.81361 17.6218,5.61125 3.5467,7.72425 -0.8421,14.66955 -7.189,17.58385 l -12.8435,5.89736 c -0.509,0.23372 -0.7385,-0.81998 0.2891,-1.58183 l -9.513,-20.71772 c -1.2176,0.26911 -1.8977,-0.57931 -1.3887,-0.81303 z m 27.6001,-12.6731 1.0152,-0.39364 c 0.5825,-0.2312 1.2418,-0.53473 1.8106,-0.7959 0.5689,-0.26123 1.2871,-0.59022 1.8423,-0.88139 l 0.9909,-0.5275 c 0.5389,-0.24746 0.7085,0.83534 -0.3192,1.59725 l 5.6908,12.39362 c 1.1272,2.45499 1.8612,4.3663 5.2843,4.71584 2.8778,0.34617 8.2391,-2.18805 9.8772,-4.46277 2.1941,-3.03747 0.7923,-5.22159 -0.225,-7.43708 l -5.5673,-12.12472 c -1.2475,0.28282 -1.8976,-0.57937 -1.3887,-0.81303 l 1.0152,-0.39364 c 0.5826,-0.23122 1.2418,-0.53473 1.8106,-0.7959 0.5689,-0.26123 1.2871,-0.59022 1.8423,-0.88139 l 0.9909,-0.5275 c 0.5089,-0.23369 0.7397,0.82101 -0.3178,1.59662 l 5.9799,13.02329 c 1.4159,3.08371 2.3745,5.72501 -0.2073,9.33932 -2.7064,3.81654 -11.8326,7.86208 -15.6626,7.33687 -4.4929,-0.54711 -6.118,-4.00732 -7.3552,-6.70183 l -5.7183,-12.45353 c -1.2477,0.28289 -1.8978,-0.57927 -1.3888,-0.81299 z m 75.2563,-34.5554 14.3119,-6.57157 c 4.2512,-1.95203 8.7661,-1.66944 10.7457,2.64176 1.8696,4.0717 -0.3008,7.31611 -3.5836,9.4035 l 10.4224,6.19935 c 1.9887,-0.40564 2.6373,0.45571 2.1283,0.68943 -0.449,0.20618 -0.8979,0.41307 -1.3607,0.58929 -0.7623,0.3138 -1.614,0.66854 -2.1827,0.9297 -0.5689,0.26123 -1.2132,0.59339 -1.7684,0.88451 -0.3156,0.18114 -0.6449,0.33163 -0.9742,0.48285 -0.4491,0.20618 -0.693,-0.47988 -0.1096,-1.18281 l -10.7133,-6.28177 -6.2274,2.85943 4.1657,9.07224 c 1.2477,-0.28288 1.9563,0.55084 1.4175,0.79824 -0.3294,0.15122 -0.6888,0.31705 -1.0318,0.43829 -0.5826,0.23128 -1.3145,0.53102 -1.8833,0.79219 -0.5689,0.26123 -1.2133,0.59345 -1.7683,0.8845 -0.3156,0.18115 -0.6463,0.33223 -0.9756,0.48345 -0.479,0.21995 -0.7386,-0.81992 0.2891,-1.58183 l -9.5129,-20.71772 c -1.2177,0.26912 -1.8977,-0.57934 -1.3888,-0.81303 z m 25.7883,-11.84119 1.0153,-0.39364 c 0.5825,-0.23122 1.2404,-0.5341 1.8092,-0.7953 0.5689,-0.2612 1.2885,-0.59082 1.8436,-0.88198 l 0.9896,-0.52691 c 0.5388,-0.24743 0.7098,0.83474 -0.3179,1.59665 l 9.513,20.71772 c 1.2476,-0.28288 1.9563,0.55078 1.4175,0.79821 -0.3294,0.15122 -0.6875,0.31642 -1.0305,0.43769 -0.5827,0.23131 -1.3157,0.53159 -1.8846,0.79278 -0.5688,0.2612 -1.2133,0.59342 -1.7683,0.88451 -0.3156,0.18114 -0.645,0.33163 -0.9743,0.48285 -0.479,0.21995 -0.7399,-0.81933 0.2878,-1.58124 l -9.5129,-20.71772 c -1.2477,0.28289 -1.8964,-0.57993 -1.3875,-0.81362 z m -339.68518,159.01623 -161.95522,76.85522 3.32657,4.61544 325.68253,72.65814 31.1121,-11.31179 -134.2554,-124.20599 -35.1304,-10.23157 z m 217.24708,-99.06331 7.7672,16.91576 7.0649,-3.24394 c 5.4188,-2.48817 8.536,-6.67441 5.6216,-13.02146 -2.4607,-5.35907 -6.9213,-6.864 -13.1186,-4.01839 z m 102.8565,-47.22853 3.0245,6.58685 7.8142,-3.58804 c 2.7844,-1.27851 5.2476,-3.09769 3.9829,-5.85207 -1.141,-2.48494 -3.9842,-2.12293 -6.8583,-0.80323 z m -252.7166,164.25599 130.7476,120.96168 -12.121,-43.63397 -29.2511,-105.30667 z m 94.3528,-20.64951 6.024,21.68467 20.5235,73.88649 25.1962,-12.42522 z m 149.1637,38.26697 -94.7633,46.72973 -27.0799,13.35304 13.142,47.31092 6e-4,10e-4 v 0.76947 l -9.9235,34.5199 z m 4.7977,-1.33577 -124.156,149.33259 4.2138,1.97717 123.7744,-139.57628 z m 4.9159,-0.47126 63.4243,64.38461 -37.8198,-58.74752 z m -1.1481,2.87411 2.6,7.96167 40.687,35.9816 -37.1591,-37.724 z m -150.0245,119.62876 19.0197,24.98255 10.2407,-35.62301 z"
       style="opacity:0.95;fill:#000000;fill-opacity:1;fill-rule:evenodd;stroke:none;stroke-width:2.83465;stroke-linecap:square;stroke-linejoin:bevel;stroke-miterlimit:4;stroke-dasharray:none;stroke-opacity:1" />
  </g>
</svg>
