<?xml version="1.0" encoding="UTF-8" standalone="no"?>
<svg
   xmlns:dc="http://purl.org/dc/elements/1.1/"
   xmlns:cc="http://creativecommons.org/ns#"
   xmlns:rdf="http://www.w3.org/1999/02/22-rdf-syntax-ns#"
   xmlns:svg="http://www.w3.org/2000/svg"
   xmlns="http://www.w3.org/2000/svg"
   xmlns:sodipodi="http://sodipodi.sourceforge.net/DTD/sodipodi-0.dtd"
   xmlns:inkscape="http://www.inkscape.org/namespaces/inkscape"
   inkscape:version="1.0beta1 (32d4812, 2019-09-19)"
   sodipodi:docname="RPC _Logo .svg"
   viewBox="0 0 699.65662 267.03745"
   height="267.03745"
   width="699.65662"
   id="svg5966"
   version="1.1">
  <metadata
     id="metadata5972">
    <rdf:RDF>
      <cc:Work
         rdf:about="">
        <dc:format>image/svg+xml</dc:format>
        <dc:type
           rdf:resource="http://purl.org/dc/dcmitype/StillImage" />
        <dc:title></dc:title>
      </cc:Work>
    </rdf:RDF>
  </metadata>
  <defs
     id="defs5970">
    <filter
       id="filter6530"
       inkscape:label="Invert"
       style="color-interpolation-filters:sRGB">
      <feColorMatrix
         id="feColorMatrix6526"
         result="color1"
         values="180"
         type="hueRotate" />
      <feColorMatrix
         id="feColorMatrix6528"
         result="color2"
         values="-1 0 0 0 1 0 -1 0 0 1 0 0 -1 0 1 -0.21 -0.72 -0.07 2 0 " />
    </filter>
  </defs>
  <sodipodi:namedview
     inkscape:document-rotation="0"
     inkscape:snap-nodes="true"
     inkscape:snap-page="true"
     inkscape:snap-center="true"
     inkscape:snap-object-midpoints="true"
     inkscape:snap-midpoints="true"
     inkscape:snap-smooth-nodes="true"
     inkscape:snap-intersection-paths="true"
     inkscape:object-paths="true"
     inkscape:snap-bbox-midpoints="true"
     inkscape:snap-bbox-edge-midpoints="true"
     inkscape:bbox-nodes="true"
     inkscape:bbox-paths="true"
     inkscape:snap-bbox="true"
     fit-margin-bottom="0"
     fit-margin-right="0"
     fit-margin-left="0"
     fit-margin-top="0"
     inkscape:current-layer="layer1"
     inkscape:window-maximized="0"
     inkscape:window-y="23"
     inkscape:window-x="0"
     inkscape:cy="202.29262"
     inkscape:cx="-243.08606"
     inkscape:zoom="1.1788652"
     showgrid="false"
     id="namedview5968"
     inkscape:window-height="855"
     inkscape:window-width="1440"
     inkscape:pageshadow="2"
     inkscape:pageopacity="0"
     guidetolerance="10"
     gridtolerance="10"
     objecttolerance="10"
     borderopacity="1"
     bordercolor="#666666"
     pagecolor="#ffffff" />
  <path
     inkscape:connector-curvature="0"
     id="path6536"
     d=""
     style="fill:#000000" />
  <g
     transform="translate(171.04401,-38.67054)"
     inkscape:label="Layer 1"
     id="layer1"
     inkscape:groupmode="layer">
    <path
       inkscape:export-ydpi="482.01468"
       inkscape:export-xdpi="482.01468"
       inkscape:export-filename="C:\Users\Ikeath\Desktop\logo.png"
       inkscape:connector-curvature="0"
       id="path6573"
       d="m -91.394212,38.67054 -79.649798,0.01765 40.15661,69.55292 8.38318,-2.24768 -33.86812,-58.661691 h 67.567078 z m 220.350202,0.06178 -78.18912,0.0059 -2.29769,8.572941 h 65.72983 l -33.5254,58.068889 8.49057,2.27415 z M -149.02915,51.338722 -20.76452,273.13932 107.28828,51.368142 Z m 40.04482,20.15553 85.36903,0.0353 v 4.31589 l -38.63708,22.307599 z m 90.79257,0.0383 85.4764,0.0353 -46.74371,26.641129 -38.73269,-22.363489 z m -93.5801,4.61303 46.17297,26.341048 v 45.47279 l -3.533322,2.04026 z m 181.83962,0.078 -42.67348,73.912938 -3.854,-2.22561 v -45.17122 z m -90.97055,4.317369 35.98633,20.777759 -35.91131,20.46591 -35.97017,-20.52033 z m -39.27255,25.039219 36.63506,20.89985 v 42.30575 l -36.63506,-21.14993 z m 78.29354,0.25007 v 42.08068 l -36.2364,20.92193 V 126.4815 Z m -80.72656,46.66428 39.06808,22.55326 v 53.92068 L -66.42117,154.6966 Z m 83.4376,0.11327 3.853999,2.22561 -42.801439,74.13506 v -53.8736 z m -8.73033,71.68438 -32.97817,57.11862 -32.28974,-55.92858 -6.4356,6.43411 38.62678,66.66831 39.29902,-68.07016 z"
       style="fill:#000000;fill-opacity:1;stroke:none;stroke-width:0.753148px;stroke-linecap:butt;stroke-linejoin:miter;stroke-opacity:1" />
    <path
       sodipodi:nodetypes="ccccccccccccccccccccccccccccc"
       inkscape:export-ydpi="482.01468"
       inkscape:export-xdpi="482.01468"
       inkscape:export-filename="C:\Users\Ikeath\Desktop\logo.png"
       inkscape:connector-curvature="0"
       id="path6573-2"
       d="m 308.26238,45.793856 -79.6498,0.0177 40.15661,69.552914 8.38318,-2.24768 -33.86812,-58.661686 h 67.56708 z m 220.3502,0.0618 -78.18912,0.006 -2.29769,8.572938 h 65.72983 l -33.5254,58.068886 8.49057,2.27415 z M 250.62744,58.462054 378.89207,280.26266 506.94487,58.491474 Z M 472.43289,78.655884 378.82712,240.78706 285.21963,78.652884 Z M 411.7555,231.4155 l -32.97817,57.11863 -32.28974,-55.92859 -6.4356,6.43411 38.62678,66.66832 39.29902,-68.07017 z"
       style="fill:#000000;fill-opacity:1;stroke:none;stroke-width:0.753148px;stroke-linecap:butt;stroke-linejoin:miter;stroke-opacity:1" />
  </g>
</svg>
